<svg width="20" height="20" viewBox="0 0 20 20" fill="none" xmlns="http://www.w3.org/2000/svg">
<g clip-path="url(#clip0_3707_9781)">
<path fill-rule="evenodd" clip-rule="evenodd" d="M14.7143 5.28652C15.0397 5.61196 15.0397 6.1396 14.7143 6.46503L6.46468 14.7146C6.13924 15.04 5.6116 15.04 5.28617 14.7146C4.96073 14.3892 4.96073 13.8615 5.28617 13.5361L13.5357 5.28652C13.8612 4.96108 14.3888 4.96108 14.7143 5.28652Z" fill="#18191C"/>
<path fill-rule="evenodd" clip-rule="evenodd" d="M5.2877 5.28457C5.61313 4.95913 6.14077 4.95913 6.46621 5.28457L14.7158 13.5341C15.0412 13.8596 15.0412 14.3872 14.7158 14.7127C14.3904 15.0381 13.8627 15.0381 13.5373 14.7127L5.2877 6.46308C4.96226 6.13764 4.96226 5.61001 5.2877 5.28457Z" fill="#18191C"/>
</g>
<defs>
<clipPath id="clip0_3707_9781">
<rect width="20" height="20" fill="white"/>
</clipPath>
</defs>
</svg>
