<svg width="20" height="20" viewBox="0 0 20 20" fill="none" xmlns="http://www.w3.org/2000/svg">
<path d="M6.96537 4.09475H14.1572C14.664 4.09475 15.1252 4.30152 15.4591 4.63546C15.793 4.9689 16 5.429 16 5.93516V16.1596C16 16.6657 15.793 17.1264 15.4591 17.4598C15.1252 17.7932 14.6645 18 14.1572 18H6.96537C6.45855 18 5.99734 17.7932 5.66397 17.4598C5.33009 17.1264 5.12255 16.6662 5.12255 16.1596V5.93516C5.12255 5.429 5.32959 4.9684 5.66397 4.63546C5.99784 4.30202 6.45855 4.09475 6.96537 4.09475ZM3.63917 14.0653C3.63917 14.2416 3.4963 14.3843 3.31984 14.3843C3.14338 14.3843 3 14.2416 3 14.0653V3.84092C3 3.33425 3.20704 2.87415 3.54142 2.54071C3.87529 2.20727 4.33599 2 4.84282 2H12.0346C12.2111 2 12.354 2.14269 12.354 2.31942C12.354 2.49565 12.2111 2.63834 12.0346 2.63834H4.84282C4.51246 2.63834 4.21167 2.77352 3.9931 2.9918C3.77503 3.20959 3.63917 3.50998 3.63917 3.84042V14.0648V14.0653ZM14.1567 4.73359H6.96487C6.63451 4.73359 6.33372 4.86877 6.11515 5.08705C5.89708 5.30484 5.76122 5.60523 5.76122 5.93567V16.1601C5.76122 16.4905 5.89658 16.7909 6.11515 17.0087C6.33322 17.2265 6.634 17.3622 6.96487 17.3622H14.1567C14.487 17.3622 14.7883 17.227 15.0064 17.0087C15.2245 16.7909 15.3603 16.4905 15.3603 16.1601V5.93567C15.3603 5.60573 15.225 5.30484 15.0064 5.08705C14.7883 4.86927 14.487 4.73359 14.1567 4.73359Z" fill="#4864E1" stroke="#4864E1" stroke-width="0.5"/>
</svg>
