<svg width="24" height="20" viewBox="0 0 24 20" fill="none" xmlns="http://www.w3.org/2000/svg">
<path d="M15.3029 3.57766H8.40378C8.34538 3.57766 8.28938 3.55392 8.24808 3.51166C8.20679 3.4694 8.18359 3.41208 8.18359 3.35231C8.18359 3.29254 8.20679 3.23522 8.24808 3.19296C8.28938 3.1507 8.34538 3.12695 8.40378 3.12695H15.3029C15.3613 3.12695 15.4173 3.1507 15.4586 3.19296C15.4998 3.23522 15.523 3.29254 15.523 3.35231C15.523 3.41208 15.4998 3.4694 15.4586 3.51166C15.4173 3.55392 15.3613 3.57766 15.3029 3.57766Z" fill="#3276FA" stroke="#3276FA" stroke-width="0.2"/>
<path d="M19.3394 3.12695H17.9934C17.935 3.12695 17.879 3.1507 17.8377 3.19296C17.7964 3.23522 17.7732 3.29254 17.7732 3.35231C17.7732 3.41208 17.7964 3.4694 17.8377 3.51166C17.879 3.55392 17.935 3.57766 17.9934 3.57766H19.3394C19.3978 3.57766 19.4538 3.60141 19.4951 3.64367C19.5364 3.68593 19.5596 3.74325 19.5596 3.80302V7.55893H4.44037V3.80302C4.44037 3.74325 4.46356 3.68593 4.50486 3.64367C4.54615 3.60141 4.60215 3.57766 4.66055 3.57766H6.05505C6.11344 3.57766 6.16945 3.55392 6.21074 3.51166C6.25203 3.4694 6.27523 3.41208 6.27523 3.35231C6.27523 3.29254 6.25203 3.23522 6.21074 3.19296C6.16945 3.1507 6.11344 3.12695 6.05505 3.12695H4.66055C4.48548 3.12735 4.31769 3.19871 4.1939 3.32541C4.07011 3.45211 4.00039 3.62384 4 3.80302V17.3243C4.00039 17.5035 4.07011 17.6752 4.1939 17.8019C4.31769 17.9286 4.48548 18 4.66055 18.0004H19.3394C19.5145 18 19.6823 17.9286 19.8061 17.8019C19.9299 17.6752 19.9996 17.5035 20 17.3243V3.80302C19.9996 3.62384 19.9299 3.45211 19.8061 3.32541C19.6823 3.19871 19.5145 3.12735 19.3394 3.12695ZM19.3394 17.5497H4.66055C4.60215 17.5497 4.54615 17.5259 4.50486 17.4837C4.46356 17.4414 4.44037 17.3841 4.44037 17.3243V7.85941H19.5596V17.3243C19.5596 17.3841 19.5364 17.4414 19.4951 17.4837C19.4538 17.5259 19.3978 17.5497 19.3394 17.5497Z" fill="#3276FA" stroke="#3276FA" stroke-width="0.2"/>
<path d="M7.48517 4.3512V2.22535C7.48517 2.16559 7.46197 2.10827 7.42068 2.06601C7.37938 2.02374 7.32338 2 7.26498 2C7.20659 2 7.15058 2.02374 7.10929 2.06601C7.068 2.10827 7.0448 2.16559 7.0448 2.22535V4.3512C6.77749 4.40705 6.53996 4.56249 6.37826 4.7874C6.21656 5.0123 6.14222 5.29064 6.16964 5.56846C6.19706 5.84628 6.32429 6.10378 6.52667 6.29104C6.72905 6.4783 6.99216 6.58199 7.26498 6.58199C7.53781 6.58199 7.80091 6.4783 8.00329 6.29104C8.20567 6.10378 8.3329 5.84628 8.36032 5.56846C8.38775 5.29064 8.3134 5.0123 8.1517 4.7874C7.99001 4.56249 7.75248 4.40705 7.48517 4.3512ZM7.26498 6.13151C7.13434 6.13151 7.00663 6.09186 6.898 6.01757C6.78937 5.94328 6.70471 5.8377 6.65471 5.71416C6.60472 5.59063 6.59164 5.45469 6.61712 5.32355C6.64261 5.1924 6.70552 5.07194 6.7979 4.97739C6.89028 4.88284 7.00798 4.81845 7.13612 4.79237C7.26425 4.76628 7.39706 4.77967 7.51776 4.83084C7.63846 4.88201 7.74163 4.96866 7.81421 5.07984C7.88679 5.19102 7.92553 5.32173 7.92553 5.45544C7.92515 5.63462 7.85543 5.80635 7.73163 5.93305C7.60784 6.05975 7.44005 6.13111 7.26498 6.13151Z" fill="#3276FA" stroke="#3276FA" stroke-width="0.3"/>
<path d="M16.8797 4.3512V2.22535C16.8797 2.16559 16.8565 2.10827 16.8152 2.06601C16.7739 2.02374 16.7179 2 16.6595 2C16.6011 2 16.5451 2.02374 16.5038 2.06601C16.4625 2.10827 16.4393 2.16559 16.4393 2.22535V4.3512C16.172 4.40705 15.9345 4.56249 15.7728 4.7874C15.6111 5.0123 15.5367 5.29064 15.5642 5.56846C15.5916 5.84628 15.7188 6.10378 15.9212 6.29104C16.1236 6.4783 16.3867 6.58199 16.6595 6.58199C16.9323 6.58199 17.1954 6.4783 17.3978 6.29104C17.6002 6.10378 17.7274 5.84628 17.7549 5.56846C17.7823 5.29064 17.7079 5.0123 17.5462 4.7874C17.3845 4.56249 17.147 4.40705 16.8797 4.3512ZM16.6595 6.13151C16.5289 6.13151 16.4012 6.09186 16.2925 6.01757C16.1839 5.94328 16.0992 5.8377 16.0492 5.71416C15.9992 5.59063 15.9862 5.45469 16.0117 5.32355C16.0371 5.1924 16.1001 5.07194 16.1924 4.97739C16.2848 4.88284 16.4025 4.81845 16.5306 4.79237C16.6588 4.76628 16.7916 4.77967 16.9123 4.83084C17.033 4.88201 17.1362 4.96866 17.2087 5.07984C17.2813 5.19102 17.3201 5.32173 17.3201 5.45544C17.3197 5.63462 17.25 5.80635 17.1262 5.93305C17.0024 6.05975 16.8346 6.13111 16.6595 6.13151Z" fill="#3276FA" stroke="#3276FA" stroke-width="0.3"/>
<path d="M11.1435 12.1415H9.38208C9.22635 12.1415 9.07701 12.0781 8.9669 11.9654C8.85678 11.8527 8.79492 11.6999 8.79492 11.5405V9.73767C8.79492 9.57828 8.85678 9.42543 8.9669 9.31273C9.07701 9.20003 9.22635 9.13672 9.38208 9.13672H11.1435C11.2993 9.13672 11.4486 9.20003 11.5587 9.31273C11.6688 9.42543 11.7307 9.57828 11.7307 9.73767V11.5405C11.7307 11.6999 11.6688 11.8527 11.5587 11.9654C11.4486 12.0781 11.2993 12.1415 11.1435 12.1415ZM9.38208 9.43719C9.30422 9.43719 9.22954 9.46885 9.17449 9.5252C9.11943 9.58155 9.0885 9.65797 9.0885 9.73767V11.5405C9.0885 11.6202 9.11943 11.6966 9.17449 11.753C9.22954 11.8093 9.30422 11.841 9.38208 11.841H11.1435C11.2214 11.841 11.2961 11.8093 11.3511 11.753C11.4062 11.6966 11.4371 11.6202 11.4371 11.5405V9.73767C11.4371 9.65797 11.4062 9.58155 11.3511 9.5252C11.2961 9.46885 11.2214 9.43719 11.1435 9.43719H9.38208Z" fill="#3276FA" stroke="#3276FA" stroke-width="0.3"/>
<path d="M14.6182 12.1415H12.8567C12.701 12.1415 12.5516 12.0781 12.4415 11.9654C12.3314 11.8527 12.2695 11.6999 12.2695 11.5405V9.73767C12.2695 9.57828 12.3314 9.42543 12.4415 9.31273C12.5516 9.20003 12.701 9.13672 12.8567 9.13672H14.6182C14.7739 9.13672 14.9232 9.20003 15.0333 9.31273C15.1434 9.42543 15.2053 9.57828 15.2053 9.73767V11.5405C15.2053 11.6999 15.1434 11.8527 15.0333 11.9654C14.9232 12.0781 14.7739 12.1415 14.6182 12.1415ZM12.8567 9.43719C12.7788 9.43719 12.7042 9.46885 12.6491 9.5252C12.594 9.58155 12.5631 9.65797 12.5631 9.73767V11.5405C12.5631 11.6202 12.594 11.6966 12.6491 11.753C12.7042 11.8093 12.7788 11.841 12.8567 11.841H14.6182C14.696 11.841 14.7707 11.8093 14.8257 11.753C14.8808 11.6966 14.9117 11.6202 14.9117 11.5405V9.73767C14.9117 9.65797 14.8808 9.58155 14.8257 9.5252C14.7707 9.46885 14.696 9.43719 14.6182 9.43719H12.8567Z" fill="#3276FA" stroke="#3276FA" stroke-width="0.3"/>
<path d="M18.0928 12.1415H16.3313C16.1756 12.1415 16.0262 12.0781 15.9161 11.9654C15.806 11.8527 15.7441 11.6999 15.7441 11.5405V9.73767C15.7441 9.57828 15.806 9.42543 15.9161 9.31273C16.0262 9.20003 16.1756 9.13672 16.3313 9.13672H18.0928C18.2485 9.13672 18.3978 9.20003 18.5079 9.31273C18.6181 9.42543 18.6799 9.57828 18.6799 9.73767V11.5405C18.6799 11.6999 18.6181 11.8527 18.5079 11.9654C18.3978 12.0781 18.2485 12.1415 18.0928 12.1415ZM16.3313 9.43719C16.2534 9.43719 16.1788 9.46885 16.1237 9.5252C16.0686 9.58155 16.0377 9.65797 16.0377 9.73767V11.5405C16.0377 11.6202 16.0686 11.6966 16.1237 11.753C16.1788 11.8093 16.2534 11.841 16.3313 11.841H18.0928C18.1706 11.841 18.2453 11.8093 18.3004 11.753C18.3554 11.6966 18.3863 11.6202 18.3863 11.5405V9.73767C18.3863 9.65797 18.3554 9.58155 18.3004 9.5252C18.2453 9.46885 18.1706 9.43719 18.0928 9.43719H16.3313Z" fill="#3276FA" stroke="#3276FA" stroke-width="0.3"/>
<path d="M7.66894 15.7469H5.90747C5.75174 15.7469 5.6024 15.6836 5.49229 15.5709C5.38217 15.4582 5.32031 15.3054 5.32031 15.146V13.3431C5.32031 13.1838 5.38217 13.0309 5.49229 12.9182C5.6024 12.8055 5.75174 12.7422 5.90747 12.7422H7.66894C7.82466 12.7422 7.974 12.8055 8.08412 12.9182C8.19423 13.0309 8.25609 13.1838 8.25609 13.3431V15.146C8.25609 15.3054 8.19423 15.4582 8.08412 15.5709C7.974 15.6836 7.82466 15.7469 7.66894 15.7469ZM5.90747 13.0427C5.82961 13.0427 5.75493 13.0743 5.69988 13.1307C5.64482 13.187 5.61389 13.2634 5.61389 13.3431V15.146C5.61389 15.2257 5.64482 15.3021 5.69988 15.3584C5.75493 15.4148 5.82961 15.4464 5.90747 15.4464H7.66894C7.7468 15.4464 7.82147 15.4148 7.87653 15.3584C7.93158 15.3021 7.96251 15.2257 7.96251 15.146V13.3431C7.96251 13.2634 7.93158 13.187 7.87653 13.1307C7.82147 13.0743 7.7468 13.0427 7.66894 13.0427H5.90747Z" fill="#3276FA" stroke="#3276FA" stroke-width="0.3"/>
<path d="M11.1435 15.7469H9.38208C9.22635 15.7469 9.07701 15.6836 8.9669 15.5709C8.85678 15.4582 8.79492 15.3054 8.79492 15.146V13.3431C8.79492 13.1838 8.85678 13.0309 8.9669 12.9182C9.07701 12.8055 9.22635 12.7422 9.38208 12.7422H11.1435C11.2993 12.7422 11.4486 12.8055 11.5587 12.9182C11.6688 13.0309 11.7307 13.1838 11.7307 13.3431V15.146C11.7307 15.3054 11.6688 15.4582 11.5587 15.5709C11.4486 15.6836 11.2993 15.7469 11.1435 15.7469ZM9.38208 13.0427C9.30422 13.0427 9.22954 13.0743 9.17449 13.1307C9.11943 13.187 9.0885 13.2634 9.0885 13.3431V15.146C9.0885 15.2257 9.11943 15.3021 9.17449 15.3584C9.22954 15.4148 9.30422 15.4464 9.38208 15.4464H11.1435C11.2214 15.4464 11.2961 15.4148 11.3511 15.3584C11.4062 15.3021 11.4371 15.2257 11.4371 15.146V13.3431C11.4371 13.2634 11.4062 13.187 11.3511 13.1307C11.2961 13.0743 11.2214 13.0427 11.1435 13.0427H9.38208Z" fill="#3276FA" stroke="#3276FA" stroke-width="0.3"/>
<path d="M14.6182 15.7469H12.8567C12.701 15.7469 12.5516 15.6836 12.4415 15.5709C12.3314 15.4582 12.2695 15.3054 12.2695 15.146V13.3431C12.2695 13.1838 12.3314 13.0309 12.4415 12.9182C12.5516 12.8055 12.701 12.7422 12.8567 12.7422H14.6182C14.7739 12.7422 14.9232 12.8055 15.0333 12.9182C15.1434 13.0309 15.2053 13.1838 15.2053 13.3431V15.146C15.2053 15.3054 15.1434 15.4582 15.0333 15.5709C14.9232 15.6836 14.7739 15.7469 14.6182 15.7469ZM12.8567 13.0427C12.7788 13.0427 12.7042 13.0743 12.6491 13.1307C12.594 13.187 12.5631 13.2634 12.5631 13.3431V15.146C12.5631 15.2257 12.594 15.3021 12.6491 15.3584C12.7042 15.4148 12.7788 15.4464 12.8567 15.4464H14.6182C14.696 15.4464 14.7707 15.4148 14.8257 15.3584C14.8808 15.3021 14.9117 15.2257 14.9117 15.146V13.3431C14.9117 13.2634 14.8808 13.187 14.8257 13.1307C14.7707 13.0743 14.696 13.0427 14.6182 13.0427H12.8567Z" fill="#3276FA" stroke="#3276FA" stroke-width="0.3"/>
<path d="M11.1432 9.28516H9.38177C9.13857 9.28516 8.94141 9.48695 8.94141 9.73587V11.5387C8.94141 11.7876 9.13857 11.9894 9.38177 11.9894H11.1432C11.3864 11.9894 11.5836 11.7876 11.5836 11.5387V9.73587C11.5836 9.48695 11.3864 9.28516 11.1432 9.28516Z" stroke="#3276FA" stroke-width="0.3"/>
<path d="M14.6179 9.28516H12.8564C12.6132 9.28516 12.416 9.48695 12.416 9.73587V11.5387C12.416 11.7876 12.6132 11.9894 12.8564 11.9894H14.6179C14.8611 11.9894 15.0582 11.7876 15.0582 11.5387V9.73587C15.0582 9.48695 14.8611 9.28516 14.6179 9.28516Z" stroke="#3276FA" stroke-width="0.3"/>
<path d="M16.329 9.38516H18.0905C18.2763 9.38516 18.4309 9.53997 18.4309 9.73587V11.5387C18.4309 11.7346 18.2763 11.8894 18.0905 11.8894H16.329C16.1432 11.8894 15.9887 11.7346 15.9887 11.5387V9.73587C15.9887 9.53997 16.1432 9.38516 16.329 9.38516Z" stroke="#3276FA" stroke-width="0.2"/>
<path d="M7.67058 12.8926H5.90912C5.66591 12.8926 5.46875 13.0944 5.46875 13.3433V15.1461C5.46875 15.395 5.66591 15.5968 5.90912 15.5968H7.67058C7.91379 15.5968 8.11095 15.395 8.11095 15.1461V13.3433C8.11095 13.0944 7.91379 12.8926 7.67058 12.8926Z" stroke="#3276FA" stroke-width="0.3"/>
<path d="M11.1432 12.8926H9.38177C9.13857 12.8926 8.94141 13.0944 8.94141 13.3433V15.1461C8.94141 15.395 9.13857 15.5968 9.38177 15.5968H11.1432C11.3864 15.5968 11.5836 15.395 11.5836 15.1461V13.3433C11.5836 13.0944 11.3864 12.8926 11.1432 12.8926Z" stroke="#3276FA" stroke-width="0.3"/>
<path d="M14.6179 12.8926H12.8564C12.6132 12.8926 12.416 13.0944 12.416 13.3433V15.1461C12.416 15.395 12.6132 15.5968 12.8564 15.5968H14.6179C14.8611 15.5968 15.0582 15.395 15.0582 15.1461V13.3433C15.0582 13.0944 14.8611 12.8926 14.6179 12.8926Z" stroke="#3276FA" stroke-width="0.3"/>
</svg>
