<svg width="24" height="20" viewBox="0 0 24 20" fill="none" xmlns="http://www.w3.org/2000/svg">
<path d="M14.9474 18.8421L16.0543 18.728C18.0182 18.5298 19.5894 16.9441 19.7858 14.9619L19.8988 13.8447C19.9107 13.7006 19.9524 13.5564 20 13.4243H19.8929V6.90728L19.7917 5.88017C19.5953 3.89804 18.0242 2.31234 16.0603 2.11412L14.9533 2" stroke="#3276FA"/>
<path d="M9.05263 1.99969L7.94569 2.11381C5.98177 2.31202 4.41064 3.89773 4.21425 5.87986L4.10117 6.99706C4.08927 7.14122 4.04761 7.28537 4 7.41752H4.10712V13.9345L4.20829 14.9616C4.40469 16.9438 5.97582 18.5295 7.93974 18.7277L9.04668 18.8418" stroke="#3276FA"/>
<line x1="6.52734" y1="5.71094" x2="17.4747" y2="5.71094" stroke="#3276FA"/>
<line x1="6.52734" y1="9.08008" x2="17.4747" y2="9.08008" stroke="#3276FA"/>
<line x1="6.52734" y1="12.4473" x2="17.4747" y2="12.4473" stroke="#3276FA"/>
<line x1="6.52734" y1="15.8164" x2="17.4747" y2="15.8164" stroke="#3276FA"/>
</svg>
