<svg width="24" height="20" viewBox="0 0 24 20" fill="none" xmlns="http://www.w3.org/2000/svg">
<path d="M11.8087 17.86L16.31 12.704C17.402 11.5291 18.0053 9.99266 18 8.39999C18 6.70261 17.3151 5.07474 16.0962 3.87451C14.8772 2.67428 13.2239 2 11.5 2C9.7761 2 8.12281 2.67428 6.90383 3.87451C5.68485 5.07474 5.00004 6.70261 5.00004 8.39999C4.99469 9.99266 5.59796 11.5291 6.69003 12.704L11.8087 17.86ZM11.8087 17.86C11.7706 17.9039 11.7233 17.9391 11.67 17.9633L11.8087 17.86Z" fill="#3276FA" stroke="#3276FA"/>
<mask id="path-2-inside-1_3709_9938" fill="white">
<path d="M11.5 5.60156C10.9375 5.60156 10.3877 5.76578 9.92009 6.07345C9.45244 6.38111 9.08795 6.81841 8.87272 7.33005C8.65748 7.84168 8.60117 8.40466 8.71089 8.94781C8.82062 9.49096 9.09146 9.98987 9.48916 10.3815C9.88687 10.773 10.3936 11.0397 10.9452 11.1478C11.4968 11.2558 12.0686 11.2003 12.5882 10.9884C13.1079 10.7765 13.552 10.4176 13.8645 9.95715C14.1769 9.49669 14.3437 8.95534 14.3437 8.40156C14.3437 7.65895 14.0441 6.94676 13.5108 6.42166C12.9775 5.89656 12.2542 5.60156 11.5 5.60156ZM11.5 10.4016C11.0982 10.4016 10.7055 10.2843 10.3715 10.0645C10.0375 9.84473 9.77711 9.53237 9.62337 9.16692C9.46963 8.80147 9.4294 8.39934 9.50778 8.01138C9.58615 7.62342 9.77961 7.26705 10.0637 6.98735C10.3478 6.70764 10.7097 6.51716 11.1037 6.43999C11.4977 6.36282 11.9061 6.40243 12.2773 6.5538C12.6485 6.70518 12.9657 6.96152 13.1889 7.29042C13.4121 7.61932 13.5312 8.006 13.5312 8.40156C13.5312 8.93199 13.3172 9.4407 12.9363 9.81577C12.5554 10.1908 12.0387 10.4016 11.5 10.4016Z"/>
</mask>
<path d="M11.5 5.60156C10.9375 5.60156 10.3877 5.76578 9.92009 6.07345C9.45244 6.38111 9.08795 6.81841 8.87272 7.33005C8.65748 7.84168 8.60117 8.40466 8.71089 8.94781C8.82062 9.49096 9.09146 9.98987 9.48916 10.3815C9.88687 10.773 10.3936 11.0397 10.9452 11.1478C11.4968 11.2558 12.0686 11.2003 12.5882 10.9884C13.1079 10.7765 13.552 10.4176 13.8645 9.95715C14.1769 9.49669 14.3437 8.95534 14.3437 8.40156C14.3437 7.65895 14.0441 6.94676 13.5108 6.42166C12.9775 5.89656 12.2542 5.60156 11.5 5.60156ZM11.5 10.4016C11.0982 10.4016 10.7055 10.2843 10.3715 10.0645C10.0375 9.84473 9.77711 9.53237 9.62337 9.16692C9.46963 8.80147 9.4294 8.39934 9.50778 8.01138C9.58615 7.62342 9.77961 7.26705 10.0637 6.98735C10.3478 6.70764 10.7097 6.51716 11.1037 6.43999C11.4977 6.36282 11.9061 6.40243 12.2773 6.5538C12.6485 6.70518 12.9657 6.96152 13.1889 7.29042C13.4121 7.61932 13.5312 8.006 13.5312 8.40156C13.5312 8.93199 13.3172 9.4407 12.9363 9.81577C12.5554 10.1908 12.0387 10.4016 11.5 10.4016Z" fill="#3276FA"/>
<path d="M11.5 5.60156V4.60156V5.60156ZM13.5312 8.40156H14.5312H13.5312ZM11.5 4.60156C10.7432 4.60156 10.0021 4.82245 9.37047 5.23803L10.4697 6.90886C10.7733 6.7091 11.1319 6.60156 11.5 6.60156V4.60156ZM9.37047 5.23803C8.73863 5.65372 8.2438 6.24618 7.95096 6.94228L9.79447 7.71781C9.93211 7.39065 10.1663 7.10851 10.4697 6.90886L9.37047 5.23803ZM7.95096 6.94228C7.65805 7.63855 7.58116 8.40562 7.73069 9.14583L9.69109 8.74979C9.62118 8.40371 9.65691 8.04481 9.79447 7.71781L7.95096 6.94228ZM7.73069 9.14583C7.88021 9.88594 8.24886 10.5636 8.78756 11.094L10.1908 9.66889C9.93405 9.41612 9.76103 9.09597 9.69109 8.74979L7.73069 9.14583ZM8.78756 11.094C9.32608 11.6243 10.0103 11.9837 10.753 12.1291L11.1374 10.1664C10.7768 10.0958 10.4476 9.92181 10.1908 9.66889L8.78756 11.094ZM10.753 12.1291C11.4956 12.2745 12.2654 12.2 12.9659 11.9144L12.2106 10.0625C11.8718 10.2006 11.4981 10.237 11.1374 10.1664L10.753 12.1291ZM12.9659 11.9144C13.6664 11.6286 14.2677 11.1438 14.6919 10.5187L13.037 9.39562C12.8363 9.69145 12.5493 9.92434 12.2106 10.0625L12.9659 11.9144ZM14.6919 10.5187C15.1162 9.8934 15.3437 9.15661 15.3437 8.40156H13.3437C13.3437 8.75408 13.2376 9.09999 13.037 9.39562L14.6919 10.5187ZM15.3437 8.40156C15.3437 7.38869 14.9349 6.4205 14.2124 5.7091L12.8092 7.13423C13.1533 7.47303 13.3437 7.92921 13.3437 8.40156H15.3437ZM14.2124 5.7091C13.4904 4.99821 12.5144 4.60156 11.5 4.60156V6.60156C11.9939 6.60156 12.4646 6.79491 12.8092 7.13423L14.2124 5.7091ZM11.5 9.40155C11.2926 9.40155 11.0911 9.34093 10.9211 9.22908L9.82187 10.8999C10.3199 11.2276 10.9039 11.4016 11.5 11.4016V9.40155ZM10.9211 9.22908C10.7513 9.11734 10.6213 8.96014 10.5451 8.77915L8.70161 9.55469C8.93295 10.1046 9.32364 10.5721 9.82187 10.8999L10.9211 9.22908ZM10.5451 8.77915C10.4691 8.59834 10.4494 8.4003 10.488 8.2094L8.52758 7.81336C8.40939 8.39838 8.47019 9.0046 8.70161 9.55469L10.5451 8.77915ZM10.488 8.2094C10.5266 8.0184 10.6222 7.84079 10.7653 7.69991L9.36208 6.27478C8.93701 6.69331 8.64574 7.22844 8.52758 7.81336L10.488 8.2094ZM10.7653 7.69991C10.9085 7.55887 11.0929 7.4611 11.2959 7.42135L10.9115 5.45863C10.3265 5.57322 9.78698 5.85642 9.36208 6.27478L10.7653 7.69991ZM11.2959 7.42135C11.499 7.38157 11.7093 7.40212 11.8997 7.47975L12.6549 5.62785C12.103 5.40273 11.4965 5.34407 10.9115 5.45863L11.2959 7.42135ZM11.8997 7.47975C12.0899 7.55733 12.25 7.68768 12.3614 7.85195L14.0164 6.72889C13.6814 6.23536 13.2071 5.85302 12.6549 5.62785L11.8997 7.47975ZM12.3614 7.85195C12.4728 8.01602 12.5312 8.20726 12.5312 8.40156H14.5312C14.5312 7.80473 14.3514 7.22261 14.0164 6.72889L12.3614 7.85195ZM12.5312 8.40156C12.5312 8.66173 12.4264 8.91443 12.2347 9.1032L13.6379 10.5283C14.208 9.96696 14.5312 9.20225 14.5312 8.40156H12.5312ZM12.2347 9.1032C12.0424 9.29249 11.7784 9.40155 11.5 9.40155V11.4016C12.299 11.4016 13.0683 11.0892 13.6379 10.5283L12.2347 9.1032Z" fill="#3276FA" mask="url(#path-2-inside-1_3709_9938)"/>
</svg>
