<svg width="24" height="20" viewBox="0 0 24 20" fill="none" xmlns="http://www.w3.org/2000/svg">
<mask id="path-1-inside-1_3709_9917" fill="white">
<path d="M12 18C7.58829 18 4 14.411 4 10.0005C4 5.58899 7.5892 2 12 2C16.4117 2 20 5.58899 20 9.99955C20 14.411 16.4108 17.9991 12 17.9991V18ZM12 2.90878C8.09052 2.90878 4.9086 6.0887 4.9086 9.99977C4.9086 13.9108 8.0887 17.0908 12 17.0908C15.9113 17.0908 19.0914 13.9108 19.0914 9.99977C19.0914 6.0887 15.9113 2.90878 12 2.90878Z"/>
</mask>
<path d="M12 18C7.58829 18 4 14.411 4 10.0005C4 5.58899 7.5892 2 12 2C16.4117 2 20 5.58899 20 9.99955C20 14.411 16.4108 17.9991 12 17.9991V18ZM12 2.90878C8.09052 2.90878 4.9086 6.0887 4.9086 9.99977C4.9086 13.9108 8.0887 17.0908 12 17.0908C15.9113 17.0908 19.0914 13.9108 19.0914 9.99977C19.0914 6.0887 15.9113 2.90878 12 2.90878Z" fill="#3276FA"/>
<path d="M12 18V19H13V18H12ZM12 17.9991V16.9991H11V17.9991H12ZM12 17C8.14059 17 5 13.8587 5 10.0005H3C3 14.9633 7.03598 19 12 19V17ZM5 10.0005C5 6.14126 8.1415 3 12 3V1C7.03689 1 3 5.03673 3 10.0005H5ZM12 3C15.8594 3 19 6.14126 19 9.99955H21C21 5.03673 16.964 1 12 1V3ZM19 9.99955C19 13.8586 15.8586 16.9991 12 16.9991V18.9991C16.963 18.9991 21 14.9634 21 9.99955H19ZM11 17.9991V18H13V17.9991H11ZM12 1.90878C7.53845 1.90878 3.9086 5.53619 3.9086 9.99977H5.9086C5.9086 6.6412 8.64258 3.90878 12 3.90878V1.90878ZM3.9086 9.99977C3.9086 14.4632 7.53647 18.0908 12 18.0908V16.0908C8.64093 16.0908 5.9086 13.3585 5.9086 9.99977H3.9086ZM12 18.0908C16.4635 18.0908 20.0914 14.4632 20.0914 9.99977H18.0914C18.0914 13.3585 15.3591 16.0908 12 16.0908V18.0908ZM20.0914 9.99977C20.0914 5.53636 16.4635 1.90878 12 1.90878V3.90878C15.3591 3.90878 18.0914 6.64103 18.0914 9.99977H20.0914Z" fill="#3276FA" mask="url(#path-1-inside-1_3709_9917)"/>
<mask id="path-3-inside-2_3709_9917" fill="white">
<path d="M12.011 12.4553C10.6641 12.4553 9.56641 11.3587 9.56641 10.0109C9.56641 8.664 10.6631 7.56641 12.011 7.56641C13.3579 7.56641 14.4556 8.66305 14.4556 10.0109C14.4556 11.3577 13.3589 12.4553 12.011 12.4553ZM12.011 8.47337C11.1636 8.47337 10.4751 9.16186 10.4751 10.0092C10.4751 10.8565 11.1636 11.545 12.011 11.545C12.8584 11.545 13.5469 10.8565 13.5469 10.0092C13.5469 9.16186 12.8584 8.47337 12.011 8.47337Z"/>
</mask>
<path d="M12.011 12.4553C10.6641 12.4553 9.56641 11.3587 9.56641 10.0109C9.56641 8.664 10.6631 7.56641 12.011 7.56641C13.3579 7.56641 14.4556 8.66305 14.4556 10.0109C14.4556 11.3577 13.3589 12.4553 12.011 12.4553ZM12.011 8.47337C11.1636 8.47337 10.4751 9.16186 10.4751 10.0092C10.4751 10.8565 11.1636 11.545 12.011 11.545C12.8584 11.545 13.5469 10.8565 13.5469 10.0092C13.5469 9.16186 12.8584 8.47337 12.011 8.47337Z" fill="#3276FA"/>
<path d="M12.011 11.4553C11.216 11.4553 10.5664 10.8061 10.5664 10.0109H8.56641C8.56641 11.9113 10.1121 13.4553 12.011 13.4553V11.4553ZM10.5664 10.0109C10.5664 9.21609 11.2156 8.56641 12.011 8.56641V6.56641C10.1106 6.56641 8.56641 8.11192 8.56641 10.0109H10.5664ZM12.011 8.56641C12.806 8.56641 13.4556 9.21564 13.4556 10.0109H15.4556C15.4556 8.11046 13.9099 6.56641 12.011 6.56641V8.56641ZM13.4556 10.0109C13.4556 10.8056 12.8064 11.4553 12.011 11.4553V13.4553C13.9114 13.4553 15.4556 11.9098 15.4556 10.0109H13.4556ZM12.011 7.47337C10.6114 7.47337 9.47508 8.60953 9.47508 10.0092H11.4751C11.4751 9.7142 11.7158 9.47337 12.011 9.47337V7.47337ZM9.47508 10.0092C9.47508 11.4089 10.6114 12.545 12.011 12.545V10.545C11.7158 10.545 11.4751 10.3042 11.4751 10.0092H9.47508ZM12.011 12.545C13.4106 12.545 14.5469 11.4089 14.5469 10.0092H12.5469C12.5469 10.3042 12.3061 10.545 12.011 10.545V12.545ZM14.5469 10.0092C14.5469 8.60953 13.4106 7.47337 12.011 7.47337V9.47337C12.3061 9.47337 12.5469 9.7142 12.5469 10.0092H14.5469Z" fill="#3276FA" mask="url(#path-3-inside-2_3709_9917)"/>
</svg>
