<svg width="18" height="18" viewBox="0 0 18 18" fill="none" xmlns="http://www.w3.org/2000/svg">
<path d="M4.36112 14.218L3.62476 14.1473C2.31832 14.0245 1.27317 13.042 1.14252 11.814L1.0673 11.1218C1.05938 11.0325 1.03167 10.9432 1 10.8613H1.07126V6.82358L1.13856 6.18722C1.26921 4.95916 2.31436 3.97672 3.62081 3.85391L4.35716 3.7832" stroke="#3276FA"/>
<path d="M13.6389 14.218L14.3752 14.1473C15.6817 14.0245 16.7268 13.042 16.8575 11.814L16.9327 11.1218C16.9406 11.0325 16.9683 10.9432 17 10.8613H16.9287V6.82358L16.8614 6.18722C16.7308 4.95916 15.6856 3.97672 14.3792 3.85391L13.6428 3.7832" stroke="#3276FA"/>
<path d="M5.30273 1C5.30273 1 6.64718 2.3913 8.99997 2.3913C11.3528 2.3913 12.6972 1 12.6972 1" stroke="#3276FA"/>
<path d="M5.30273 17C5.30273 17 6.64718 15.6087 8.99997 15.6087C11.3528 15.6087 12.6972 17 12.6972 17" stroke="#3276FA"/>
<line x1="9.16211" y1="2.39063" x2="9.16211" y2="15.608" stroke="#3276FA"/>
</svg>
