<svg width="24" height="20" viewBox="0 0 24 20" fill="none" xmlns="http://www.w3.org/2000/svg">
<path fill-rule="evenodd" clip-rule="evenodd" d="M16.3363 12.1544C16.3422 12.1425 16.349 12.1313 16.3566 12.1206L19.277 7.25746L19.2774 7.25766C19.4631 6.9476 19.4736 6.52215 19.1297 6.31544C18.8599 6.15331 18.6767 6.02983 18.3846 6.13299C18.21 6.19473 18.0405 6.32826 17.9334 6.51248L14.554 12.14L14.6441 13.4814L15.897 12.8857L16.3363 12.1544ZM7.60589 14.2076C7.21691 14.2076 7.21691 13.6396 7.60589 13.6396H13.0572C13.4462 13.6396 13.4462 14.2076 13.0572 14.2076H7.60589ZM7.60589 11.7901C7.21691 11.7901 7.21691 11.222 7.60589 11.222H13.0572C13.4462 11.222 13.4462 11.7901 13.0572 11.7901H7.60589ZM7.60589 9.37228C7.21691 9.37228 7.21691 8.80423 7.60589 8.80423H13.0572C13.4462 8.80423 13.4462 9.37228 13.0572 9.37228H7.60589ZM16.8972 12.3536V16.3866C16.8972 16.8294 16.7082 17.2327 16.4038 17.5256L16.4044 17.5262C16.1003 17.8185 15.6808 18 15.219 18H5.67821C4.75622 18 4 17.2728 4 16.3866V4.95881L4.0915 4.75329L6.86403 2.08797L7.07781 2H15.219C16.1442 2 16.8972 2.72881 16.8972 3.61343V7.10499C17.2628 6.49611 17.5391 5.82786 18.1817 5.60083C19.094 5.27834 20.5486 6.24068 19.7866 7.54149L19.7871 7.54169L16.8972 12.3536ZM16.3063 8.08883L14.0034 11.9236C13.9722 11.9719 13.9558 12.0297 13.9597 12.0907L14.084 13.9416C14.0967 14.1398 14.3181 14.2684 14.5085 14.1779L16.3061 13.3112V16.3866C16.3061 16.7008 16.1832 16.9158 15.9871 17.1252L15.9865 17.1246C15.7893 17.3142 15.5175 17.4319 15.2188 17.4319H5.67821C5.07935 17.4319 4.59086 16.9625 4.59086 16.3866V5.24284H7.07781C7.24091 5.24284 7.37324 5.11562 7.37324 4.95881V2.56786H15.219C15.8152 2.56786 16.3063 3.03611 16.3063 3.61324V8.08883ZM5.00857 4.67479H6.78238V2.96944L5.00857 4.67479Z" fill="#3276FA" stroke="#3276FA" stroke-width="0.2"/>
</svg>
