<?xml version="1.0" encoding="UTF-8"?><svg id="Layer_1" xmlns="http://www.w3.org/2000/svg" viewBox="0 0 194.13 189.91"><defs><style>.cls-1{fill:none;stroke:#212121;stroke-linecap:round;stroke-miterlimit:10;stroke-width:5.71px;}</style></defs><path class="cls-1" d="M167.86,127.4l-21.47,24.79c-.29.33-.81.33-1.09,0l-12.6-14.78"/><path class="cls-1" d="M150.61,186.97c-.25.11-.54.11-.79,0-11.34-4.96-20.62-12.49-28.26-22.9-8-10.91-12.41-24.63-12.41-38.66v-7.79c0-.32.19-.6.47-.73,8.38-3.82,15.64-9.86,20.92-17.45.11-.16.29-.25.48-.25h38.37c.19,0,.37.09.48.25,5.28,7.59,12.54,13.63,20.92,17.45.29.13.47.42.47.73v7.79c0,14.02-4.41,27.75-12.41,38.66-7.63,10.4-16.92,17.94-28.26,22.9Z"/><path class="cls-1" d="M72.41,100.62c-.11,6.59-1.66,12.44-4.77,17.47-.88,1.42-2.29,2.45-3.9,2.91l-38.48,10.86c-13.26,3.74-22.4,15.76-22.4,29.43v20.37c0,1.5,1.23,2.72,2.74,2.72h118.17"/><line class="cls-1" x1="38.88" y1="184.37" x2="38.88" y2="162.6"/><polyline class="cls-1" points="100.22 146.01 90.67 161.01 65.62 121.66"/><line class="cls-1" x1="90.67" y1="161.01" x2="90.67" y2="182.36"/><path class="cls-1" d="M130.68,34.4c-1.73-13.43-9.75-31.55-40.39-31.55s-38.44,17.45-40.45,30.79"/><path class="cls-1" d="M68.01,42.94c-4.71,3.87-10.39,6.32-17.65,6.32-3.8.05-6.9,2.73-7.65,6.22-.26,1.23-.12,2.52.23,3.74l2.42,8.39c.73,2.54,2.71,4.46,5.16,5.19h0c2,.58,3.63,2.03,4.4,3.95,6.73,16.77,20.04,29.45,35.36,29.45s28.42-12.49,35.21-29.07c.86-2.11,2.62-3.73,4.8-4.41h0c2.34-.79,4.21-2.67,4.92-5.12l2.42-8.39c.35-1.21.5-2.5.23-3.74-.75-3.49-3.85-6.17-7.65-6.22-19.16,0-37.86-3.98-51.22-19.89"/></svg>