<svg width="24" height="25" viewBox="0 0 24 25" fill="none" xmlns="http://www.w3.org/2000/svg">
<path d="M20 17.564C20 17.852 19.9359 18.148 19.7997 18.436C19.6635 18.724 19.4872 18.996 19.2549 19.252C18.8623 19.684 18.4296 19.996 17.9409 20.196C17.4602 20.396 16.9394 20.5 16.3786 20.5C15.5613 20.5 14.688 20.308 13.7666 19.916C12.8453 19.524 11.9239 18.996 11.0105 18.332C10.0891 17.66 9.21582 16.916 8.38257 16.092C7.55734 15.26 6.81222 14.388 6.14722 13.476C5.49024 12.564 4.96144 11.652 4.57687 10.748C4.19229 9.836 4 8.964 4 8.132C4 7.588 4.09614 7.068 4.28843 6.588C4.48072 6.1 4.78518 5.652 5.20981 5.252C5.72258 4.748 6.28343 4.5 6.87631 4.5C7.10065 4.5 7.32499 4.548 7.52529 4.644C7.7336 4.74 7.91788 4.884 8.06209 5.092L9.92088 7.708C10.0651 7.908 10.1693 8.092 10.2414 8.268C10.3135 8.436 10.3535 8.604 10.3535 8.756C10.3535 8.948 10.2974 9.14 10.1853 9.324C10.0811 9.508 9.92889 9.7 9.7366 9.892L9.12769 10.524C9.03956 10.612 8.9995 10.716 8.9995 10.844C8.9995 10.908 9.00751 10.964 9.02354 11.028C9.04757 11.092 9.07161 11.14 9.08763 11.188C9.23185 11.452 9.48022 11.796 9.83275 12.212C10.1933 12.628 10.5779 13.052 10.9945 13.476C11.4271 13.9 11.8438 14.292 12.2684 14.652C12.685 15.004 13.0295 15.244 13.302 15.388C13.342 15.404 13.3901 15.428 13.4462 15.452C13.5103 15.476 13.5744 15.484 13.6465 15.484C13.7827 15.484 13.8868 15.436 13.975 15.348L14.5839 14.748C14.7842 14.548 14.9765 14.396 15.1607 14.3C15.345 14.188 15.5293 14.132 15.7296 14.132C15.8818 14.132 16.0421 14.164 16.2183 14.236C16.3946 14.308 16.5789 14.412 16.7792 14.548L19.4311 16.428C19.6395 16.572 19.7837 16.74 19.8718 16.94C19.9519 17.14 20 17.34 20 17.564Z" stroke="#222222" stroke-width="1.2" stroke-miterlimit="10"/>
</svg>
