<svg width="25" height="24" viewBox="0 0 25 24" fill="none" xmlns="http://www.w3.org/2000/svg">
<path d="M10.5 6L10.4998 5.0004C10.4996 3.89567 11.3951 3 12.4998 3V3C13.6042 3 14.4996 3.89519 14.4998 4.9996L14.5 6M14.4994 18.5H17.9333C19.5267 18.5 20.3833 16.6282 19.3418 15.4224L18.6296 14.5978C17.7486 13.5777 17.3256 12.2404 17.4598 10.8992V10.8992C17.749 8.00848 15.479 5.5 12.5738 5.5H12.4264C9.52099 5.5 7.2507 8.00849 7.53964 10.8995V10.8995C7.67366 12.2405 7.2507 13.5777 6.36986 14.5977L5.65791 15.4221C4.61645 16.6282 5.4732 18.5 7.06666 18.5H10.4994M14.4994 18.5V19C14.4994 20.1046 13.604 21 12.4994 21V21C11.3948 21 10.4994 20.1046 10.4994 19V18.5M14.4994 18.5H10.4994" stroke="#222222" stroke-linejoin="round"/>
<path d="M18.1654 4.9998C19.4965 6.05083 20.2558 7.52626 20.4029 9.02225" stroke="#222222" stroke-linecap="round" stroke-linejoin="round"/>
<path d="M6.83464 4.9998C5.50354 6.05083 4.74422 7.52626 4.5971 9.02225" stroke="#222222" stroke-linecap="round" stroke-linejoin="round"/>
</svg>
