<?xml version="1.0" encoding="utf-8"?>
            <!-- Generator: Adobe Illustrator 18.0.0, SVG Export Plug-In . SVG Version: 6.00 Build 0)  -->
            <!DOCTYPE svg PUBLIC "-//W3C//DTD SVG 1.1//EN" "http://www.w3.org/Graphics/SVG/1.1/DTD/svg11.dtd">
            <svg version="1.1" id="Layer_1" xmlns="http://www.w3.org/2000/svg" xmlns:xlink="http://www.w3.org/1999/xlink" x="0px" y="0px" viewBox="0 82.4 583.7 567" enable-background="new 0 82.4 583.7 567" xml:space="preserve">
                <g>
                    <path
                        fill="#FFFFFF"
                        d="M0,334.9c10.2-30,34.8-31.4,61.6-29.3c0.6-6.5,1.1-11.8,1.6-17.2c3.9-39.4,33.1-66.8,72.6-67.1
                    c40.7-0.3,81.4-0.1,122.1-0.1c4.6,0,9.2,0,14.1,0c1.2-14.8,3.7-26.5-12.5-35.6c-21.6-12.2-29-40.7-21-64.6
                    c7.8-23.4,28.7-38.5,53.4-38.6c26.3-0.1,47.3,14.9,55.5,39.5c7.7,23.2,0.2,51.3-21.1,63.4c-15.7,8.9-15.5,20-12.8,35.3
                    c4.2,0.2,8.7,0.5,13.2,0.6c38.1,0.1,76.3,0,114.4,0c48.4,0.1,76.3,26.2,79.8,74.9c0.2,2.5,0.4,5,0.7,9.3c26-1.4,51.9-1.4,61.9,29.5
                    v102.9c-9.9,30.9-35.6,31.2-61.4,29.6c-0.5,3.5-0.8,5.1-1,6.8c-3.9,51.2-31.7,76.8-83.4,76.8c-55.2,0-110.4-0.2-165.7,0.2
                    c-5.4,0-12,1.9-16,5.3c-31.5,26.4-62.3,53.5-93.7,80.1c-7.1,6-13.3,17-24.9,11.1c-11.4-5.9-6.2-17.4-5.7-26.7
                    c1.2-23,3.1-45.9,4.8-69.2c-50.4-6.2-74.2-35.1-74.9-83.2c-33.5-4-54.2-14.3-61.9-30.8L0,334.9L0,334.9z M157,609.5
                    c29.6-25.5,56.9-48.2,83.2-71.9c9-8.1,18-11.2,29.9-11.1c57.4,0.5,114.8,0.4,172.1,0.2c34.7-0.1,54.1-19.8,54.1-54.1
                    c0-57.8,0-115.6,0-173.5c0-34.4-19.6-54-54.2-54c-100.2-0.1-200.4-0.1-300.6,0c-34.6,0-54.1,19.4-54.2,54
                    c-0.1,57.4-0.1,114.8,0,172.2c0.1,36.2,18.8,55,55.4,55.5c17,0.3,20.4,3.9,19.1,20.7C160.5,567,158.8,586.6,157,609.5L157,609.5z"
                    />
                    <path
                        fill="#FFFFFF"
                        d="M349.1,351.9c-0.1-24.4,19.1-44.4,43.2-45c24.1-0.6,45,20.2,44.9,44.8c-0.1,24.1-20,44.1-44.1,44.2
                    C369.1,396.1,349.3,376.2,349.1,351.9L349.1,351.9z"
                    />
                    <path
                        fill="#FFFFFF"
                        d="M234.6,352.4c-0.4,24.4-20.4,43.9-44.5,43.5c-24.1-0.4-43.8-20.6-43.6-44.7c0.2-24.5,21.2-45,45.5-44.3
                    C216.1,307.7,235.1,327.9,234.6,352.4L234.6,352.4z"
                    />
                    <path
                        fill="#FFFFFF"
                        d="M297.7,480.7c-31.7-0.1-53-9-72.5-23.1c-6.2-4.5-11.3-10.7-5.3-16.7c3.6-3.7,11.6-5.6,18.3-3.5
                    c1.5,0.5,3.4,2.3,5.2,3.5c33.7,22.7,62.5,22.9,96.5,1c3.2-2.1,6.7-5.7,9.8-5.4c2.1,0.2,4.2,0.7,6.2,1.4c6.8,2.2,10.2,10.2,6.6,16.3
                    c-0.5,0.9-1.2,1.7-1.9,2.3C339.9,471.7,316.7,480.9,297.7,480.7L297.7,480.7z"
                    />
                </g>
            </svg>  