<svg width="21" height="20" viewBox="0 0 21 20" fill="none" xmlns="http://www.w3.org/2000/svg">
<path d="M3.83341 10.0003C3.83341 11.7684 4.53579 13.4641 5.78604 14.7144C7.03628 15.9646 8.73197 16.667 10.5001 16.667M3.83341 10.0003C3.83341 8.23222 4.53579 6.53652 5.78604 5.28628C7.03628 4.03604 8.73197 3.33366 10.5001 3.33366M3.83341 10.0003H2.16675M10.5001 16.667C12.2682 16.667 13.9639 15.9646 15.2141 14.7144C16.4644 13.4641 17.1667 11.7684 17.1667 10.0003M10.5001 16.667V18.3337M17.1667 10.0003C17.1667 8.23222 16.4644 6.53652 15.2141 5.28628C13.9639 4.03604 12.2682 3.33366 10.5001 3.33366M17.1667 10.0003H18.8334M10.5001 3.33366V1.66699M8.00008 10.0003C8.00008 10.6634 8.26347 11.2993 8.73231 11.7681C9.20115 12.2369 9.83704 12.5003 10.5001 12.5003C11.1631 12.5003 11.799 12.2369 12.2678 11.7681C12.7367 11.2993 13.0001 10.6634 13.0001 10.0003C13.0001 9.33728 12.7367 8.7014 12.2678 8.23256C11.799 7.76372 11.1631 7.50033 10.5001 7.50033C9.83704 7.50033 9.20115 7.76372 8.73231 8.23256C8.26347 8.7014 8.00008 9.33728 8.00008 10.0003Z" stroke="#222222" stroke-width="1.2" stroke-linecap="round" stroke-linejoin="round"/>
</svg>
