<?xml version="1.0" encoding="UTF-8"?><svg id="Layer_1" xmlns="http://www.w3.org/2000/svg" viewBox="0 0 196.83 166.01"><defs><style>.cls-1{fill:none;stroke:#121110;stroke-linecap:round;stroke-miterlimit:10;stroke-width:4.83px;}</style></defs><path class="cls-1" d="M169.41,142.17c-16.3,14.23-41.48,13.02-56.23-2.71-14.75-15.73-13.5-40.01,2.81-54.25,16.3-14.23,41.48-13.02,56.23,2.71,14.75,15.73,13.5,40.01-2.81,54.25Z"/><path class="cls-1" d="M163.32,146.55l12.27,13.5c4.1,4.51,11.29,4.74,15.68.5h0c4.39-4.24,4.16-11.18-.52-15.13l-13.99-11.83"/><path class="cls-1" d="M53.12,73.98h-18.11c-.35,0-.63.27-.63.61v70.52c0,.34.28.61.63.61h18.11"/><path class="cls-1" d="M20.2,109.34H3.04c-.35,0-.63.27-.63.61v35.17c0,.34.28.61.63.61h17.16"/><path class="cls-1" d="M102.47,75.35V3.02c0-.34.28-.61.63-.61h34.31c.35,0,.63.27.63.61v56.65"/><path class="cls-1" d="M88.29,38.43h-20.35c-.35,0-.63.27-.63.61v105.95c0,.34.28.61.63.61h31.39"/><path class="cls-1" d="M142.7,92.61c12.07,0,21.86,9.44,21.86,21.09"/></svg>