<svg width="20" height="20" viewBox="0 0 20 20" fill="none" xmlns="http://www.w3.org/2000/svg">
<path d="M17.5 8.33366V6.66699C17.5 6.26502 17.4051 5.8852 17.2366 5.54871C16.8261 4.72942 15.9787 4.16699 15 4.16699H5C4.02126 4.16699 3.17388 4.72943 2.76344 5.54873C2.59487 5.88521 2.5 6.26502 2.5 6.66699V8.33366M17.5 8.33366V13.3337C17.5 14.7144 16.3807 15.8337 15 15.8337H5C3.61929 15.8337 2.5 14.7144 2.5 13.3337V8.33366M17.5 8.33366L11.4907 11.3383C10.5523 11.8075 9.44771 11.8075 8.50929 11.3383L2.5 8.33366" stroke="#222222" stroke-linecap="round" stroke-linejoin="round"/>
</svg>
