<?xml version="1.0" encoding="UTF-8"?><svg id="Layer_1" xmlns="http://www.w3.org/2000/svg" viewBox="0 0 260 200.81"><defs><style>.cls-1{fill:#fff;}.cls-2{fill:none;stroke:#171717;stroke-linecap:round;stroke-miterlimit:10;stroke-width:5.99px;}.cls-3{fill:#212121;}</style></defs><path class="cls-2" d="M187.29,68.14c0-4.5-3.63-8.14-8.11-8.14H11.11c-4.48,0-8.11,3.65-8.11,8.14v21.61c0,.35.19.67.49.84l90.57,51.86c.67.39,1.5.39,2.18,0l90.57-51.86c.3-.17.49-.49.49-.84v-21.61Z"/><path class="cls-2" d="M187.29,109.01v80.66c0,4.5-3.63,8.14-8.11,8.14H11.11c-4.48,0-8.11-3.64-8.11-8.14v-80.66"/><line class="cls-2" x1="18.21" y1="170.99" x2="56.19" y2="142.03"/><line class="cls-2" x1="172.08" y1="170.99" x2="134.1" y2="142.03"/><circle class="cls-3" cx="149" cy="45" r="45"/><path class="cls-1" d="M131.86,61.1l4.89-6.69c3.03,2.67,7.01,4.62,11.15,4.62,4.96,0,8.55-1.94,8.55-5.44,0-4.02-3.1-6.5-13.78-6.5v-7.5c8.95,0,12.3-2.5,12.3-6.13,0-3.2-2.62-5.02-6.76-5.02-3.59,0-6.57,1.48-9.69,3.98l-5.35-6.45c4.44-3.62,9.62-5.86,15.52-5.86,9.99,0,16.91,4.51,16.91,12.55,0,4.71-3.27,8.09-8.75,10.17v.29c5.76,1.5,10.23,5.22,10.23,11.15,0,8.5-8.48,13.31-18.14,13.31-7.82,0-13.54-2.63-17.08-6.48Z"/></svg>