<svg width="31" height="30" viewBox="0 0 31 30" fill="none" xmlns="http://www.w3.org/2000/svg">
<g clip-path="url(#clip0_124_8075)">
<path d="M30.5 15.0913C30.5 6.80756 23.7838 0.0913086 15.5 0.0913086C7.21625 0.0913086 0.5 6.80756 0.5 15.0913C0.5 22.5788 5.985 28.7838 13.1562 29.9088V19.4276H9.3475V15.0901H13.1562V11.7876C13.1562 8.02881 15.3962 5.95131 18.8225 5.95131C20.4625 5.95131 22.18 6.24506 22.18 6.24506V9.93631H20.2875C18.4237 9.93631 17.8425 11.0926 17.8425 12.2788V15.0913H22.0025L21.3375 19.4288H17.8425V29.9101C25.015 28.7838 30.5 22.5776 30.5 15.0913Z" fill="#1877F2"/>
</g>
<defs>
<clipPath id="clip0_124_8075">
<rect width="30" height="30" fill="white" transform="translate(0.5)"/>
</clipPath>
</defs>
</svg>
