<?xml version="1.0" encoding="UTF-8"?><svg id="Layer_1" xmlns="http://www.w3.org/2000/svg" viewBox="0 0 188.34 185.01"><defs><style>.cls-1{fill:none;stroke:#212121;stroke-linecap:round;stroke-miterlimit:10;stroke-width:5.34px;}</style></defs><path class="cls-1" d="M74.83,99.44c-.11,6.53-1.72,12.31-4.95,17.29-.91,1.41-2.37,2.43-4.05,2.88l-39.92,10.75c-13.75,3.7-23.24,15.59-23.24,29.13v21.57c0,.71.61,1.29,1.36,1.29h179.5c.75,0,1.36-.58,1.36-1.29v-21.57c0-9.71-4.88-18.57-12.72-24.18"/><polyline class="cls-1" points="110.74 133.8 93.78 159.21 67.78 120.27"/><line class="cls-1" x1="93.78" y1="159.21" x2="93.78" y2="180.35"/><path class="cls-1" d="M134.63,30.21c-2.83-12.69-12.32-27.54-41.25-27.54-25.85,0-36.24,11.86-40.23,23.44-1.2,3.47-1.73,7.12-1.73,10.77v2.22"/><path class="cls-1" d="M70.27,42.34c-4.88,3.83-10.78,6.26-18.31,6.26-3.94.05-7.16,2.71-7.94,6.16-.27,1.22-.12,2.5.24,3.7l2.51,8.3c.76,2.51,2.81,4.42,5.36,5.14h0c2.08.57,3.77,2.01,4.57,3.91,6.69,15.89,19.62,28.07,34.65,29.08"/><path class="cls-1" d="M105.91,39.43h73.99c3.19,0,5.77,2.59,5.77,5.77v48.12c0,21.67-17.59,39.26-39.26,39.26h-7.01c-21.67,0-39.26-17.59-39.26-39.26v-48.12c0-3.19,2.59-5.77,5.77-5.77Z"/><path class="cls-1" d="M162.47,99.55c-3.47,6.93-10.93,11.73-19.57,11.73s-16.1-4.8-19.57-11.73"/><path class="cls-1" d="M117.46,75.49c0-4.28,3.67-7.76,8.19-7.76s8.19,3.47,8.19,7.76"/><path class="cls-1" d="M151.96,75.49c0-4.28,3.67-7.76,8.19-7.76s8.19,3.47,8.19,7.76"/><path class="cls-1" d="M90.15,42.67c-6.24-2.32-11.67-6.18-15.75-11.09"/></svg>