<?xml version="1.0" encoding="UTF-8"?>
<svg id="Layer_1" xmlns="http://www.w3.org/2000/svg" viewBox="0 0 627 608">
  <defs>
    <style>
      .cls-1 {
        fill: #db164a;
      }

      .cls-2 {
        fill: #212121;
      }

      .cls-3 {
        fill: none;
        stroke: #212121;
        stroke-linecap: round;
        stroke-linejoin: round;
        stroke-width: 20px;
      }
    </style>
  </defs>
  <path class="cls-3" d="M369.68,189.99v-76.97c0-26.06-19.95-47.18-44.56-47.18H78.97c-24.61,0-44.56,21.13-44.56,47.18v180.87c0,26.06,19.95,47.18,44.56,47.18h32.89v54.23c0,8.28,9.4,12.49,15.01,6.72l59.26-60.95h36.36"/>
  <path class="cls-2" d="M231.88,238.48c2.73,1.96,5.71,3.86,8.95,5.71,3.24,1.85,5.38,3.32,6.43,4.41,1.05,1.09,1.58,2.64,1.58,4.64,0,1.42-.62,2.84-1.86,4.27-1.24,1.42-2.74,2.13-4.51,2.13-1.43,0-3.16-.49-5.2-1.47-2.04-.98-4.44-2.4-7.18-4.27-2.75-1.87-5.77-4.05-9.04-6.54-6.09,3.29-13.57,4.94-22.44,4.94-7.18,0-13.62-1.21-19.32-3.64-5.69-2.42-10.47-5.92-14.34-10.48-3.87-4.56-6.78-9.98-8.73-16.25-1.95-6.27-2.93-13.1-2.93-20.49s1.02-14.41,3.06-20.69c2.04-6.27,4.99-11.61,8.85-16.02,3.87-4.4,8.57-7.77,14.12-10.11,5.55-2.34,11.85-3.5,18.91-3.5,9.58,0,17.8,2.06,24.67,6.17,6.87,4.12,12.07,9.97,15.6,17.55,3.53,7.59,5.29,16.49,5.29,26.73,0,15.53-3.97,27.83-11.91,36.9M217.19,227.67c2.6-3.16,4.53-6.89,5.77-11.21,1.24-4.32,1.86-9.32,1.86-15.02,0-7.16-1.09-13.37-3.28-18.62-2.18-5.25-5.3-9.22-9.36-11.91-4.06-2.69-8.71-4.04-13.96-4.04-3.74,0-7.2.74-10.37,2.23-3.17,1.49-5.9,3.66-8.19,6.51-2.29,2.85-4.1,6.48-5.42,10.91-1.32,4.43-1.99,9.4-1.99,14.92,0,11.26,2.48,19.92,7.44,25.99,4.96,6.07,11.22,9.11,18.78,9.11,3.11,0,6.3-.69,9.58-2.07-1.97-1.56-4.44-3.11-7.41-4.67-2.96-1.56-4.99-2.76-6.08-3.6-1.09-.85-1.64-2.05-1.64-3.61,0-1.33.52-2.51,1.58-3.54,1.05-1.02,2.21-1.53,3.47-1.53,3.82,0,10.23,3.38,19.22,10.14"/>
  <path class="cls-3" d="M308.49,238.39h261.22c26.12,0,47.29,22.42,47.29,50.07v191.95c0,27.65-21.17,50.07-47.29,50.07h-34.9v57.56c0,8.79-9.98,13.25-15.93,7.13l-62.89-64.69h-147.5c-26.12,0-47.29-22.42-47.29-50.07v-191.94c0-27.66,21.17-50.07,47.29-50.07Z"/>
  <path class="cls-2" d="M466.6,428.81l-5.3-14.76h-45.16l-5.3,15.08c-2.07,5.88-3.84,9.86-5.3,11.91-1.47,2.06-3.86,3.09-7.2,3.09-2.83,0-5.33-1.1-7.5-3.29-2.17-2.19-3.26-4.68-3.26-7.46,0-1.6.25-3.26.76-4.97.5-1.71,1.34-4.09,2.5-7.14l28.42-76.38c.81-2.19,1.78-4.83,2.92-7.9,1.14-3.07,2.35-5.63,3.64-7.66,1.29-2.03,2.98-3.68,5.08-4.93,2.09-1.26,4.68-1.89,7.77-1.89s5.75.63,7.84,1.89c2.1,1.26,3.79,2.88,5.08,4.85,1.29,1.98,2.37,4.11,3.26,6.38.88,2.27,2.01,5.31,3.37,9.11l29.02,75.9c2.27,5.78,3.41,9.98,3.41,12.6s-1.07,5.23-3.22,7.5-4.74,3.41-7.77,3.41c-1.77,0-3.28-.34-4.55-1-1.26-.67-2.32-1.58-3.18-2.73-.86-1.15-1.78-2.91-2.77-5.29-.99-2.38-1.83-4.48-2.54-6.3M422.05,396.15h33.19l-16.75-48.54-16.44,48.54Z"/>
  <circle class="cls-1" cx="56" cy="56" r="56"/>
</svg>