<svg width="31" height="30" viewBox="0 0 31 30" fill="none" xmlns="http://www.w3.org/2000/svg">
<path d="M30.1809 15.3375C30.1809 14.35 30.0934 13.4125 29.9434 12.5H15.8184V18.1375H23.9059C23.5434 19.9875 22.4809 21.55 20.9059 22.6125V26.3625H25.7309C28.5559 23.75 30.1809 19.9 30.1809 15.3375Z" fill="#4285F4"/>
<path d="M15.8182 29.9998C19.8682 29.9998 23.2557 28.6498 25.7307 26.3623L20.9057 22.6123C19.5557 23.5123 17.8432 24.0623 15.8182 24.0623C11.9057 24.0623 8.59317 21.4248 7.40567 17.8623H2.43066V21.7248C4.89316 26.6248 9.95567 29.9998 15.8182 29.9998Z" fill="#34A853"/>
<path d="M7.40586 17.8624C7.09336 16.9624 6.93086 15.9999 6.93086 14.9999C6.93086 13.9999 7.10586 13.0374 7.40586 12.1374V8.2749H2.43086C1.40586 10.2999 0.818359 12.5749 0.818359 14.9999C0.818359 17.4249 1.40586 19.6999 2.43086 21.7249L7.40586 17.8624Z" fill="#FBBC05"/>
<path d="M15.8182 5.9375C18.0307 5.9375 20.0057 6.7 21.5682 8.1875L25.8432 3.9125C23.2557 1.4875 19.8682 0 15.8182 0C9.95567 0 4.89316 3.375 2.43066 8.275L7.40567 12.1375C8.59317 8.575 11.9057 5.9375 15.8182 5.9375Z" fill="#EA4335"/>
</svg>
