
<svg width="20" height="20" viewBox="0 0 20 20" fill="none" xmlns="http://www.w3.org/2000/svg">
<g clip-path="url(#clip0_11_2)">
<path d="M9.04898 2.927C9.34898 2.006 10.652 2.006 10.951 2.927L12.469 7.601C12.5344 7.80149 12.6614 7.97618 12.8321 8.1001C13.0027 8.22403 13.2081 8.29085 13.419 8.291H18.324C19.293 8.291 19.695 9.531 18.912 10.101L14.942 12.985C14.771 13.109 14.6437 13.284 14.5783 13.4849C14.5129 13.6857 14.5128 13.9021 14.578 14.103L16.096 18.777C16.396 19.698 15.341 20.465 14.556 19.895L9.99998 13.856L6.02998 16.74C5.24598 17.31 4.19098 16.543 4.48998 15.622L6.00798 10.948C6.07316 10.7471 6.07304 10.5307 6.00765 10.3299C5.94226 10.129 5.81495 9.95403 5.64398 9.83L1.67498 9.101C0.891981 8.531 1.29498 7.291 2.26298 7.291H7.16798C7.37886 7.29084 7.58429 7.22403 7.75491 7.1001C7.92553 6.97618 8.05261 6.80149 8.11798 6.601L9.63598 1.927L9.04898 2.927Z" fill="#22C55E"/>
</g>
<defs>
<clipPath id="clip0_11_2">
<rect width="20" height="20" fill="white"/>
</clipPath>
</defs>
</svg>
