<?xml version="1.0" encoding="UTF-8"?><svg id="Layer_1" xmlns="http://www.w3.org/2000/svg" viewBox="0 0 161.92 161.01"><defs><style>.cls-1{fill:none;stroke:#dc3545;stroke-linecap:round;stroke-miterlimit:10;stroke-width:5.34px;}</style></defs><path class="cls-1" d="M64.68,86.51c-.09,5.66-1.48,10.67-4.25,14.98-.78,1.22-2.04,2.1-3.48,2.49l-34.3,9.31c-11.82,3.21-19.97,13.51-19.97,25.24v17.47c0,1.29,1.09,2.33,2.44,2.33h151.7c1.35,0,2.44-1.04,2.44-2.33v-17.47c0-11.73-8.15-22.03-19.97-25.24l-34.3-9.31c-1.44-.39-2.7-1.27-3.48-2.49-2.77-4.32-4.16-9.33-4.25-14.98"/><polyline class="cls-1" points="103.3 104.56 80.96 138.3 58.62 104.56"/><line class="cls-1" x1="80.96" y1="138.3" x2="80.96" y2="156.61"/><path class="cls-1" d="M116.63,29.73c-1.55-11.52-8.69-27.06-36.01-27.06s-34.27,14.96-36.06,26.41"/><path class="cls-1" d="M60.75,37.04c-4.2,3.32-9.26,5.42-15.73,5.42-3.39.04-6.15,2.34-6.82,5.34-.24,1.06-.11,2.16.2,3.2l2.16,7.19c.65,2.18,2.42,3.83,4.6,4.45h0c1.78.49,3.24,1.74,3.93,3.39,6,14.39,17.87,25.26,31.53,25.26s25.34-10.71,31.39-24.93c.77-1.81,2.33-3.19,4.28-3.78h0c2.09-.67,3.76-2.29,4.39-4.39l2.16-7.19c.31-1.04.44-2.15.21-3.2-.67-2.99-3.43-5.29-6.82-5.34-17.08,0-33.75-3.42-45.66-17.06"/><line class="cls-1" x1="111.14" y1="139.83" x2="130.17" y2="139.83"/></svg>