<?xml version="1.0" encoding="UTF-8"?>
<svg id="Layer_1" xmlns="http://www.w3.org/2000/svg" viewBox="0 0 598 609">
  <defs>
    <style>
      .cls-1 {
        fill: none;
        stroke-linecap: round;
        stroke-linejoin: round;
        stroke-width: 22px;
      }

      .cls-1, .cls-2 {
        stroke: #212121;
      }

      .cls-3 {
        fill: #f80;
      }

      .cls-2 {
        fill: #212121;
        stroke-miterlimit: 10;
      }
    </style>
  </defs>
  <path class="cls-1" d="M354.91,224.8c0-59.04-47.14-106.89-105.3-106.89s-105.3,47.86-105.3,106.89,47.14,106.89,105.3,106.89,105.3-47.86,105.3-106.89Z"/>
  <path class="cls-1" d="M502.71,292.82h84.29v233.31c0,39.7-31.7,71.88-70.81,71.88s-70.8-32.18-70.8-71.88v-233.31"/>
  <path class="cls-1" d="M445.39,292.82l-.97-235.66H63.51v466.91c0,40.84,32.61,73.94,72.84,73.94h379.85"/>
  <line class="cls-1" x1="157.83" y1="410.56" x2="341.39" y2="410.56"/>
  <line class="cls-1" x1="157.83" y1="480.25" x2="341.39" y2="480.25"/>
  <path class="cls-2" d="M249.94,300.13h-.66c-6.87,0-12.43-4.63-12.43-10.34v-72.02c0-5.71,5.56-10.33,12.43-10.33h.66c6.86,0,12.43,4.63,12.43,10.33v72.02c0,5.71-5.57,10.34-12.43,10.34Z"/>
  <path class="cls-2" d="M267.1,167.23c0-9.8-7.83-17.75-17.49-17.75s-17.49,7.95-17.49,17.75,7.83,17.75,17.49,17.75,17.49-7.95,17.49-17.75Z"/>
  <circle class="cls-3" cx="56" cy="56" r="56"/>
</svg>