<svg width="16" height="17" viewBox="0 0 16 17" fill="none" xmlns="http://www.w3.org/2000/svg">
<path d="M14.4883 11.9206L8.88888 14.9436C8.5954 15.0756 8.27727 15.1439 7.95548 15.1439C7.63369 15.1439 7.31556 15.0756 7.02208 14.9436L1.46468 11.9206C1.31208 11.8451 1.13615 11.8319 0.973965 11.8836C0.811778 11.9353 0.675998 12.048 0.595237 12.1979C0.514476 12.3477 0.49504 12.5231 0.541025 12.687C0.587009 12.851 0.694823 12.9906 0.841749 13.0766L6.39915 16.1437C6.87065 16.3714 7.38639 16.493 7.90998 16.4997C8.45393 16.499 8.98896 16.3614 9.46581 16.0997L15.1112 13.0766C15.2581 12.9906 15.3659 12.851 15.4119 12.687C15.4579 12.5231 15.4385 12.3477 15.3577 12.1979C15.277 12.048 15.1412 11.9353 14.979 11.8836C14.8168 11.8319 14.6409 11.8451 14.4883 11.9206Z" fill="#FF5050"/>
<path d="M14.4882 8.64722L8.88881 11.6703C8.5952 11.8018 8.27712 11.8698 7.95542 11.8698C7.63371 11.8698 7.31563 11.8018 7.02202 11.6703L1.46462 8.64722C1.31325 8.57909 1.14171 8.5708 0.98447 8.624C0.827235 8.67721 0.695968 8.78797 0.61706 8.93403C0.538152 9.08008 0.517454 9.2506 0.559125 9.4113C0.600797 9.57199 0.70175 9.71095 0.841688 9.80024L6.39909 12.8703C6.87075 13.0976 7.38639 13.2191 7.90992 13.2263C8.4538 13.2251 8.98871 13.0875 9.46575 12.8263L15.1111 9.80024C15.2581 9.71426 15.3659 9.57459 15.4119 9.41066C15.4578 9.24674 15.4384 9.07136 15.3577 8.92149C15.2769 8.77161 15.1411 8.65894 14.9789 8.60722C14.8167 8.5555 14.6408 8.56877 14.4882 8.64422V8.64722Z" fill="#FF5050"/>
<path d="M15.1564 3.88881L9.64395 0.866756H9.59896C8.66606 0.377748 7.55518 0.377748 6.53229 0.866756L0.886904 3.88881C0.310966 4.19981 0 4.68982 0 5.17883C0 5.66784 0.312966 6.11184 0.843908 6.42285L6.39931 9.4899C6.87097 9.71723 7.38661 9.83873 7.91014 9.8459C8.45409 9.84519 8.98912 9.70763 9.46597 9.4459L15.1114 6.42285C15.6873 6.11184 16.0003 5.62283 16.0003 5.13383C16.0003 4.64482 15.6893 4.19981 15.1564 3.88881ZM14.4884 5.26683L8.88904 8.28988C8.59556 8.42188 8.27743 8.49013 7.95564 8.49013C7.63385 8.49013 7.31572 8.42188 7.02224 8.28988L1.50984 5.26683C1.45909 5.24859 1.41348 5.21841 1.37685 5.17883C1.41637 5.14254 1.46122 5.11252 1.50984 5.08983L7.10923 2.06678C7.41044 1.93472 7.73575 1.86655 8.06462 1.86655C8.3935 1.86655 8.71881 1.93472 9.02002 2.06678L14.4884 5.08983C14.5395 5.10794 14.5852 5.13854 14.6214 5.17883C14.5821 5.21509 14.5372 5.2448 14.4884 5.26683Z" fill="#FF5050"/>
</svg>
