<svg width="31" height="30" viewBox="0 0 31 30" fill="none" xmlns="http://www.w3.org/2000/svg">
<g clip-path="url(#clip0_124_8078)">
<path d="M26.0588 25.565H21.6162V18.6038C21.6162 16.9438 21.5825 14.8075 19.3013 14.8075C16.985 14.8075 16.6313 16.6138 16.6313 18.4813V25.565H12.1887V11.25H16.4563V13.2013H16.5138C17.11 12.0763 18.56 10.8888 20.7262 10.8888C25.2275 10.8888 26.06 13.8513 26.06 17.7075V25.565H26.0588ZM7.17125 9.29125C5.74125 9.29125 4.5925 8.13375 4.5925 6.71C4.5925 5.2875 5.7425 4.13125 7.17125 4.13125C8.59625 4.13125 9.75125 5.2875 9.75125 6.71C9.75125 8.13375 8.595 9.29125 7.17125 9.29125ZM9.39875 25.565H4.94375V11.25H9.39875V25.565ZM28.2812 0H2.71375C1.49 0 0.5 0.9675 0.5 2.16125V27.8387C0.5 29.0338 1.49 30 2.71375 30H28.2775C29.5 30 30.5 29.0338 30.5 27.8387V2.16125C30.5 0.9675 29.5 0 28.2775 0H28.2812Z" fill="#0A66C2"/>
</g>
<defs>
<clipPath id="clip0_124_8078">
<rect width="30" height="30" fill="white" transform="translate(0.5)"/>
</clipPath>
</defs>
</svg>
