<svg width="21" height="20" viewBox="0 0 21 20" fill="none" xmlns="http://www.w3.org/2000/svg">
<path d="M3.17057 0.000612238H13.6982H17.8294C18.5647 0.000612238 19.2322 0.298772 19.716 0.77938C20.1998 1.25999 20.5 1.92365 20.5 2.65344V13.3688V17.3472C20.5 18.077 20.1998 18.7406 19.716 19.2212C19.2322 19.7018 18.5641 20 17.8294 20H13.6982H7.33513H3.17057C2.4359 20 1.7678 19.7018 1.28398 19.2212C0.800154 18.7406 0.5 18.077 0.5 17.3472V6.65748V2.65283C0.5 1.92243 0.800154 1.25938 1.28398 0.778768C1.7678 0.29816 2.4359 0 3.17057 0V0.000612238ZM14.1703 0.93795V6.6581V12.9005H19.5564V2.65344C19.5564 2.18202 19.3622 1.75345 19.0485 1.44182C18.7354 1.1308 18.3034 0.93795 17.8294 0.93795H14.1703ZM14.1703 13.8378V19.0633H17.8294C18.304 19.0633 18.7354 18.8698 19.0485 18.5588C19.3616 18.2478 19.5564 17.8186 19.5564 17.3478V13.8378H14.1703ZM13.2267 19.0633V13.3695V7.12707H7.80724V19.0633H13.2267ZM13.2267 6.18912V0.93795H3.17057C2.69599 0.93795 2.26456 1.1308 1.95146 1.44182C1.63837 1.75284 1.44361 2.18202 1.44361 2.65344V6.18912H7.33513H13.2267ZM6.86364 7.12646H1.44422V17.3472C1.44422 17.8186 1.63837 18.2472 1.95208 18.5582C2.26518 18.8692 2.69723 19.0627 3.17119 19.0627H6.86364V7.12646Z" fill="#222222"/>
</svg>
