<svg width="20" height="20" viewBox="0 0 20 20" fill="none" xmlns="http://www.w3.org/2000/svg">
<path d="M10.3 2.5H9.7C6.70021 2.5 5.20032 2.5 4.14886 3.26393C3.80928 3.51065 3.51065 3.80928 3.26393 4.14886C2.5 5.20032 2.5 6.70021 2.5 9.7V10.3C2.5 13.2998 2.5 14.7997 3.26393 15.8511C3.51065 16.1907 3.80928 16.4893 4.14886 16.7361C5.20032 17.5 6.70021 17.5 9.7 17.5H10.3C13.2998 17.5 14.7997 17.5 15.8511 16.7361C16.1907 16.4893 16.4893 16.1907 16.7361 15.8511C17.5 14.7997 17.5 13.2998 17.5 10.3V9.7C17.5 6.70021 17.5 5.20032 16.7361 4.14886C16.4893 3.80928 16.1907 3.51065 15.8511 3.26393C14.7997 2.5 13.2998 2.5 10.3 2.5Z" stroke="#222222" stroke-linecap="round" stroke-linejoin="round"/>
<path d="M10.8333 13.3337C10.8333 12.8734 10.4602 12.5003 9.99999 12.5003C9.53975 12.5003 9.16666 12.8734 9.16666 13.3337C9.16666 13.7939 9.53975 14.167 9.99999 14.167C10.4602 14.167 10.8333 13.7939 10.8333 13.3337Z" fill="#222222"/>
<path d="M8.125 8.26029C8.125 7.26492 8.96447 6.45801 10 6.45801C11.0355 6.45801 11.875 7.26492 11.875 8.26029C11.875 8.86132 11.5689 9.39364 11.0984 9.72108C10.8375 9.90265 10.5242 10.0106 10.3038 10.2396C10.0334 10.5205 9.99424 10.8759 10 11.2497" stroke="#222222" stroke-linecap="round" stroke-linejoin="round"/>
</svg>
