<svg width="20" height="20" viewBox="0 0 20 20" fill="none" xmlns="http://www.w3.org/2000/svg">
<path fill-rule="evenodd" clip-rule="evenodd" d="M5.71326 2C4.21477 2 3 3.21477 3 4.71326V15.0418C3 16.5403 4.21477 17.755 5.71326 17.755H8.66427C8.94041 17.755 9.16427 17.5312 9.16427 17.255C9.16427 16.9789 8.94041 16.755 8.66427 16.755H5.71326C4.76705 16.755 4 15.988 4 15.0418V4.71326C4 3.76705 4.76705 3 5.71326 3H12.353C13.2992 3 14.0663 3.76705 14.0663 4.71326V10.2464C14.0663 10.5225 14.2901 10.7464 14.5663 10.7464C14.8424 10.7464 15.0663 10.5225 15.0663 10.2464V4.71326C15.0663 3.21477 13.8515 2 12.353 2H5.71326ZM5.71326 5.68876C5.43711 5.68876 5.21326 5.91262 5.21326 6.18876C5.21326 6.4649 5.43711 6.68876 5.71326 6.68876H11.6153C11.8914 6.68876 12.1153 6.4649 12.1153 6.18876C12.1153 5.91262 11.8914 5.68876 11.6153 5.68876H5.71326ZM5.71326 8.63977C5.43711 8.63977 5.21326 8.86363 5.21326 9.13977C5.21326 9.41591 5.43711 9.63977 5.71326 9.63977H11.6153C11.8914 9.63977 12.1153 9.41591 12.1153 9.13977C12.1153 8.86363 11.8914 8.63977 11.6153 8.63977H5.71326ZM5.71326 11.5908C5.43711 11.5908 5.21326 11.8146 5.21326 12.0908C5.21326 12.3669 5.43711 12.5908 5.71326 12.5908H9.40202C9.67816 12.5908 9.90202 12.3669 9.90202 12.0908C9.90202 11.8146 9.67816 11.5908 9.40202 11.5908H5.71326ZM13.0922 12.0908C14.722 12.0908 16.0432 13.412 16.0432 15.0418C16.0432 16.6716 14.722 17.9928 13.0922 17.9928C11.4624 17.9928 10.1412 16.6716 10.1412 15.0418C10.1412 13.412 11.4624 12.0908 13.0922 12.0908ZM14.5901 14.0973C14.8062 14.3133 14.8062 14.6637 14.5901 14.8798L13.1146 16.3553C12.8985 16.5714 12.5482 16.5714 12.3321 16.3553L11.5943 15.6175C11.3783 15.4014 11.3783 15.0511 11.5943 14.835C11.8104 14.6189 12.1608 14.6189 12.3768 14.835L12.7233 15.1815L13.8076 14.0973C14.0237 13.8812 14.374 13.8812 14.5901 14.0973Z" fill="#222222"/>
</svg>
