<svg width="49" height="48" viewBox="0 0 49 48" fill="none" xmlns="http://www.w3.org/2000/svg">
<path d="M36.4999 14.1C36.4999 13.5696 36.2892 13.0609 35.9141 12.6858C35.539 12.3107 35.0303 12.1 34.4999 12.1L18.4999 12C17.9694 12 17.4607 12.2107 17.0857 12.5858C16.7106 12.9609 16.4999 13.4696 16.4999 14C16.4999 14.5304 16.7106 15.0391 17.0857 15.4142C17.4607 15.7893 17.9694 16 18.4999 16H29.6199L13.0799 32.58C12.8924 32.7659 12.7436 32.9871 12.6421 33.2308C12.5406 33.4746 12.4883 33.736 12.4883 34C12.4883 34.264 12.5406 34.5254 12.6421 34.7692C12.7436 35.0129 12.8924 35.2341 13.0799 35.42C13.2658 35.6075 13.487 35.7562 13.7307 35.8578C13.9744 35.9593 14.2359 36.0116 14.4999 36.0116C14.7639 36.0116 15.0253 35.9593 15.269 35.8578C15.5128 35.7562 15.734 35.6075 15.9199 35.42L32.4999 18.84V30C32.4999 30.5304 32.7106 31.0391 33.0857 31.4142C33.4607 31.7893 33.9694 32 34.4999 32C35.0303 32 35.539 31.7893 35.9141 31.4142C36.2892 31.0391 36.4999 30.5304 36.4999 30V14.1Z" fill="#554AB8"/>
</svg>
