<svg width="49" height="48" viewBox="0 0 49 48" fill="none" xmlns="http://www.w3.org/2000/svg">
<path d="M33.0619 38.4423L33.0623 38.4426C33.1494 38.4977 33.2078 38.502 33.2447 38.4995C33.2908 38.4963 33.3528 38.4773 33.4176 38.4281C33.544 38.3319 33.6342 38.1602 33.5817 37.9229L33.0619 38.4423ZM33.0619 38.4423L26.3695 34.207C26.3563 34.1986 26.3429 34.1902 26.3294 34.1816C26.1058 34.04 25.8513 33.8788 25.6131 33.7608C25.3288 33.6201 24.9577 33.4822 24.5012 33.4818C24.0446 33.4814 23.6733 33.6187 23.3888 33.7588C23.1504 33.8763 22.8956 34.0371 22.6717 34.1783C22.6582 34.1868 22.6448 34.1953 22.6315 34.2037L23.4314 35.4726L22.6315 34.2037L15.9404 38.4213L15.9377 38.423C15.8506 38.4782 15.7922 38.4824 15.7553 38.4799C15.7092 38.4767 15.6472 38.4578 15.5824 38.4085C15.4559 38.3122 15.3657 38.1403 15.4185 37.9027L17.2223 29.804C17.2254 29.7898 17.2286 29.7754 17.2319 29.7609C17.2851 29.5224 17.3461 29.2491 17.3759 29.0028C17.4115 28.7086 17.4197 28.3406 17.2912 27.9359C17.1626 27.5313 16.9435 27.2355 16.7447 27.0158C16.5782 26.8319 16.3707 26.6439 16.1896 26.4798C16.1786 26.4698 16.1677 26.4599 16.1569 26.4501L10.1563 21.0097L10.1558 21.0092C10.0146 20.8814 9.96143 20.691 10.0268 20.4814C10.0586 20.3794 10.1114 20.3061 10.1612 20.2628C10.2036 20.226 10.2557 20.1989 10.339 20.1919L10.339 20.192L10.3473 20.1912L18.1617 19.4971C18.1769 19.4958 18.1922 19.4944 18.2076 19.4931C18.4629 19.4705 18.7543 19.4447 19.0081 19.3957C19.3111 19.3372 19.6793 19.2264 20.0357 18.9628C20.3921 18.6991 20.6058 18.3795 20.7504 18.1069C20.8716 17.8785 20.9815 17.6074 21.0778 17.37C21.0836 17.3556 21.0894 17.3413 21.0951 17.3272L24.1696 9.75272L24.1696 9.75273L24.1719 9.74705C24.2175 9.63344 24.2743 9.58054 24.3176 9.55224C24.3671 9.51981 24.4303 9.5 24.5 9.5C24.5697 9.5 24.6329 9.51981 24.6824 9.55224C24.7257 9.58054 24.7825 9.63344 24.8281 9.74705L24.8299 9.75164L27.9049 17.3444C27.9107 17.3585 27.9164 17.3728 27.9223 17.3871C28.0184 17.6249 28.1282 17.8963 28.2493 18.1249C28.3939 18.3978 28.6074 18.7178 28.964 18.9818L29.8566 17.7762L28.9641 18.9818C29.3207 19.2458 29.6891 19.3567 29.9923 19.4153C30.2463 19.4644 30.5379 19.4901 30.7934 19.5127C30.8088 19.5141 30.8242 19.5155 30.8393 19.5168L38.6527 20.2108L38.6527 20.2108L38.661 20.2115C38.7443 20.2184 38.7964 20.2456 38.8388 20.2824C38.8886 20.3257 38.9414 20.3989 38.9732 20.501C39.0386 20.7106 38.9854 20.901 38.8442 21.0288L38.8437 21.0293L32.8431 26.4697C32.8323 26.4795 32.8214 26.4894 32.8104 26.4993C32.6293 26.6634 32.4218 26.8514 32.2553 27.0354C32.0565 27.2551 31.8374 27.5509 31.7088 27.9555C31.5803 28.3601 31.5885 28.7281 31.6241 29.0224C31.6539 29.2687 31.7149 29.542 31.7681 29.7805C31.7714 29.795 31.7746 29.8093 31.7777 29.8235L33.5815 37.9223L33.0619 38.4423Z" stroke="#1D4FD7" stroke-width="3"/>
</svg>
