<svg width="20" height="20" viewBox="0 0 20 20" fill="none" xmlns="http://www.w3.org/2000/svg">
<path d="M11.5318 11.5306C11.3089 11.7535 11.0438 11.9342 10.7488 12.0607L6.79208 13.7564C6.44636 13.9046 6.0968 13.555 6.24497 13.2093L7.94072 9.25256C8.06715 8.95754 8.24791 8.69249 8.47081 8.46959M11.5318 11.5306C11.7547 11.3077 11.9355 11.0426 12.0619 10.7476L13.7576 6.79086C13.9058 6.44514 13.5562 6.09558 13.2105 6.24375L9.25378 7.9395C8.95876 8.06593 8.69371 8.24669 8.47081 8.46959M11.5318 11.5306L8.47081 8.46959M10.0013 18.3334C5.39893 18.3334 1.66797 14.6025 1.66797 10.0001C1.66797 5.39771 5.39893 1.66675 10.0013 1.66675C14.6037 1.66675 18.3346 5.39771 18.3346 10.0001C18.3346 14.6025 14.6037 18.3334 10.0013 18.3334Z" stroke="#222222" stroke-linejoin="round"/>
</svg>
