<svg width="25" height="25" viewBox="0 0 25 25" fill="none" xmlns="http://www.w3.org/2000/svg">
<path d="M10.6225 2.61219C11.6218 1.48803 13.3782 1.48803 14.3775 2.61219C14.9814 3.29155 15.9051 3.59169 16.793 3.39703C18.2622 3.07491 19.6832 4.10735 19.8308 5.60416C19.9201 6.50872 20.491 7.29451 21.3237 7.65889C22.7016 8.26185 23.2444 9.93237 22.484 11.2301C22.0245 12.0144 22.0245 12.9856 22.484 13.7699C23.2444 15.0676 22.7016 16.7381 21.3237 17.3411C20.491 17.7055 19.9201 18.4913 19.8308 19.3958C19.6832 20.8927 18.2622 21.9251 16.793 21.603C15.9051 21.4083 14.9814 21.7085 14.3775 22.3878C13.3782 23.512 11.6218 23.512 10.6225 22.3878C10.0186 21.7085 9.09488 21.4083 8.20702 21.603C6.73784 21.9251 5.31681 20.8927 5.16916 19.3958C5.07994 18.4913 4.50902 17.7055 3.67631 17.3411C2.29838 16.7381 1.7556 15.0676 2.51596 13.7699C2.97545 12.9856 2.97545 12.0144 2.51596 11.2301C1.7556 9.93237 2.29838 8.26185 3.67631 7.65889C4.50902 7.29451 5.07994 6.50872 5.16916 5.60416C5.31681 4.10735 6.73784 3.07491 8.20702 3.39703C9.09488 3.59169 10.0186 3.29155 10.6225 2.61219Z" fill="#549F57"/>
<path d="M7.625 13L10.3507 15.7257C10.7665 16.1415 11.4496 16.1105 11.826 15.6588L16.9583 9.5" stroke="white" stroke-width="1.5" stroke-linecap="round" stroke-linejoin="round"/>
</svg>
