<svg width="48" height="48" viewBox="0 0 48 48" fill="none" xmlns="http://www.w3.org/2000/svg">
<path d="M21.2188 2.69052C22.7695 1.19038 25.2305 1.19038 26.7812 2.69052L28.5278 4.38019C29.4145 5.23804 30.6475 5.63866 31.8692 5.46587L34.2754 5.12553C36.4117 4.82336 38.4026 6.2699 38.7754 8.395L39.1953 10.7886C39.4085 12.0038 40.1705 13.0527 41.2604 13.631L43.4071 14.7699C45.313 15.7812 46.0735 18.1217 45.126 20.0601L44.0587 22.2433C43.5169 23.3518 43.5169 24.6482 44.0587 25.7567L45.126 27.9399C46.0735 29.8783 45.313 32.2188 43.4071 33.2301L41.2604 34.369C40.1705 34.9473 39.4085 35.9962 39.1953 37.2114L38.7754 39.605C38.4026 41.7301 36.4117 43.1766 34.2754 42.8745L31.8692 42.5341C30.6475 42.3613 29.4145 42.762 28.5278 43.6198L26.7812 45.3095C25.2305 46.8096 22.7695 46.8096 21.2188 45.3095L19.4722 43.6198C18.5855 42.762 17.3525 42.3613 16.1308 42.5341L13.7246 42.8745C11.5883 43.1766 9.59735 41.7301 9.22458 39.605L8.80471 37.2114C8.59154 35.9962 7.8295 34.9473 6.73962 34.369L4.59291 33.2301C2.68701 32.2188 1.92652 29.8783 2.87405 27.9399L3.94129 25.7567C4.48313 24.6482 4.48313 23.3518 3.94129 22.2433L2.87405 20.0601C1.92652 18.1217 2.68701 15.7812 4.59291 14.7699L6.73962 13.631C7.8295 13.0527 8.59154 12.0038 8.80471 10.7886L9.22458 8.395C9.59735 6.2699 11.5883 4.82336 13.7246 5.12553L16.1308 5.46587C17.3525 5.63866 18.5855 5.23804 19.4722 4.38019L21.2188 2.69052Z" fill="#549F57"/>
<path d="M16 24L21.2257 29.2257C21.6415 29.6415 22.3246 29.6105 22.701 29.1588L32 18" stroke="white" stroke-width="3" stroke-linecap="round" stroke-linejoin="round"/>
</svg>
