<svg width="49" height="48" viewBox="0 0 49 48" fill="none" xmlns="http://www.w3.org/2000/svg">
<path d="M24.5001 26.3823L26.2118 27.4655C26.5253 27.664 26.9089 27.3706 26.8264 26.9994L26.3727 24.9624L27.8864 23.5899C28.1628 23.3396 28.0143 22.8649 27.6513 22.8347L25.6591 22.6577L24.8796 20.7329C24.7393 20.3833 24.2609 20.3833 24.1207 20.7329L23.3411 22.6534L21.3489 22.8304C20.9859 22.8606 20.8375 23.3353 21.1138 23.5856L22.6275 24.958L22.1738 26.9951C22.0913 27.3663 22.4749 27.6597 22.7884 27.4612L24.5001 26.3823Z" stroke="#1D4FD7"/>
<path d="M24.3156 14.5884C19.2294 14.5884 15.0881 18.7295 15.0881 23.8159C15.0881 28.9022 19.2293 33.0434 24.3156 33.0434C29.402 33.0434 33.5431 28.9022 33.5431 23.8159C33.5431 18.7295 29.402 14.5884 24.3156 14.5884ZM24.3156 30.9305C20.3911 30.9305 17.201 27.7405 17.201 23.8159C17.201 19.8912 20.391 16.7013 24.3156 16.7013C28.2403 16.7013 31.4303 19.8912 31.4303 23.8159C31.4303 27.7405 28.2403 30.9305 24.3156 30.9305Z" fill="#1D4FD7" stroke="#1D4FD7"/>
<path d="M43.442 22.9436H39.9177C39.3957 15.2637 33.2368 9.10468 25.5564 8.58068V5.05644C25.5564 4.47455 25.0819 4 24.5 4C23.9181 4 23.4436 4.47458 23.4436 5.05644V8.58068C15.7637 9.10478 9.60468 15.2637 9.08068 22.9436H5.55644C4.97455 22.9436 4.5 23.4181 4.5 24C4.5 24.5819 4.97458 25.0564 5.55644 25.0564H9.08068C9.60478 32.7363 15.7637 38.8953 23.4436 39.4193V42.9436C23.4436 43.5254 23.9181 44 24.5 44C25.0819 44 25.5564 43.5254 25.5564 42.9436V39.4193C33.2363 38.8952 39.3953 32.7363 39.9193 25.0564H43.4436C44.0254 25.0564 44.5 24.5819 44.5 24C44.4979 23.4181 44.0238 22.9436 43.442 22.9436ZM24.5005 37.3439C17.1423 37.3439 11.1565 31.3602 11.1565 24C11.1565 16.6419 17.1423 10.6561 24.5005 10.6561C31.8586 10.6561 37.8444 16.6419 37.8444 24C37.8444 31.3581 31.8586 37.3439 24.5005 37.3439Z" fill="#1D4FD7" stroke="#1D4FD7"/>
</svg>
