<svg width="218" height="14" viewBox="0 0 218 14" fill="none" xmlns="http://www.w3.org/2000/svg">
<path d="M4.64853 5.83831C6.35534 5.83831 8.14343 5.77873 9.85024 5.71916C10.5817 5.71916 11.2319 5.65958 11.9634 5.65958C15.052 5.54043 18.1405 5.42128 21.229 5.30214C24.9677 5.18299 28.6252 5.00426 32.3639 4.88512C37.6469 4.64682 42.9299 4.46809 48.2129 4.22979C49.432 4.17022 50.6512 4.17022 51.8703 4.11064C54.9588 3.9915 58.0474 3.87235 61.1359 3.81277C64.2244 3.69362 67.3129 3.57447 70.4014 3.5149C71.6206 3.45532 72.8397 3.39575 74.0589 3.39575C78.9355 3.2766 83.8934 3.15745 88.77 3.0383C91.7772 2.97873 94.7844 2.91916 97.873 2.80001C99.0921 2.80001 100.23 2.74043 101.449 2.74043C106.163 2.68085 110.959 2.62128 115.673 2.56171C120.387 2.50213 125.019 2.44256 129.733 2.38298C130.953 2.38298 132.172 2.38298 133.472 2.38298C136.561 2.38298 139.568 2.38298 142.656 2.38298C147.452 2.38298 152.166 2.38298 156.961 2.32341C158.505 2.32341 160.05 2.32341 161.594 2.32341C164.845 2.32341 168.096 2.32341 171.347 2.32341C171.591 2.32341 171.916 2.32341 172.16 2.32341C164.845 2.38298 157.449 2.44256 150.134 2.56171C147.045 2.62128 144.038 2.62128 140.95 2.68085C139.649 2.68085 138.268 2.68085 136.967 2.74043C132.497 2.8 128.108 2.91915 123.638 2.97873C118.517 3.09788 113.397 3.15745 108.276 3.2766C107.382 3.2766 106.57 3.33617 105.676 3.33617C102.912 3.45532 100.23 3.5149 97.4666 3.63405C91.9398 3.81277 86.4129 3.99149 80.8861 4.17022C80.0734 4.17022 79.2606 4.2298 78.4478 4.28937C75.7657 4.40852 73.0023 4.58724 70.3201 4.70639C65.4435 4.94469 60.6482 5.18298 55.7716 5.42128C54.4712 5.48086 53.0895 5.60001 51.789 5.65958C48.7005 5.83831 45.612 6.01703 42.5235 6.25533C38.6222 6.49363 34.6396 6.73193 30.7384 6.97022C25.2928 7.32767 19.766 7.68512 14.3205 8.04256C13.02 8.10214 11.7196 8.22129 10.3379 8.28086C7.98087 8.45959 5.62385 8.63831 3.26682 8.81703C3.02299 8.81703 2.77916 8.93618 2.77916 9.17448C2.77916 9.3532 3.02299 9.53193 3.26682 9.53193C4.16087 9.53193 4.97363 9.5915 5.86768 9.5915C5.7864 9.77022 5.70512 9.94895 5.70512 10.1277C5.70512 10.783 6.43662 11.3787 7.41194 11.3787C14.1579 11.0809 20.8226 10.7234 27.5686 10.4851C33.4205 10.3064 39.2724 10.0681 45.1244 9.88937C51.5452 9.65108 58.0474 9.41278 64.4682 9.23406C66.5001 9.17448 68.5321 9.1149 70.564 8.99576C71.1329 8.99576 71.7019 8.93618 72.3521 8.93618C82.7555 8.75746 93.1589 8.51916 103.562 8.34044C109.089 8.22129 114.697 8.10214 120.224 8.04256C122.256 7.98299 124.207 7.98299 126.239 7.92342C136.886 7.80427 147.533 7.68512 158.18 7.56597C162.732 7.5064 167.283 7.44682 171.835 7.38724C175.736 7.32767 179.637 7.32767 183.539 7.20852C186.79 7.14894 189.96 7.0298 193.211 6.97022C194.836 6.91065 196.462 6.91065 198.006 6.85107C201.663 6.67235 205.321 6.49362 208.978 6.3149C208.734 6.5532 208.734 6.91065 208.816 7.14895C208.897 7.44682 209.141 7.68512 209.547 7.80426C209.872 7.92341 210.36 8.04257 210.685 7.92342C211.498 7.68512 212.311 7.44682 213.042 7.20852C213.042 7.20852 213.042 7.20852 212.961 7.20852C213.042 7.20852 213.042 7.14895 213.123 7.14895C213.205 7.14895 213.286 7.08937 213.286 7.08937H213.205C213.611 6.97022 214.017 6.85108 214.505 6.67235C214.911 6.5532 215.399 6.37448 215.806 6.25533C216.293 6.0766 216.7 5.89788 217.187 5.71916C217.675 5.54043 218 5.06384 218 4.64682C218 4.40852 217.919 4.2298 217.756 3.9915C217.594 3.7532 217.187 3.45533 216.781 3.39575C216.374 3.33618 215.968 3.2766 215.562 3.2766C215.48 3.2766 215.399 3.2766 215.318 3.2766C215.074 3.2766 214.749 3.2766 214.505 3.33617C213.855 3.39575 213.286 3.45533 212.636 3.45533C212.148 3.45533 211.66 3.5149 211.091 3.5149C209.71 3.57447 208.409 3.63405 207.028 3.7532C206.703 3.7532 206.296 3.81277 205.971 3.81277C206.134 3.69362 206.215 3.57447 206.215 3.45533C206.296 3.33618 206.296 3.21703 206.296 3.09788C206.296 3.0383 206.296 2.91915 206.377 2.85958C206.377 2.74043 206.377 2.62128 206.296 2.56171C206.296 2.56171 206.377 2.56171 206.377 2.50213C206.621 2.38298 206.865 2.26383 207.028 2.02554C207.19 1.84681 207.271 1.60851 207.271 1.37022C207.271 1.13192 207.19 0.953195 207.028 0.714897C206.946 0.655323 206.865 0.536173 206.784 0.476598C206.54 0.297875 206.296 0.2383 206.052 0.178725C205.565 0.0595764 204.996 0 204.427 0C203.939 0 203.533 0 203.045 0C202.395 0 201.745 0 201.094 0C200.2 0 199.225 0 198.331 0C195.893 0 193.454 0 191.016 0C188.74 0 186.383 0 184.108 0C181.994 0 179.962 0 177.849 0C169.478 0 161.188 0.0595773 152.816 0.119152C146.558 0.178726 140.299 0.238299 134.041 0.238299C131.278 0.238299 128.433 0.297872 125.67 0.357446C119.411 0.476595 113.153 0.53617 106.895 0.655319C105.107 0.655319 103.319 0.714897 101.53 0.714897C100.474 0.714897 99.4985 0.774471 98.4419 0.774471C92.2649 0.953195 86.0878 1.13192 79.9108 1.31064C78.0414 1.37022 76.1721 1.42979 74.2214 1.48936C73.1648 1.48936 72.1082 1.54894 71.0516 1.60852C64.8746 1.84681 58.7788 2.08511 52.6018 2.32341C49.432 2.44256 46.2622 2.5617 43.0924 2.74043C37.6469 2.97873 32.2013 3.21703 26.8371 3.5149C22.123 3.7532 17.409 3.93192 12.6949 4.11064C11.9634 4.17022 11.2319 4.17022 10.4192 4.22979C9.20003 4.28937 7.98087 4.28937 6.76172 4.34894C5.70513 4.40852 4.64853 4.40852 3.51065 4.40852C3.42938 4.22979 3.10427 4.05107 2.86044 4.05107C2.12895 4.11065 1.47873 4.17022 0.747244 4.22979C0.422137 4.22979 0.0970294 4.34894 0.0157527 4.64682C-0.0655241 4.94469 0.178306 5.24256 0.503413 5.30214C0.82852 5.36171 1.07235 5.42129 1.39746 5.48086C1.72256 5.54044 1.96639 5.54043 2.2915 5.54043C3.10427 5.77873 3.83576 5.77873 4.64853 5.83831ZM194.836 3.87235C195.811 3.87235 196.868 3.87235 197.843 3.87235C197.925 4.05107 198.087 4.17022 198.25 4.28937C197.843 4.28937 197.437 4.34894 197.112 4.34894C196.38 4.34894 195.649 4.40852 194.917 4.40852C191.666 4.46809 188.497 4.58724 185.245 4.64682C183.782 4.70639 182.32 4.76596 180.857 4.76596C178.581 4.76596 176.224 4.82554 173.948 4.82554C168.665 4.88511 163.463 4.94469 158.18 5.00426C147.939 5.12341 137.78 5.24256 127.539 5.36171C120.224 5.42128 112.909 5.60001 105.594 5.77873C94.6219 6.01703 83.5683 6.19575 72.5959 6.43405C70.4014 6.49363 68.2069 6.5532 66.0125 6.67235C59.7542 6.91065 53.4959 7.08937 47.2375 7.32767C41.1418 7.56597 34.9648 7.74469 28.869 7.98299C28.3001 7.98299 27.7311 8.04256 27.1622 8.04256C28.7877 7.92341 30.4945 7.86384 32.1201 7.74469C37.8907 7.44682 43.6614 7.08937 49.432 6.7915C51.4639 6.67235 53.4959 6.5532 55.4465 6.43405C56.5031 6.37448 57.5597 6.3149 58.535 6.3149C64.5495 6.0766 70.564 5.77873 76.5785 5.54043C77.7163 5.48086 78.9355 5.42128 80.0734 5.36171C81.7802 5.30213 83.487 5.24256 85.1125 5.24256C91.2895 5.06384 97.4666 4.88511 103.644 4.70639C105.025 4.64682 106.407 4.64682 107.707 4.58724C108.033 4.58724 108.439 4.58724 108.764 4.58724C109.739 4.58724 110.715 4.58724 111.609 4.52766C117.786 4.40852 124.044 4.34894 130.221 4.22979C133.066 4.17022 135.91 4.11064 138.755 4.11064C147.939 4.05107 157.205 3.99149 166.389 3.93192C176.061 3.93192 185.489 3.93192 194.836 3.87235Z" fill="#7C9AED"/>
<path d="M16.9252 14C17.1945 14 17.4128 13.84 17.4128 13.6426C17.4128 13.4452 17.1945 13.2852 16.9252 13.2852C16.6558 13.2852 16.4375 13.4452 16.4375 13.6426C16.4375 13.84 16.6558 14 16.9252 14Z" fill="#7C9AED"/>
</svg>
