
<svg width="20" height="20" viewBox="0 0 20 20" fill="none" xmlns="http://www.w3.org/2000/svg">
<path d="M18.1008 10.6267C18.2138 9.19164 17.942 7.75245 17.3133 6.4575C16.2728 7.44616 15.0428 8.21382 13.6975 8.71417C13.8057 10.0419 13.7457 11.3781 13.5192 12.6908C15.1562 12.2785 16.7074 11.5797 18.1008 10.6267ZM12.195 12.9583C12.4612 11.6858 12.5542 10.3832 12.4717 9.08583C11.6783 9.275 10.8508 9.375 9.99999 9.375C9.14916 9.375 8.32166 9.275 7.52833 9.08583C7.4477 10.3832 7.54074 11.6856 7.80499 12.9583C9.25983 13.1813 10.7402 13.1813 12.195 12.9583ZM8.14333 14.2658C9.3768 14.4118 10.6232 14.4118 11.8567 14.2658C11.4327 15.6305 10.8069 16.924 9.99999 18.1033C9.19306 16.924 8.56723 15.6305 8.14333 14.2658ZM6.48083 12.6917C6.25303 11.3785 6.1931 10.0416 6.30249 8.71333C4.9569 8.2131 3.72659 7.44544 2.68583 6.45667C2.05734 7.75195 1.78578 9.19144 1.89916 10.6267C3.29261 11.5797 4.84376 12.2794 6.48083 12.6917ZM17.7967 12.2933C17.3759 13.7191 16.5726 15.0024 15.4741 16.0039C14.3755 17.0054 13.0235 17.6868 11.565 17.9742C12.2954 16.746 12.8529 15.423 13.2217 14.0425C14.8296 13.7055 16.3738 13.1154 17.7967 12.2942V12.2933ZM2.20333 12.2933C3.60499 13.1025 5.14499 13.7 6.77833 14.0425C7.14708 15.423 7.70456 16.746 8.43499 17.9742C6.97657 17.6869 5.6247 17.0056 4.52611 16.0042C3.42753 15.0029 2.6242 13.7198 2.20333 12.2942V12.2933ZM11.565 2.025C13.6298 2.43084 15.4567 3.62153 16.6617 5.34667C15.7722 6.24532 14.7104 6.95506 13.54 7.43333C13.2246 5.52318 12.5548 3.68887 11.565 2.025ZM9.99999 1.89667C11.2162 3.67342 12.0152 5.70197 12.3375 7.83083C11.59 8.0225 10.8067 8.125 9.99999 8.125C9.19333 8.125 8.40999 8.02333 7.66249 7.83083C7.98473 5.70196 8.78379 3.6734 9.99999 1.89667ZM8.43499 2.025C7.44518 3.68886 6.77533 5.52318 6.45999 7.43333C5.28954 6.95508 4.22775 6.24533 3.33833 5.34667C4.54336 3.62178 6.37032 2.43055 8.43499 2.025Z" fill="#126DCF"/>
</svg>
