<?xml version="1.0" encoding="UTF-8"?><svg id="Layer_1" xmlns="http://www.w3.org/2000/svg" viewBox="0 0 192.83 192.83"><defs><style>.cls-1{fill:#dc3545;font-family:PlusJakartaSans-Bold, 'Plus Jakarta Sans';font-size:36px;font-variation-settings:'wght' 700;font-weight:700;letter-spacing:-.02em;}.cls-2{fill:none;stroke:#dc3545;stroke-linecap:round;stroke-miterlimit:10;stroke-width:4.83px;}</style></defs><path class="cls-2" d="M142.25,121.39v-50.61c0-.36-.21-.68-.54-.83l-44.72-20.17c-.36-.16-.77-.16-1.13,0l-44.75,20.17c-.33.15-.54.47-.54.83v50.61c0,.35.2.67.52.82l44.82,21.15c.37.18.81.18,1.18,0l44.64-21.15c.32-.15.52-.47.52-.82Z"/><path class="cls-2" d="M103.21,5.29c3.83,3.83,3.83,10.04,0,13.87-3.83,3.83-10.04,3.83-13.87,0-3.83-3.83-3.83-10.04,0-13.87,3.83-3.83,10.04-3.83,13.87,0Z"/><line class="cls-2" x1="96.27" y1="36.47" x2="96.27" y2="23.01"/><path class="cls-2" d="M89.62,187.54c-3.83-3.83-3.83-10.04,0-13.87,3.83-3.83,10.04-3.83,13.87,0,3.83,3.83,3.83,10.04,0,13.87-3.83,3.83-10.04,3.83-13.87,0Z"/><line class="cls-2" x1="96.56" y1="157.31" x2="96.56" y2="169.82"/><path class="cls-2" d="M5.29,89.62c3.83-3.83,10.04-3.83,13.87,0,3.83,3.83,3.83,10.04,0,13.87-3.83,3.83-10.04,3.83-13.87,0-3.83-3.83-3.83-10.04,0-13.87Z"/><line class="cls-2" x1="37.86" y1="96.56" x2="23.01" y2="96.56"/><path class="cls-2" d="M187.54,103.21c-3.83,3.83-10.04,3.83-13.87,0-3.83-3.83-3.83-10.04,0-13.87,3.83-3.83,10.04-3.83,13.87,0,3.83,3.83,3.83,10.04,0,13.87Z"/><line class="cls-2" x1="154.97" y1="96.27" x2="169.82" y2="96.27"/><circle class="cls-2" cx="157.15" cy="35.48" r="9.81"/><line class="cls-2" x1="139.02" y1="53.61" x2="149.52" y2="43.11"/><path class="cls-2" d="M25.87,35.48c0,5.42,4.39,9.81,9.81,9.81s9.81-4.39,9.81-9.81-4.39-9.81-9.81-9.81-9.81,4.39-9.81,9.81Z"/><line class="cls-2" x1="53.81" y1="53.61" x2="43.31" y2="43.11"/><path class="cls-2" d="M166.96,157.35c0-5.42-4.39-9.81-9.81-9.81s-9.81,4.39-9.81,9.81,4.39,9.81,9.81,9.81,9.81-4.39,9.81-9.81Z"/><line class="cls-2" x1="139.02" y1="139.22" x2="149.52" y2="149.72"/><path class="cls-2" d="M25.87,157.35c0-5.42,4.39-9.81,9.81-9.81s9.81,4.39,9.81,9.81-4.39,9.81-9.81,9.81-9.81-4.39-9.81-9.81Z"/><line class="cls-2" x1="53.81" y1="139.22" x2="43.31" y2="149.72"/><text class="cls-1" transform="translate(73.04 107.6)"><tspan x="0" y="0">A.I</tspan></text></svg>