<?xml version="1.0" encoding="UTF-8"?><svg id="Layer_1" xmlns="http://www.w3.org/2000/svg" viewBox="0 0 191.99 169.73"><defs><style>.cls-1{fill:none;stroke:#212121;stroke-linecap:round;stroke-miterlimit:10;stroke-width:5.99px;}</style></defs><rect class="cls-1" x="3" y="3" width="185.99" height="163.73" rx="9.31" ry="9.31"/><line class="cls-1" x1="18.56" y1="41.03" x2="173.42" y2="41.03"/><path class="cls-1" d="M168.21,21.94c0,.9-.73,1.63-1.63,1.63s-1.63-.73-1.63-1.63.73-1.63,1.63-1.63,1.63.73,1.63,1.63Z"/><path class="cls-1" d="M149.37,21.94c0,.9-.73,1.63-1.63,1.63s-1.63-.73-1.63-1.63.73-1.63,1.63-1.63,1.63.73,1.63,1.63Z"/><path class="cls-1" d="M89.24,134.98v-15.26c0-1.19-.59-2.3-1.59-2.95-3.45-2.26-12.53-7.05-27.46-7.05s-24,4.8-27.46,7.05c-1,.65-1.59,1.76-1.59,2.95v15.26c0,.17.14.31.31.31h57.49c.17,0,.31-.14.31-.31Z"/><path class="cls-1" d="M73.01,81.81c0,8.59-5.66,15.34-12.64,15.34s-12.64-6.75-12.64-15.34,5.66-13.55,12.64-13.55,12.64,4.96,12.64,13.55Z"/><line class="cls-1" x1="112.26" y1="75.37" x2="162.42" y2="75.37"/><line class="cls-1" x1="112.26" y1="102.45" x2="162.42" y2="102.45"/><line class="cls-1" x1="112.26" y1="129.53" x2="154.19" y2="129.53"/></svg>