<?xml version="1.0" encoding="UTF-8"?><svg id="Layer_1" xmlns="http://www.w3.org/2000/svg" viewBox="0 0 184.68 168.84"><defs><style>.cls-1{fill:none;stroke:#212121;stroke-linecap:round;stroke-miterlimit:10;stroke-width:5.71px;}</style></defs><path class="cls-1" d="M143.47,103.29v61.1c0,.88-.76,1.59-1.7,1.59H4.56c-.94,0-1.7-.71-1.7-1.59V4.45c0-.88.76-1.59,1.7-1.59h136.39c.94,0,1.7.71,1.7,1.59v24.09"/><line class="cls-1" x1="33.32" y1="131.64" x2="58.43" y2="131.64"/><line class="cls-1" x1="33.32" y1="101.79" x2="66.36" y2="101.79"/><line class="cls-1" x1="33.32" y1="71.94" x2="96.82" y2="71.94"/><line class="cls-1" x1="33.32" y1="42.09" x2="112.18" y2="42.09"/><path class="cls-1" d="M154.33,36.46l-70.52,66c-2.61,2.44-4.49,5.48-5.45,8.81l-5.57,19.29c-.17.57.4,1.1,1.01.94l20.61-5.21c3.56-.9,6.81-2.66,9.42-5.1l70.52-66c5.53-5.17,5.53-13.56,0-18.73h0c-5.53-5.17-14.49-5.17-20.02,0Z"/><path class="cls-1" d="M178.59,65.56c1.08,2.97.36,6.39-2.18,8.76l-18.96,17.74"/><line class="cls-1" x1="142.65" y1="84.85" x2="123" y2="66.46"/><line class="cls-1" x1="175.15" y1="35.92" x2="181.82" y2="29.68"/></svg>