<?xml version="1.0" encoding="UTF-8"?><svg id="Layer_1" xmlns="http://www.w3.org/2000/svg" viewBox="0 0 187.83 162.91"><defs><style>.cls-1{fill:none;stroke:#212121;stroke-linecap:round;stroke-miterlimit:10;stroke-width:4.83px;}</style></defs><path class="cls-1" d="M183.78,142.42H4.05c-.9,0-1.64.63-1.64,1.41v15.26c0,.78.73,1.41,1.64,1.41h179.73c.9,0,1.64-.63,1.64-1.41v-15.26c0-.78-.73-1.41-1.64-1.41Z"/><path class="cls-1" d="M38.94,130.64v-24.61c0-.78-.73-1.41-1.64-1.41H15.73c-.9,0-1.64.63-1.64,1.41v24.61"/><path class="cls-1" d="M59.15,130.64v-58.33c0-.78.73-1.41,1.64-1.41h21.58c.9,0,1.64.63,1.64,1.41v58.33"/><path class="cls-1" d="M104.21,130.64v-43.04c0-.78.73-1.41,1.64-1.41h21.58c.9,0,1.64.63,1.64,1.41v43.04"/><path class="cls-1" d="M149.28,130.64V52.55c0-.78.73-1.41,1.64-1.41h21.58c.9,0,1.64.63,1.64,1.41v78.1"/><line class="cls-1" x1="132.92" y1="41.34" x2="153.85" y2="21.1"/><line class="cls-1" x1="82.02" y1="38.95" x2="105.72" y2="51.79"/><line class="cls-1" x1="34.94" y1="69.16" x2="54.82" y2="49.68"/><path class="cls-1" d="M39.2,77.21c0,5.9-5.57,10.69-12.43,10.69s-12.43-4.79-12.43-10.69,5.57-10.69,12.43-10.69,12.43,4.79,12.43,10.69Z"/><path class="cls-1" d="M83.93,33.25c0,5.9-5.57,10.69-12.43,10.69s-12.43-4.79-12.43-10.69,5.57-10.69,12.43-10.69,12.43,4.79,12.43,10.69Z"/><path class="cls-1" d="M128.66,57.49c0,5.9-5.57,10.69-12.43,10.69s-12.43-4.79-12.43-10.69,5.57-10.69,12.43-10.69,12.43,4.79,12.43,10.69Z"/><path class="cls-1" d="M174.54,13.11c0,5.9-5.57,10.69-12.43,10.69s-12.43-4.79-12.43-10.69,5.57-10.69,12.43-10.69,12.43,4.79,12.43,10.69Z"/></svg>