<svg width="24" height="24" viewBox="0 0 24 24" fill="none" xmlns="http://www.w3.org/2000/svg">
<path fill-rule="evenodd" clip-rule="evenodd" d="M14.5052 4.90843C13.433 3.03052 10.5666 3.03053 9.49448 4.90844L2.84115 16.5622C1.79224 18.3995 3.26382 20.5 5.3465 20.5H18.6531C20.7358 20.5 22.2074 18.3995 21.1585 16.5622L14.5052 4.90843ZM10.3629 5.40424C11.0512 4.19859 12.9484 4.19859 13.6367 5.40423L20.2901 17.058C20.8937 18.1154 20.1024 19.5 18.6531 19.5H5.3465C3.89722 19.5 3.10594 18.1154 3.70959 17.058L10.3629 5.40424ZM12.4998 8.5C12.4998 8.22386 12.276 8 11.9998 8C11.7237 8 11.4998 8.22386 11.4998 8.5V13.5C11.4998 13.7761 11.7237 14 11.9998 14C12.276 14 12.4998 13.7761 12.4998 13.5V8.5ZM11.9998 17.5C12.5521 17.5 12.9998 17.0523 12.9998 16.5C12.9998 15.9477 12.5521 15.5 11.9998 15.5C11.4475 15.5 10.9998 15.9477 10.9998 16.5C10.9998 17.0523 11.4475 17.5 11.9998 17.5Z" fill="#222222"/>
</svg>
