<svg width="24" height="24" viewBox="0 0 24 24" fill="none" xmlns="http://www.w3.org/2000/svg">
<path fill-rule="evenodd" clip-rule="evenodd" d="M12 3C7.03388 3 3 7.03388 3 12C3 16.9661 7.03388 21 12 21C16.9661 21 21 16.9661 21 12C21 7.03388 16.9661 3 12 3ZM12 3.75C16.5608 3.75 20.25 7.43921 20.25 12C20.25 16.5608 16.5608 20.25 12 20.25C7.43921 20.25 3.75 16.5608 3.75 12C3.75 7.43921 7.43921 3.75 12 3.75Z" fill="#222222"/>
<path fill-rule="evenodd" clip-rule="evenodd" d="M7.875 6.75C7.25812 6.75 6.75 7.25812 6.75 7.875C6.75 8.49188 7.25812 9 7.875 9C8.49188 9 9 8.49188 9 7.875C9 7.25812 8.49188 6.75 7.875 6.75ZM7.875 7.5C8.08655 7.5 8.25 7.66345 8.25 7.875C8.25 8.08655 8.08655 8.25 7.875 8.25C7.66345 8.25 7.5 8.08655 7.5 7.875C7.5 7.66345 7.66345 7.5 7.875 7.5Z" fill="#222222"/>
<path fill-rule="evenodd" clip-rule="evenodd" d="M7.875 10.875C7.25812 10.875 6.75 11.3831 6.75 12C6.75 12.6169 7.25812 13.125 7.875 13.125C8.49188 13.125 9 12.6169 9 12C9 11.3831 8.49188 10.875 7.875 10.875ZM7.875 11.625C8.08655 11.625 8.25 11.7885 8.25 12C8.25 12.2115 8.08655 12.375 7.875 12.375C7.66345 12.375 7.5 12.2115 7.5 12C7.5 11.7885 7.66345 11.625 7.875 11.625Z" fill="#222222"/>
<path fill-rule="evenodd" clip-rule="evenodd" d="M7.875 15C7.25812 15 6.75 15.5081 6.75 16.125C6.75 16.7419 7.25812 17.25 7.875 17.25C8.49188 17.25 9 16.7419 9 16.125C9 15.5081 8.49188 15 7.875 15ZM7.875 15.75C8.08655 15.75 8.25 15.9135 8.25 16.125C8.25 16.3365 8.08655 16.5 7.875 16.5C7.66345 16.5 7.5 16.3365 7.5 16.125C7.5 15.9135 7.66345 15.75 7.875 15.75Z" fill="#222222"/>
<path fill-rule="evenodd" clip-rule="evenodd" d="M10.5 7.5C10.4005 7.5 10.3052 7.53951 10.2348 7.60984C10.1645 7.68017 10.125 7.77554 10.125 7.875C10.125 7.97446 10.1645 8.06983 10.2348 8.14016C10.3052 8.21049 10.4005 8.25 10.5 8.25H17.0625C17.162 8.25 17.2573 8.21049 17.3277 8.14016C17.398 8.06983 17.4375 7.97446 17.4375 7.875C17.4375 7.77554 17.398 7.68017 17.3277 7.60984C17.2573 7.53951 17.162 7.5 17.0625 7.5H10.5Z" fill="#222222"/>
<path fill-rule="evenodd" clip-rule="evenodd" d="M10.5 11.625C10.4005 11.625 10.3052 11.6645 10.2348 11.7348C10.1645 11.8052 10.125 11.9005 10.125 12C10.125 12.0995 10.1645 12.1948 10.2348 12.2652C10.3052 12.3355 10.4005 12.375 10.5 12.375H17.0625C17.162 12.375 17.2573 12.3355 17.3277 12.2652C17.398 12.1948 17.4375 12.0995 17.4375 12C17.4375 11.9005 17.398 11.8052 17.3277 11.7348C17.2573 11.6645 17.162 11.625 17.0625 11.625H10.5Z" fill="#222222"/>
<path fill-rule="evenodd" clip-rule="evenodd" d="M10.5 15.75C10.4005 15.75 10.3052 15.7895 10.2348 15.8598C10.1645 15.9302 10.125 16.0255 10.125 16.125C10.125 16.2245 10.1645 16.3198 10.2348 16.3902C10.3052 16.4605 10.4005 16.5 10.5 16.5H17.0625C17.162 16.5 17.2573 16.4605 17.3277 16.3902C17.398 16.3198 17.4375 16.2245 17.4375 16.125C17.4375 16.0255 17.398 15.9302 17.3277 15.8598C17.2573 15.7895 17.162 15.75 17.0625 15.75H10.5Z" fill="#222222"/>
</svg>
