<svg width="24" height="24" viewBox="0 0 24 24" fill="none" xmlns="http://www.w3.org/2000/svg">
<path d="M11.5 3C6.81246 3 3 6.81246 3 11.5C3 16.1875 6.81246 20 11.5 20C16.1875 20 20 16.1875 20 11.5C20 6.81246 16.1875 3 11.5 3ZM11.5 19.575C9.1285 19.575 6.99266 18.5465 5.51345 16.9145C7.04162 15.2211 9.21053 14.25 11.5 14.25C13.7886 14.25 15.9583 15.2187 17.4865 16.9145C16.0074 18.5489 13.8715 19.575 11.5 19.575ZM17.7645 16.5892C16.1583 14.8319 13.8906 13.8267 11.5 13.8267C9.10938 13.8267 6.84158 14.8319 5.2355 16.5892C4.10494 15.1996 3.42511 13.4274 3.42511 11.5C3.42511 7.04834 7.04844 3.425 11.5001 3.425C15.9518 3.425 19.5751 7.04834 19.5751 11.5C19.5751 13.4274 18.8951 15.1996 17.7645 16.5892Z" fill="#222222" stroke="#222222" stroke-width="0.5"/>
<path d="M11.5001 5.88086C9.69634 5.88086 8.22803 7.34928 8.22803 9.15293C8.22803 10.9566 9.69644 12.425 11.5001 12.425C13.3038 12.425 14.7722 10.9566 14.7722 9.15293C14.7722 7.34928 13.3038 5.88086 11.5001 5.88086ZM11.5001 11.9994C9.9296 11.9994 8.65303 10.7219 8.65303 9.1523C8.65303 7.58179 9.93051 6.30522 11.5001 6.30522C13.0706 6.30522 14.3472 7.58271 14.3472 9.1523C14.3472 10.7228 13.0697 11.9994 11.5001 11.9994Z" fill="#222222" stroke="#222222" stroke-width="0.5"/>
</svg>
