<svg width="24" height="24" viewBox="0 0 24 24" fill="none" xmlns="http://www.w3.org/2000/svg">
<circle cx="12.3333" cy="7.50033" r="0.333333" fill="#222222"/>
<mask id="path-2-inside-1_1245_2912" fill="white">
<path d="M9 7C9 6.44772 9.44772 6 10 6H14C14.5523 6 15 6.44772 15 7V11C15 11.5523 14.5523 12 14 12H10C9.44772 12 9 11.5523 9 11V7Z"/>
</mask>
<path d="M12 8.5H12.25C12.25 8.36193 12.1381 8.25 12 8.25V8.5ZM11.8333 8.25C11.6953 8.25 11.5833 8.36193 11.5833 8.5C11.5833 8.63807 11.6953 8.75 11.8333 8.75V8.25ZM11.6667 10.25C11.5286 10.25 11.4167 10.3619 11.4167 10.5C11.4167 10.6381 11.5286 10.75 11.6667 10.75V10.25ZM12.3333 10.75C12.4714 10.75 12.5833 10.6381 12.5833 10.5C12.5833 10.3619 12.4714 10.25 12.3333 10.25V10.75ZM12.25 10.5V8.5H11.75V10.5H12.25ZM12 8.25H11.8333V8.75H12V8.25ZM12 10.25H11.6667V10.75H12V10.25ZM12 10.75H12.3333V10.25H12V10.75ZM10 6.5H14V5.5H10V6.5ZM14.5 7V11H15.5V7H14.5ZM14 11.5H10V12.5H14V11.5ZM9.5 11V7H8.5V11H9.5ZM10 11.5C9.72386 11.5 9.5 11.2761 9.5 11H8.5C8.5 11.8284 9.17157 12.5 10 12.5V11.5ZM14.5 11C14.5 11.2761 14.2761 11.5 14 11.5V12.5C14.8284 12.5 15.5 11.8284 15.5 11H14.5ZM14 6.5C14.2761 6.5 14.5 6.72386 14.5 7H15.5C15.5 6.17157 14.8284 5.5 14 5.5V6.5ZM10 5.5C9.17157 5.5 8.5 6.17157 8.5 7H9.5C9.5 6.72386 9.72386 6.5 10 6.5V5.5Z" fill="#222222" mask="url(#path-2-inside-1_1245_2912)"/>
<path d="M8 15H16" stroke="#222222" stroke-width="0.6" stroke-linecap="round"/>
<path d="M8 17H16" stroke="#222222" stroke-width="0.6" stroke-linecap="round"/>
<rect x="5.3" y="3.3" width="13.4" height="17.4" rx="1.7" stroke="#222222" stroke-width="0.6"/>
</svg>
