<svg width="24" height="24" viewBox="0 0 24 24" fill="none" xmlns="http://www.w3.org/2000/svg">
<path d="M16.5 12C16.5 14.4245 16.0076 16.5947 15.2348 18.1404C14.447 19.7159 13.4512 20.5 12.5 20.5C11.5488 20.5 10.553 19.7159 9.76523 18.1404C8.99242 16.5947 8.5 14.4245 8.5 12C8.5 9.57551 8.99242 7.40527 9.76523 5.85965C10.553 4.28412 11.5488 3.5 12.5 3.5C13.4512 3.5 14.447 4.28412 15.2348 5.85965C16.0076 7.40527 16.5 9.57551 16.5 12Z" stroke="#222222"/>
<path d="M14.4558 14.8612C12.3561 16.0735 10.2304 16.7321 8.50545 16.8357C6.74712 16.9412 5.57017 16.4709 5.09456 15.6471C4.61894 14.8233 4.80012 13.5689 5.77069 12.0989C6.72283 10.6568 8.3561 9.14526 10.4558 7.93301C12.5554 6.72077 14.6811 6.0621 16.4061 5.95856C18.1644 5.85302 19.3414 6.32333 19.817 7.14711C20.2926 7.9709 20.1114 9.22533 19.1409 10.6953C18.1887 12.1374 16.5554 13.649 14.4558 14.8612Z" stroke="#222222"/>
<path d="M14.0442 8.13878C16.1439 9.35103 17.7772 10.8626 18.7293 12.3047C19.6999 13.7747 19.8811 15.0291 19.4054 15.8529C18.9298 16.6767 17.7529 17.147 15.9945 17.0414C14.2696 16.9379 12.1439 16.2792 10.0442 15.067C7.94456 13.8547 6.31128 12.3432 5.35914 10.9011C4.38858 9.4311 4.2074 8.17667 4.68301 7.35289C5.15863 6.5291 6.33558 6.05879 8.09391 6.16433C9.81886 6.26787 11.9446 6.92654 14.0442 8.13878Z" stroke="#222222"/>
</svg>
