<svg width="24" height="24" viewBox="0 0 24 24" fill="none" xmlns="http://www.w3.org/2000/svg">
<path fill-rule="evenodd" clip-rule="evenodd" d="M6.20079 3C4.43304 3 3 4.43304 3 6.20079V17.0039C3 18.7717 4.43304 20.2047 6.20079 20.2047H17.0039C18.7717 20.2047 20.2047 18.7717 20.2047 17.0039V6.20079C20.2047 4.43304 18.7717 3 17.0039 3H6.20079ZM4 6.20079C4 4.98533 4.98533 4 6.20079 4H17.0039C18.2194 4 19.2047 4.98533 19.2047 6.20079V17.0039C19.2047 18.2194 18.2194 19.2047 17.0039 19.2047H6.20079C4.98533 19.2047 4 18.2194 4 17.0039V6.20079ZM11.1522 9.75196C10.8761 9.75196 10.6522 9.97582 10.6522 10.252C10.6522 10.5113 10.8496 10.7245 11.1024 10.7495V15.1535H10.7021C10.426 15.1535 10.2021 15.3774 10.2021 15.6535C10.2021 15.9297 10.426 16.1535 10.7021 16.1535H11.6024H12.5026C12.7788 16.1535 13.0026 15.9297 13.0026 15.6535C13.0026 15.3774 12.7788 15.1535 12.5026 15.1535H12.1024V10.252C12.1024 9.97582 11.8785 9.75196 11.6024 9.75196H11.1522ZM11.6024 8.45162C12.0996 8.45162 12.5027 8.04856 12.5027 7.55136C12.5027 7.05416 12.0996 6.6511 11.6024 6.6511C11.1052 6.6511 10.7022 7.05416 10.7022 7.55136C10.7022 8.04856 11.1052 8.45162 11.6024 8.45162Z" fill="#222222"/>
</svg>
