<svg width="24" height="24" viewBox="0 0 24 24" fill="none" xmlns="http://www.w3.org/2000/svg">
<path d="M12.2159 5H1.95457C1.42793 5 1 5.41664 1 5.92852V17.0714C1 17.5833 1.42789 18 1.95457 18H21.0454C21.5721 18 22 17.5833 22 17.0714V5.92852C22 5.41664 21.5722 5 21.0455 5H13.4091H12.2159Z" stroke="#222222" stroke-width="0.827273"/>
<path fill-rule="evenodd" clip-rule="evenodd" d="M6.8335 7.36328C5.761 7.36328 4.8891 8.20675 4.8891 9.24341C4.8891 10.2801 5.761 11.1235 6.8335 11.1235C7.90599 11.1235 8.77789 10.2801 8.77789 9.24341C8.77789 8.20675 7.90599 7.36328 6.8335 7.36328Z" stroke="#222222" stroke-width="0.827273"/>
<path fill-rule="evenodd" clip-rule="evenodd" d="M6.8335 12.2517C5.761 12.2517 4.79489 12.6736 4.1736 13.0276C3.65557 13.3232 3.3335 13.8972 3.3335 14.5255V14.7664C3.3335 15.246 3.70718 15.636 4.1667 15.636H9.50029C9.95982 15.636 10.3335 15.246 10.3335 14.7664V14.5255C10.3335 13.8972 10.0114 13.3232 9.49339 13.0276C8.8721 12.6736 7.90599 12.2517 6.8335 12.2517Z" stroke="#222222" stroke-width="0.827273"/>
</svg>
