<svg width="24" height="24" viewBox="0 0 24 24" fill="none" xmlns="http://www.w3.org/2000/svg">
<path d="M14.2665 17.2985C14.459 17.4965 14.7755 17.501 14.9735 17.3085C15.1715 17.116 15.176 16.7995 14.9835 16.6015L13.7764 15.3599C14.4979 14.2903 14.395 12.8142 13.4678 11.8605C12.4172 10.7798 10.7078 10.7798 9.65721 11.8605C8.61426 12.9332 8.61426 14.6668 9.65721 15.7395C10.5853 16.6941 12.0275 16.8055 13.0755 16.0735L14.2665 17.2985ZM12.7508 12.5575C13.4164 13.2422 13.4164 14.3578 12.7508 15.0425C12.0929 15.7192 11.0321 15.7192 10.3742 15.0425C9.7086 14.3578 9.7086 13.2422 10.3742 12.5575C11.0321 11.8808 12.0929 11.8808 12.7508 12.5575ZM13.538 3.69536L13.7485 3.24562L13.538 3.69536C13.7667 3.80242 13.978 3.95182 14.1603 4.13935L17.8727 7.95773C18.055 8.14529 18.2015 8.36392 18.307 8.6023C18.4328 8.88679 18.5 9.19881 18.5 9.51838V18.3C18.5 19.5284 17.5354 20.5 16.375 20.5H7.625C6.46458 20.5 5.5 19.5284 5.5 18.3V5.7C5.5 4.4716 6.46458 3.5 7.625 3.5H12.6627C12.9671 3.5 13.2652 3.56763 13.538 3.69536Z" stroke="#222222" stroke-linecap="round" stroke-linejoin="round"/>
<path d="M14.5184 3.79146L18.2307 7.60984C18.4551 7.84071 18.6347 8.10909 18.7637 8.40065H14.7495C14.1972 8.40065 13.7495 7.95293 13.7495 7.40065V3.24316C14.033 3.37585 14.2939 3.56059 14.5184 3.79146Z" fill="#222222"/>
</svg>
