<svg width="24" height="24" viewBox="0 0 24 24" fill="none" xmlns="http://www.w3.org/2000/svg">
<path d="M10.8241 6.72959C10.7486 6.74165 10.68 6.78035 10.631 6.83854C10.582 6.89674 10.556 6.9705 10.5577 7.04621L10.5871 8.35095C10.5888 8.4252 10.617 8.49645 10.6668 8.552C10.7166 8.60755 10.7848 8.64378 10.8591 8.65425L11.8909 8.80015C11.9507 8.97202 12.0234 9.13921 12.1084 9.30034C12.0339 9.39052 11.9315 9.51851 11.8077 9.67789L11.7071 9.81002C11.6186 9.92546 11.5494 10.0169 11.5045 10.0836C11.4689 10.1365 11.4503 10.1988 11.4513 10.2624C11.4523 10.3259 11.4728 10.3877 11.51 10.4394C11.8117 10.8079 12.1453 11.1495 12.507 11.4606C12.5616 11.5099 12.632 11.5386 12.7059 11.5419C12.7797 11.5452 12.8524 11.5229 12.9114 11.4787L13.748 10.8516C13.8953 10.9159 14.0351 10.971 14.1648 11.0157L14.326 12.0588C14.3374 12.1329 14.3752 12.2005 14.4327 12.2493C14.4901 12.2982 14.5633 12.325 14.6391 12.325H14.6425L15.972 12.3107C16.0477 12.3106 16.1208 12.2838 16.1783 12.2351C16.2357 12.1863 16.2736 12.1189 16.2851 12.0449L16.2916 12.0034C16.3207 11.8186 16.3733 11.4816 16.4268 11.0176C16.587 10.9631 16.7429 10.8972 16.8934 10.8204L17.6809 11.4319C17.7202 11.4625 17.7663 11.4834 17.8154 11.493C17.8645 11.5025 17.9152 11.5003 17.9633 11.4867C18.0082 11.4741 18.1447 11.4355 18.5193 11.0649C18.7362 10.8652 18.9378 10.6499 19.1227 10.4209C19.1663 10.3652 19.1897 10.2967 19.1892 10.2262C19.1887 10.1558 19.1643 10.0876 19.1199 10.0325C18.8418 9.68878 18.6499 9.43141 18.52 9.25289C18.5944 9.10578 18.6595 8.95422 18.7149 8.7991L19.77 8.63926C19.846 8.62773 19.9152 8.58924 19.9647 8.53096C20.0141 8.47268 20.0405 8.39858 20.0388 8.32249L20.0098 7.01774C20.0081 6.94352 19.9799 6.87228 19.9302 6.81671C19.8804 6.76115 19.8124 6.72485 19.7381 6.7143L18.7168 6.56824C18.661 6.3988 18.5908 6.23434 18.507 6.07662C18.5382 6.03574 18.5763 5.98997 18.6199 5.93715C18.6771 5.86764 18.7431 5.78757 18.8182 5.69065L18.9188 5.55851C19.0073 5.44307 19.0766 5.35166 19.1215 5.28491C19.1556 5.23417 19.1741 5.17467 19.1746 5.11369C19.1751 5.05272 19.1576 4.99293 19.1242 4.94165C18.827 4.56092 18.4915 4.21093 18.123 3.89703C18.0685 3.84618 17.9976 3.8161 17.9228 3.81215C17.848 3.80819 17.7742 3.83062 17.7146 3.87545L16.8971 4.48831C16.7504 4.41998 16.5999 4.35981 16.4463 4.30811L16.2851 3.26609C16.2737 3.19201 16.2358 3.12444 16.1784 3.07562C16.1209 3.0268 16.0477 2.99997 15.972 3H15.9686L14.6505 3.01439C14.5796 3.01516 14.5109 3.03949 14.4556 3.0835C14.4002 3.12751 14.3615 3.18863 14.3455 3.25706C14.2739 3.60428 14.2202 3.95488 14.1846 4.3075C14.0242 4.3621 13.8681 4.42805 13.7174 4.50485L12.959 3.91846C12.9324 3.89503 12.9021 3.87615 12.8693 3.86258C12.6747 3.78266 12.5162 3.86901 12.1007 4.2804C11.8898 4.48204 11.6903 4.69513 11.5032 4.91869C11.4599 4.97386 11.4365 5.04177 11.4366 5.11163C11.4367 5.18149 11.4604 5.24932 11.5039 5.30436L11.563 5.37876C11.7768 5.64914 11.9637 5.88523 12.11 6.091C12.029 6.23995 11.9618 6.39583 11.9092 6.55674L10.8241 6.72959ZM12.1994 7.14572C12.2565 7.13662 12.31 7.11219 12.3541 7.07511C12.3982 7.03802 12.4312 6.98969 12.4494 6.93536L12.4937 6.80476C12.5421 6.64685 12.6077 6.49463 12.6895 6.35081L12.7628 6.22037C12.7926 6.16741 12.8062 6.10706 12.802 6.0466C12.7979 5.98615 12.7761 5.92819 12.7393 5.87972L12.6592 5.77423C12.5268 5.58407 12.3575 5.36682 12.1629 5.12002C12.2613 5.01315 12.3899 4.88113 12.5487 4.72394C12.6286 4.64493 12.6911 4.58676 12.739 4.5442L13.4921 5.1263C13.5412 5.16423 13.6005 5.18701 13.6625 5.1918C13.7246 5.1966 13.7867 5.18319 13.8411 5.15325L13.9705 5.0819C14.1152 5.00494 14.2665 4.94059 14.4225 4.8896L14.5689 4.84612C14.6289 4.82828 14.6822 4.79324 14.7222 4.74542C14.7621 4.6976 14.7868 4.63914 14.7932 4.57743L14.8077 4.43535C14.8495 4.06132 14.8873 3.8061 14.9157 3.63861L15.7004 3.63003L15.8495 4.59321C15.8583 4.65022 15.8829 4.70372 15.9204 4.74783C15.958 4.79194 16.0071 4.82494 16.0624 4.84322L16.201 4.88885C16.3642 4.94164 16.5237 5.00506 16.6784 5.0787L16.8102 5.13672C16.862 5.15946 16.9189 5.16806 16.9752 5.16163C17.0315 5.15519 17.085 5.13396 17.1301 5.10013L17.8829 4.53579C18.1125 4.75259 18.3229 4.95866 18.4621 5.11667C18.4467 5.13688 18.4306 5.15801 18.4136 5.18021L18.3136 5.31142C18.2449 5.39991 18.1827 5.47524 18.1289 5.54063C18.0649 5.61839 18.0113 5.68378 17.9745 5.73491L17.8866 5.85097C17.8527 5.89562 17.8315 5.94845 17.8252 6.00397C17.8189 6.05949 17.8277 6.11567 17.8508 6.16667L17.9198 6.31793C18.0075 6.47764 18.0788 6.64567 18.1326 6.8195L18.1766 6.94994C18.1951 7.00511 18.2288 7.05407 18.2739 7.09136C18.319 7.12865 18.3737 7.15278 18.4318 7.16106L19.382 7.29702L19.399 8.061L18.429 8.20798C18.3714 8.21665 18.3173 8.24091 18.2728 8.27809C18.2282 8.31527 18.1949 8.36391 18.1766 8.41865L18.1348 8.54282C18.0823 8.69598 18.0188 8.84523 17.9448 8.98942L17.8715 9.10547C17.8375 9.15915 17.8208 9.22175 17.8235 9.28502C17.8262 9.34829 17.8482 9.40927 17.8866 9.45991L17.9702 9.56999C18.0763 9.71681 18.2356 9.93376 18.464 10.2228C18.3721 10.3249 18.2443 10.4587 18.0772 10.6155C17.9977 10.6944 17.9346 10.7521 17.886 10.794L17.1199 10.1992C17.0708 10.1611 17.0115 10.1382 16.9493 10.1333C16.8871 10.1284 16.8248 10.1418 16.7703 10.1718L16.641 10.2432C16.4962 10.3201 16.3449 10.3845 16.1889 10.4355L16.0422 10.4789C15.9821 10.4968 15.9286 10.5319 15.8886 10.5799C15.8487 10.6279 15.8241 10.6865 15.8179 10.7484L15.8037 10.8896C15.7663 11.2233 15.7291 11.4882 15.6994 11.6863L14.9108 11.695L14.7619 10.732C14.7531 10.675 14.7286 10.6214 14.691 10.5773C14.6535 10.5332 14.6044 10.5001 14.5491 10.4818L14.4172 10.4384C14.2535 10.3831 14.0928 10.3194 13.9358 10.2474C13.9181 10.2396 13.8998 10.2333 13.881 10.2286L13.7638 10.1997C13.7179 10.1883 13.67 10.1873 13.6236 10.1967C13.5772 10.2061 13.5336 10.2256 13.4958 10.2539L12.7403 10.8203C12.5005 10.5979 12.3037 10.401 12.1672 10.2476C12.1815 10.2288 12.1966 10.209 12.2124 10.1883L12.3123 10.0571C12.4553 9.87309 12.5698 9.73146 12.6515 9.63363L12.7393 9.51758C12.7761 9.46914 12.7978 9.4112 12.802 9.35077C12.8062 9.29034 12.7926 9.23001 12.7628 9.17707L12.6917 9.05061C12.6078 8.89769 12.5376 8.7378 12.4819 8.57278L12.438 8.42779C12.4206 8.37045 12.387 8.31924 12.3412 8.2802C12.2953 8.24115 12.2392 8.21592 12.1793 8.20747L11.2146 8.07106L11.1976 7.30524L12.1994 7.14572Z" fill="#222222" stroke="#222222" stroke-width="0.2"/>
<path d="M21.8398 14.4045C21.7476 14.2351 21.6204 14.0868 21.4665 13.9692C21.3126 13.8516 21.1355 13.7674 20.9465 13.722C20.5662 13.6254 20.1632 13.6727 19.8163 13.8547L15.6151 15.7237C15.5127 15.3239 15.2598 14.9779 14.9081 14.7565L11.5183 12.6063C11.2998 12.4295 9.70454 11.301 6.68782 13.1811L4.18132 14.7431V14.2007C4.18133 14.1595 4.17314 14.1188 4.15722 14.0807C4.1413 14.0427 4.11796 14.0081 4.08854 13.979C4.05912 13.9499 4.02419 13.9268 3.98574 13.911C3.9473 13.8953 3.90609 13.8872 3.86448 13.8872H1.31683C1.27522 13.8872 1.23402 13.8953 1.19557 13.911C1.15713 13.9268 1.1222 13.9499 1.09277 13.979C1.06335 14.0081 1.04001 14.0427 1.0241 14.0807C1.00818 14.1188 0.999989 14.1595 1 14.2007V20.1439C0.999989 20.1851 1.00818 20.2258 1.0241 20.2639C1.04001 20.3019 1.06335 20.3365 1.09277 20.3656C1.1222 20.3947 1.15713 20.4178 1.19557 20.4336C1.23402 20.4493 1.27522 20.4574 1.31683 20.4574H3.86448C3.90609 20.4574 3.9473 20.4493 3.98574 20.4336C4.02419 20.4178 4.05912 20.3947 4.08854 20.3656C4.11796 20.3365 4.1413 20.3019 4.15722 20.2639C4.17314 20.2258 4.18133 20.1851 4.18132 20.1439V19.9342C4.18542 19.9321 4.18998 19.9322 4.19399 19.9299L7.69957 17.8735C8.29115 18.2251 10.3732 19.4724 11.625 20.3556C12.179 20.766 12.8505 20.9914 13.5424 20.9993C13.9673 21.0044 14.3877 20.912 14.7704 20.7292L16.0371 19.9496L21.1727 16.3742C21.5181 16.1893 21.7823 15.8847 21.9146 15.5188C21.9818 15.3383 22.0098 15.1458 21.9969 14.9538C21.984 14.7618 21.9305 14.5747 21.8398 14.4045ZM3.54765 19.8303H1.63367V14.5143H3.54765V19.8303ZM21.3169 15.3101C21.2348 15.5346 21.0705 15.7204 20.8565 15.8305C20.845 15.8365 20.8339 15.8432 20.8234 15.8507L15.6878 19.4267L14.4542 20.1861C14.0509 20.354 13.6093 20.4109 13.176 20.3508C12.7427 20.2907 12.3338 20.1159 11.9926 19.8449C10.5084 18.7977 7.88832 17.2545 7.86202 17.2389C7.8131 17.2102 7.75727 17.195 7.70038 17.195C7.64349 17.195 7.58764 17.2101 7.53869 17.2388L4.18132 19.2082V15.4838L4.18348 15.483L7.02569 13.7117C9.77756 11.9967 11.0672 13.0488 11.1179 13.0923C11.1308 13.1037 11.1445 13.1141 11.159 13.1233L14.5678 15.2855C14.6804 15.356 14.7778 15.4478 14.8546 15.5557C14.9313 15.6635 14.9858 15.7853 15.0149 15.914C15.0441 16.0427 15.0473 16.1758 15.0244 16.3057C15.0015 16.4357 14.9529 16.5598 14.8815 16.6712C14.8101 16.7825 14.7171 16.8788 14.6081 16.9546C14.499 17.0304 14.3759 17.0842 14.2458 17.1128C14.1157 17.1415 13.9812 17.1445 13.8499 17.1216C13.7187 17.0988 13.5932 17.0505 13.4808 16.9797L11.3487 15.6759C11.3133 15.6541 11.2739 15.6394 11.2328 15.6327C11.1917 15.626 11.1496 15.6274 11.109 15.6368C11.0684 15.6463 11.0301 15.6635 10.9963 15.6876C10.9625 15.7117 10.9338 15.7422 10.9119 15.7773C10.89 15.8124 10.8753 15.8514 10.8687 15.8922C10.862 15.9329 10.8636 15.9745 10.8732 16.0146C10.8829 16.0548 10.9005 16.0926 10.9249 16.126C10.9494 16.1594 10.9803 16.1877 11.0158 16.2093L13.1451 17.5114C13.3752 17.6556 13.6378 17.7411 13.9095 17.7602C14.1811 17.7793 14.4533 17.7314 14.7017 17.6208C14.95 17.5102 15.1668 17.3403 15.3325 17.1264C15.4982 16.9126 15.6077 16.6613 15.6512 16.3953L20.0953 14.4174C20.3072 14.3032 20.5546 14.2717 20.7887 14.3292C20.8928 14.3522 20.9906 14.3973 21.0755 14.4612C21.1604 14.5251 21.2303 14.6065 21.2804 14.6996C21.3306 14.7928 21.3598 14.8955 21.3661 15.0009C21.3724 15.1063 21.3556 15.2118 21.3169 15.3101Z" fill="#222222" stroke="#222222" stroke-width="0.2"/>
<path d="M15.3996 9.10297C15.7042 9.10294 16.0019 9.01352 16.2552 8.84603C16.5084 8.67854 16.7058 8.44049 16.8223 8.16198C16.9389 7.88348 16.9693 7.57703 16.9099 7.28139C16.8505 6.98574 16.7038 6.71418 16.4884 6.50104C16.273 6.28791 15.9986 6.14276 15.6998 6.08396C15.4011 6.02517 15.0915 6.05536 14.8101 6.17072C14.5286 6.28608 14.2881 6.48144 14.1189 6.73208C13.9497 6.98272 13.8594 7.27739 13.8594 7.57883C13.8598 7.98294 14.0223 8.37037 14.311 8.65611C14.5998 8.94184 14.9913 9.10255 15.3996 9.10297ZM15.3996 6.6818C15.5789 6.68183 15.7541 6.73446 15.9031 6.83305C16.0522 6.93163 16.1683 7.07174 16.2369 7.23566C16.3055 7.39957 16.3234 7.57993 16.2884 7.75392C16.2534 7.92792 16.1671 8.08774 16.0403 8.21318C15.9136 8.33861 15.752 8.42403 15.5762 8.45863C15.4004 8.49323 15.2182 8.47546 15.0525 8.40756C14.8869 8.33966 14.7454 8.22469 14.6458 8.07717C14.5462 7.92966 14.493 7.75624 14.493 7.57883C14.4933 7.34097 14.5889 7.11292 14.7588 6.94475C14.9288 6.77657 15.1593 6.682 15.3996 6.6818Z" fill="#222222" stroke="#222222" stroke-width="0.2"/>
</svg>
