<svg width="24" height="24" viewBox="0 0 24 24" fill="none" xmlns="http://www.w3.org/2000/svg">
<path d="M15.5556 21H9.33333C6.38781 21 4 18.5823 4 15.6V7.5M17.3333 18.3H9.33333C7.86057 18.3 6.66667 17.0912 6.66667 15.6V5.7C6.66667 4.20883 7.86057 3 9.33333 3H13.4402C13.7081 3 13.9714 3.0408 14.2222 3.11871C14.7001 3.26717 15.1326 3.55039 15.4649 3.94286L19.358 8.54166C19.653 8.8901 19.8534 9.30644 19.9443 9.75C19.9811 9.92938 20 10.1132 20 10.2988V15.6C20 17.0912 18.8061 18.3 17.3333 18.3Z" stroke="#222222" stroke-linecap="round"/>
</svg>
