<svg width="24" height="24" viewBox="0 0 24 24" fill="none" xmlns="http://www.w3.org/2000/svg">
<path d="M3.16036 11.5264C2.8988 11.4378 2.61497 11.5781 2.52641 11.8396C2.43785 12.1012 2.57809 12.385 2.83964 12.4736L3.16036 11.5264ZM21.1571 12.4747C21.4193 12.3879 21.5615 12.105 21.4747 11.8429C21.3879 11.5807 21.105 11.4385 20.8429 11.5253L21.1571 12.4747ZM4.8 8.05556H19.2V7.05556H4.8V8.05556ZM20.5 9.33333V18.2222H21.5V9.33333H20.5ZM19.2 19.5H4.8V20.5H19.2V19.5ZM3.5 18.2222V9.33333H2.5V18.2222H3.5ZM4.8 19.5C4.07616 19.5 3.5 18.9221 3.5 18.2222H2.5C2.5 19.486 3.53562 20.5 4.8 20.5V19.5ZM20.5 18.2222C20.5 18.9221 19.9238 19.5 19.2 19.5V20.5C20.4644 20.5 21.5 19.486 21.5 18.2222H20.5ZM19.2 8.05556C19.9238 8.05556 20.5 8.63347 20.5 9.33333H21.5C21.5 8.06951 20.4644 7.05556 19.2 7.05556V8.05556ZM4.8 7.05556C3.53562 7.05556 2.5 8.06951 2.5 9.33333H3.5C3.5 8.63347 4.07616 8.05556 4.8 8.05556V7.05556ZM10.2 4.5H13.8V3.5H10.2V4.5ZM15.1 5.77778V7.55556H16.1V5.77778H15.1ZM8.9 7.55556V5.77778H7.9V7.55556H8.9ZM13.8 4.5C14.5238 4.5 15.1 5.07792 15.1 5.77778H16.1C16.1 4.51396 15.0644 3.5 13.8 3.5V4.5ZM10.2 3.5C8.93562 3.5 7.9 4.51396 7.9 5.77778H8.9C8.9 5.07792 9.47616 4.5 10.2 4.5V3.5ZM2.83964 12.4736C6.3799 13.6723 9.16471 14.2772 11.976 14.2732C14.7864 14.2692 17.5867 13.6567 21.1571 12.4747L20.8429 11.5253C17.3189 12.692 14.6334 13.2694 11.9746 13.2732C9.31671 13.277 6.64873 12.7076 3.16036 11.5264L2.83964 12.4736Z" fill="#222222"/>
</svg>
