<svg width="24" height="24" viewBox="0 0 24 24" fill="none" xmlns="http://www.w3.org/2000/svg">
<mask id="path-1-inside-1_1203_2363" fill="white">
<path d="M9 5H7C6.46957 5 5.96086 5.21071 5.58579 5.58579C5.21071 5.96086 5 6.46957 5 7V19C5 19.5304 5.21071 20.0391 5.58579 20.4142C5.96086 20.7893 6.46957 21 7 21H17C17.5304 21 18.0391 20.7893 18.4142 20.4142C18.7893 20.0391 19 19.5304 19 19V7C19 6.46957 18.7893 5.96086 18.4142 5.58579C18.0391 5.21071 17.5304 5 17 5H15"/>
</mask>
<path d="M9 5.8C9.44183 5.8 9.8 5.44183 9.8 5C9.8 4.55817 9.44183 4.2 9 4.2V5.8ZM7 5V4.2V5ZM5 7H4.2H5ZM5 19H4.2H5ZM17 5V4.2V5ZM15 4.2C14.5582 4.2 14.2 4.55817 14.2 5C14.2 5.44183 14.5582 5.8 15 5.8V4.2ZM9 4.2H7V5.8H9V4.2ZM7 4.2C6.25739 4.2 5.5452 4.495 5.0201 5.0201L6.15147 6.15147C6.37652 5.92643 6.68174 5.8 7 5.8V4.2ZM5.0201 5.0201C4.495 5.5452 4.2 6.25739 4.2 7H5.8C5.8 6.68174 5.92643 6.37652 6.15147 6.15147L5.0201 5.0201ZM4.2 7V19H5.8V7H4.2ZM4.2 19C4.2 19.7426 4.495 20.4548 5.0201 20.9799L6.15147 19.8485C5.92643 19.6235 5.8 19.3183 5.8 19H4.2ZM5.0201 20.9799C5.5452 21.505 6.25739 21.8 7 21.8V20.2C6.68174 20.2 6.37652 20.0736 6.15147 19.8485L5.0201 20.9799ZM7 21.8H17V20.2H7V21.8ZM17 21.8C17.7426 21.8 18.4548 21.505 18.9799 20.9799L17.8485 19.8485C17.6235 20.0736 17.3183 20.2 17 20.2V21.8ZM18.9799 20.9799C19.505 20.4548 19.8 19.7426 19.8 19H18.2C18.2 19.3183 18.0736 19.6235 17.8485 19.8485L18.9799 20.9799ZM19.8 19V7H18.2V19H19.8ZM19.8 7C19.8 6.25739 19.505 5.5452 18.9799 5.0201L17.8485 6.15147C18.0736 6.37652 18.2 6.68174 18.2 7H19.8ZM18.9799 5.0201C18.4548 4.495 17.7426 4.2 17 4.2V5.8C17.3183 5.8 17.6235 5.92643 17.8485 6.15147L18.9799 5.0201ZM17 4.2H15V5.8H17V4.2Z" fill="#222222" mask="url(#path-1-inside-1_1203_2363)"/>
<path d="M11 3.4H13C13.8837 3.4 14.6 4.11634 14.6 5C14.6 5.88366 13.8837 6.6 13 6.6H11C10.1163 6.6 9.4 5.88366 9.4 5C9.4 4.11634 10.1163 3.4 11 3.4Z" stroke="#222222" stroke-width="0.8" stroke-linecap="round" stroke-linejoin="round"/>
<path d="M9 12H9.01" stroke="#222222" stroke-width="0.8" stroke-linecap="round" stroke-linejoin="round"/>
<path d="M12 12H15" stroke="#222222" stroke-width="0.8" stroke-linecap="round" stroke-linejoin="round"/>
<path d="M9 16H9.01" stroke="#222222" stroke-width="0.8" stroke-linecap="round" stroke-linejoin="round"/>
<path d="M12 16H15" stroke="#222222" stroke-width="0.8" stroke-linecap="round" stroke-linejoin="round"/>
</svg>
