<svg width="24" height="24" viewBox="0 0 24 24" fill="none" xmlns="http://www.w3.org/2000/svg">
<path d="M15.182 15.182L16.5 16.5M15.182 15.182C15.9963 14.3676 16.5 13.2426 16.5 12C16.5 9.51472 14.4853 7.5 12 7.5C9.51472 7.5 7.5 9.51472 7.5 12C7.5 14.4853 9.51472 16.5 12 16.5C13.2426 16.5 14.3676 15.9963 15.182 15.182ZM15.182 15.182L13.125 13.125M12 21C7.02944 21 3 16.9706 3 12C3 7.02944 7.02944 3 12 3C16.9706 3 21 7.02944 21 12C21 16.9706 16.9706 21 12 21Z" stroke="#222222" stroke-linecap="round"/>
</svg>
