<svg width="24" height="24" viewBox="0 0 24 24" fill="none" xmlns="http://www.w3.org/2000/svg">
<path d="M4.22521 17.5107H9.26637L9.14163 17.7335C8.97886 18.0172 8.8935 18.3387 8.89409 18.6657C8.89468 18.9928 8.9812 19.314 9.14498 19.5971C9.30877 19.8803 9.54407 20.1154 9.82731 20.279C10.1106 20.4425 10.4318 20.5288 10.7589 20.5292H19.1326C19.4604 20.5293 19.7824 20.4431 20.0662 20.2793C20.3501 20.1155 20.5858 19.8798 20.7498 19.596C20.9137 19.3122 21 18.9903 21 18.6625C21 18.3348 20.9138 18.0128 20.7499 17.729L16.5664 10.4691C16.5486 10.4401 16.5285 10.4156 16.5107 10.3867V5.22521C16.5101 4.90044 16.3808 4.58915 16.1512 4.35951C15.9215 4.12986 15.6102 4.00059 15.2855 4H4.22521C3.90026 4 3.58863 4.12908 3.35885 4.35885C3.12908 4.58863 3 4.90026 3 5.22521V16.2855C3 16.6104 3.12908 16.9221 3.35885 17.1518C3.58863 17.3816 3.90026 17.5107 4.22521 17.5107ZM20.1774 18.0565C20.2846 18.2393 20.3413 18.4473 20.3419 18.6593C20.3424 18.8712 20.2868 19.0795 20.1806 19.263C20.0744 19.4464 19.9214 19.5984 19.7373 19.7034C19.5532 19.8084 19.3446 19.8628 19.1326 19.8609H10.7589C10.5475 19.8616 10.3397 19.8064 10.1566 19.7009C9.9734 19.5953 9.82141 19.4433 9.71601 19.26C9.6106 19.0768 9.55552 18.869 9.55637 18.6576C9.55721 18.4462 9.61395 18.2388 9.72081 18.0565L13.911 10.8032C14.0162 10.621 14.1675 10.4696 14.3497 10.3644C14.5319 10.2591 14.7387 10.2037 14.9491 10.2037C15.1595 10.2037 15.3663 10.2591 15.5485 10.3644C15.7307 10.4696 15.882 10.621 15.9872 10.8032L20.1774 18.0565ZM11.5252 13.6012H7.06991C6.81949 13.5892 6.58329 13.4813 6.4103 13.2998C6.23731 13.1184 6.14081 12.8773 6.14081 12.6266C6.14081 12.3759 6.23731 12.1348 6.4103 11.9533C6.58329 11.7719 6.81949 11.6639 7.06991 11.652H12.4497C12.5164 11.6525 12.5828 11.66 12.6479 11.6742L11.5252 13.6012ZM12.12 4.66829V7.02515C12.1201 7.12047 12.0959 7.21425 12.0496 7.29758C12.0033 7.3809 11.9365 7.45101 11.8554 7.50123C11.7744 7.55145 11.6819 7.58012 11.5867 7.58452C11.4914 7.58892 11.3967 7.5689 11.3114 7.52637L10.3022 7.02515C10.132 6.94158 9.94495 6.89812 9.75534 6.89812C9.56574 6.89812 9.37865 6.94158 9.20846 7.02515L8.19933 7.52637C8.11402 7.5689 8.01925 7.58892 7.92403 7.58452C7.8288 7.58012 7.73628 7.55145 7.65526 7.50123C7.57423 7.45101 7.50739 7.3809 7.46109 7.29758C7.41478 7.21425 7.39055 7.12047 7.39069 7.02515V4.66829H12.12ZM3.66829 5.22521C3.66829 5.0775 3.72697 4.93585 3.83141 4.83141C3.93585 4.72697 4.0775 4.66829 4.22521 4.66829H6.7224V7.02515C6.72146 7.23538 6.77453 7.44234 6.87653 7.62617C6.97853 7.81001 7.12604 7.96457 7.30493 8.07503C7.48381 8.18549 7.68806 8.24815 7.89812 8.257C8.10817 8.26586 8.31697 8.22061 8.50452 8.1256L9.51587 7.62438C9.59303 7.58594 9.67805 7.56593 9.76425 7.56593C9.85046 7.56593 9.93548 7.58594 10.0126 7.62438L11.0218 8.1256C11.1889 8.20809 11.3723 8.25223 11.5586 8.25481C11.8844 8.25422 12.1966 8.1244 12.4267 7.89386C12.6568 7.66332 12.7861 7.35089 12.7861 7.02515V4.66829H15.2855C15.4332 4.66829 15.5748 4.72697 15.6793 4.83141C15.7837 4.93585 15.8424 5.0775 15.8424 5.22521V9.76293C15.5685 9.61589 15.2622 9.53933 14.9513 9.54016C14.6248 9.53919 14.3038 9.62461 14.021 9.78776C13.7381 9.9509 13.5034 10.186 13.3407 10.4691L12.991 11.075C12.817 11.0139 12.6341 10.9823 12.4497 10.9815H7.06769C6.64243 10.9971 6.23982 11.1771 5.94451 11.4834C5.64919 11.7898 5.48419 12.1988 5.48419 12.6243C5.48419 13.0499 5.64919 13.4588 5.94451 13.7652C6.23982 14.0716 6.64243 14.2516 7.06769 14.2672H11.1398L9.65176 16.8424H4.22521C4.0775 16.8424 3.93585 16.7837 3.83141 16.6793C3.72697 16.5748 3.66829 16.4332 3.66829 16.2855V5.22521ZM14.615 16.0516V11.9817C14.615 11.893 14.6502 11.8081 14.7128 11.7454C14.7755 11.6827 14.8605 11.6475 14.9491 11.6475C15.0377 11.6475 15.1227 11.6827 15.1854 11.7454C15.248 11.8081 15.2833 11.893 15.2833 11.9817V16.0516C15.2833 16.1402 15.248 16.2252 15.1854 16.2879C15.1227 16.3505 15.0377 16.3857 14.9491 16.3857C14.8605 16.3857 14.7755 16.3505 14.7128 16.2879C14.6502 16.2252 14.615 16.1402 14.615 16.0516ZM15.4548 17.9139C15.4552 18.0145 15.4258 18.113 15.3701 18.1969C15.3145 18.2808 15.2352 18.3462 15.1423 18.3849C15.0494 18.4236 14.9471 18.4339 14.8483 18.4144C14.7496 18.3948 14.6589 18.3464 14.5877 18.2753C14.5166 18.2041 14.4682 18.1134 14.4486 18.0147C14.4291 17.9159 14.4393 17.8136 14.4781 17.7207C14.5168 17.6278 14.5822 17.5485 14.6661 17.4929C14.75 17.4372 14.8485 17.4078 14.9491 17.4082C15.0827 17.4088 15.2106 17.462 15.3052 17.5562C15.3999 17.6504 15.4536 17.7781 15.4548 17.9117V17.9139Z" fill="#222222"/>
</svg>
