<svg width="24" height="24" viewBox="0 0 24 24" fill="none" xmlns="http://www.w3.org/2000/svg">
<path d="M14.3591 8.97455L14.2424 8.7397L11.6962 3.61876L11.696 3.61832C11.6757 3.57751 11.6419 3.54361 11.5993 3.52277L11.5987 3.52249C11.49 3.46928 11.3571 3.51441 11.3031 3.62033C11.303 3.62062 11.3028 3.6209 11.3027 3.62119L8.75773 8.7397L8.64096 8.97455L8.38137 9.01198L2.68554 9.8332L2.68435 9.83337C2.63757 9.84 2.59409 9.86179 2.56 9.89603C2.5204 9.93675 2.49929 9.99052 2.50002 10.0455C2.50076 10.1007 2.52355 10.1542 2.5647 10.194L2.56473 10.1941L6.68574 14.18L6.87591 14.3639L6.83081 14.6246L5.8572 20.253L5.85709 20.2536C5.85044 20.2917 5.85466 20.331 5.86943 20.3671C5.8842 20.4032 5.90911 20.435 5.94187 20.4586C5.97467 20.4822 6.01387 20.4965 6.05508 20.4994C6.09629 20.5024 6.13732 20.4937 6.17343 20.4748L6.1742 20.4744L11.2688 17.8171L11.5 17.6965L11.7313 17.8171L16.8259 20.4744L16.8281 20.4756C16.8673 20.4963 16.9166 20.5046 16.965 20.4962L16.9658 20.4961C17.0881 20.4752 17.1621 20.3633 17.143 20.2533L17.1429 20.253L16.1693 14.6246L16.1242 14.3639L16.3143 14.18L20.4344 10.195C20.4346 10.1948 20.4347 10.1947 20.4348 10.1945L14.3591 8.97455ZM14.3591 8.97455L14.6187 9.01198M14.3591 8.97455L14.6187 9.01198M11.8186 3.07345C11.9599 3.14244 12.0743 3.25594 12.1439 3.39615L11.8186 3.07345ZM11.8186 3.07345C11.4642 2.89986 11.0334 3.04452 10.8562 3.39615L11.8186 3.07345ZM14.6187 9.01198L20.313 9.83297L14.6187 9.01198Z" stroke="#222222"/>
</svg>
