<svg width="24" height="24" viewBox="0 0 24 24" fill="none" xmlns="http://www.w3.org/2000/svg">
<path d="M14.9182 16.5785L14.7646 16.4223L11.9408 13.5499L11.7685 13.3746L11.9407 13.1994L16.6068 8.45046C16.6808 8.37511 16.6808 8.25221 16.6049 8.17666L14.9182 16.5785ZM14.9182 16.5785L15.0932 16.4468M14.9182 16.5785L15.0932 16.4468M15.0932 16.4468C15.4906 16.1477 15.9794 15.9703 16.5088 15.9703C17.8146 15.9703 18.8811 17.0415 18.8811 18.3601C18.8811 19.6787 17.8146 20.75 16.5088 20.75C15.2029 20.75 14.1364 19.6787 14.1364 18.3601C14.1364 17.867 14.2864 17.4082 14.5423 17.0263L14.6557 16.8571L14.5129 16.7119L11.6793 13.8295L11.501 13.6481L11.3227 13.8295L8.48905 16.7119L8.34627 16.8571L8.45964 17.0263C8.71553 17.4082 8.86558 17.867 8.86558 18.3601C8.86558 19.6787 7.79903 20.75 6.4932 20.75C5.18713 20.75 4.12083 19.6805 4.12083 18.3621C4.12083 17.0435 5.18738 15.9723 6.4932 15.9723C7.02448 15.9723 7.51133 16.1496 7.90877 16.4488L8.08388 16.5806L8.23747 16.4242L11.0613 13.5498L11.2334 13.3746L11.0612 13.1994L6.39613 8.45148C6.39599 8.45135 6.39586 8.45121 6.39573 8.45107C6.32184 8.37452 6.32219 8.25309 6.39706 8.17665C6.47307 8.10295 6.59232 8.10523 6.66434 8.17858L6.66436 8.1786L11.3226 12.9216L11.501 13.1032M15.0932 16.4468L11.501 13.1032M11.501 13.1032L11.6794 12.9216L16.3376 8.1786L16.1593 8.00342M11.501 13.1032L16.1593 8.00342M16.1593 8.00342L16.3376 8.1786C16.4118 8.10309 16.531 8.1031 16.6049 8.17665L16.1593 8.00342ZM4.49956 18.3601C4.49956 19.4647 5.3919 20.3654 6.4932 20.3654C7.59451 20.3654 8.48685 19.4647 8.48685 18.3601C8.48685 17.2555 7.59451 16.3549 6.4932 16.3549C5.3919 16.3549 4.49956 17.2555 4.49956 18.3601ZM14.5171 18.3601C14.5171 19.4643 15.4071 20.3654 16.5088 20.3654C17.6079 20.3654 18.5024 19.4649 18.5024 18.3601C18.5024 17.2555 17.6101 16.3549 16.5088 16.3549C15.4093 16.3549 14.5171 17.2557 14.5171 18.3601Z" stroke="#222222" stroke-width="0.5"/>
<path d="M20 14.5308V6.21387C20 5.1093 19.1046 4.21387 18 4.21387H5C3.89543 4.21387 3 5.1093 3 6.21387V14.5308" stroke="#222222" stroke-width="0.7"/>
</svg>
