<svg width="24" height="24" viewBox="0 0 24 24" fill="none" xmlns="http://www.w3.org/2000/svg">
<path d="M12.7297 3C8.49707 3 5.00299 6.28137 4.52027 10.5H3L4.94595 13L6.89189 10.5H5.50084C5.97676 6.82805 9.02494 4 12.7297 4C16.7657 4 20.027 7.35197 20.027 11.5C20.027 15.648 16.7657 19 12.7297 19C10.085 19 7.77636 17.5658 6.49662 15.4062L5.69848 15.9688C7.15773 18.3873 9.76185 20 12.7297 20C17.2915 20 21 16.1885 21 11.5C21 6.81152 17.2915 3 12.7297 3ZM12.2432 7.5V11.5V11.7344L12.4257 11.8906L14.8581 13.8906L15.2382 14.2031L15.8463 13.4219L15.4662 13.1094L13.2162 11.2578V7.5" fill="#222222"/>
</svg>
