<svg width="24" height="24" viewBox="0 0 24 24" fill="none" xmlns="http://www.w3.org/2000/svg">
<path d="M8.42081 14.5668L8.98481 14.5878C9.03881 14.7588 9.10781 14.9238 9.18881 15.0828L8.80781 15.4968C8.69981 15.6138 8.70281 15.7998 8.81681 15.9138L9.71981 16.8168C9.83381 16.9308 10.0168 16.9338 10.1368 16.8258L10.5508 16.4448C10.7098 16.5258 10.8748 16.5948 11.0458 16.6488L11.0668 17.2128C11.0728 17.3748 11.2048 17.5008 11.3668 17.5008H12.6418C12.8038 17.5008 12.9358 17.3748 12.9418 17.2128L12.9628 16.6488C13.1338 16.5948 13.2988 16.5258 13.4578 16.4448L13.8718 16.8258C13.9888 16.9338 14.1748 16.9308 14.2888 16.8168L15.1918 15.9138C15.3058 15.7998 15.3088 15.6168 15.2008 15.4968L14.8198 15.0828C14.9008 14.9238 14.9698 14.7588 15.0238 14.5878L15.5878 14.5668C15.7498 14.5608 15.8758 14.4288 15.8758 14.2668V12.9918C15.8758 12.8298 15.7498 12.6978 15.5878 12.6918L15.0238 12.6708C14.9698 12.4998 14.9008 12.3348 14.8198 12.1758L15.2008 11.7618C15.3088 11.6448 15.3058 11.4588 15.1918 11.3448L14.2888 10.4418C14.1748 10.3278 13.9918 10.3248 13.8718 10.4328L13.4578 10.8138C13.2988 10.7328 13.1338 10.6638 12.9628 10.6098L12.9418 10.0458C12.9358 9.88381 12.8038 9.75781 12.6418 9.75781H11.3668C11.2048 9.75781 11.0728 9.88381 11.0668 10.0458L11.0458 10.6098C10.8748 10.6638 10.7098 10.7328 10.5508 10.8138L10.1368 10.4328C10.0198 10.3248 9.83381 10.3278 9.71981 10.4418L8.81681 11.3448C8.70281 11.4588 8.69981 11.6418 8.80781 11.7618L9.18881 12.1758C9.10781 12.3348 9.03881 12.4998 8.98481 12.6708L8.42081 12.6918C8.25881 12.6978 8.13281 12.8298 8.13281 12.9918V14.2668C8.13281 14.4288 8.26181 14.5608 8.42081 14.5668ZM8.73281 13.2798L9.22481 13.2618C9.35981 13.2558 9.47381 13.1628 9.50381 13.0308C9.56681 12.7698 9.66881 12.5208 9.80981 12.2898C9.88181 12.1758 9.86681 12.0288 9.77381 11.9298L9.43781 11.5668L9.93281 11.0718L10.2958 11.4078C10.3948 11.4978 10.5418 11.5128 10.6558 11.4438C10.8868 11.3028 11.1358 11.1978 11.3968 11.1378C11.5288 11.1078 11.6218 10.9908 11.6278 10.8588L11.6458 10.3668H12.3448L12.3628 10.8588C12.3688 10.9938 12.4618 11.1078 12.5938 11.1378C12.8548 11.2008 13.1038 11.3028 13.3348 11.4438C13.4488 11.5128 13.5958 11.5008 13.6948 11.4078L14.0578 11.0718L14.5528 11.5668L14.2168 11.9298C14.1268 12.0288 14.1118 12.1758 14.1808 12.2898C14.3218 12.5208 14.4268 12.7698 14.4868 13.0308C14.5168 13.1628 14.6338 13.2558 14.7658 13.2618L15.2578 13.2798V13.9788L14.7658 13.9968C14.6308 14.0028 14.5168 14.0958 14.4868 14.2278C14.4238 14.4888 14.3218 14.7378 14.1808 14.9688C14.1088 15.0828 14.1238 15.2298 14.2168 15.3288L14.5528 15.6918L14.0578 16.1868L13.6948 15.8508C13.5958 15.7608 13.4488 15.7458 13.3348 15.8148C13.1038 15.9558 12.8548 16.0608 12.5938 16.1208C12.4618 16.1508 12.3688 16.2678 12.3628 16.3998L12.3448 16.8918H11.6458L11.6278 16.3998C11.6218 16.2648 11.5288 16.1508 11.3968 16.1208C11.1358 16.0578 10.8868 15.9558 10.6558 15.8148C10.5418 15.7458 10.3948 15.7578 10.2958 15.8508L9.93281 16.1868L9.43781 15.6918L9.77381 15.3288C9.86381 15.2298 9.87881 15.0828 9.80981 14.9688C9.66881 14.7378 9.56381 14.4888 9.50381 14.2278C9.47381 14.0958 9.35681 14.0028 9.22481 13.9968L8.73281 13.9788V13.2798Z" fill="#222222" stroke="#222222" stroke-width="0.2"/>
<path d="M12.0001 15.2981C12.9211 15.2981 13.6711 14.5481 13.6711 13.6271C13.6711 12.7061 12.9211 11.9561 12.0001 11.9561C11.0791 11.9561 10.3291 12.7061 10.3291 13.6271C10.3291 14.5511 11.0791 15.2981 12.0001 15.2981ZM12.0001 12.5591C12.5911 12.5591 13.0711 13.0391 13.0711 13.6301C13.0711 14.2211 12.5911 14.7011 12.0001 14.7011C11.4091 14.7011 10.9291 14.2211 10.9291 13.6301C10.9291 13.0391 11.4091 12.5591 12.0001 12.5591Z" fill="#222222" stroke="#222222" stroke-width="0.2"/>
<path d="M6.18583 5.29297C5.55883 5.29297 5.04883 5.80297 5.04883 6.42997C5.04883 7.05697 5.55883 7.56697 6.18583 7.56697C6.81283 7.56697 7.32283 7.05697 7.32283 6.42997C7.32283 5.80297 6.81283 5.29297 6.18583 5.29297ZM6.18583 6.96697C5.88883 6.96697 5.64883 6.72697 5.64883 6.42997C5.64883 6.13297 5.88883 5.89297 6.18583 5.89297C6.48283 5.89297 6.72283 6.13297 6.72283 6.42997C6.72283 6.72697 6.48283 6.96697 6.18583 6.96697Z" fill="#222222" stroke="#222222" stroke-width="0.2"/>
<path d="M9.41971 5.29297C8.79271 5.29297 8.28271 5.80297 8.28271 6.42997C8.28271 7.05697 8.79271 7.56697 9.41971 7.56697C10.0467 7.56697 10.5567 7.05697 10.5567 6.42997C10.5567 5.80297 10.0467 5.29297 9.41971 5.29297ZM9.41971 6.96697C9.12271 6.96697 8.88271 6.72697 8.88271 6.42997C8.88271 6.13297 9.12271 5.89297 9.41971 5.89297C9.71671 5.89297 9.95671 6.13297 9.95671 6.42997C9.95671 6.72697 9.71371 6.96697 9.41971 6.96697Z" fill="#222222" stroke="#222222" stroke-width="0.2"/>
<path d="M18.9 4H5.1C3.942 4 3 4.942 3 6.1V16.9C3 18.058 3.942 19 5.1 19H18.9C20.058 19 21 18.058 21 16.9V6.1C21 4.942 20.058 4 18.9 4ZM20.4 16.9C20.4 17.728 19.728 18.4 18.9 18.4H5.1C4.272 18.4 3.6 17.728 3.6 16.9V8.857H20.4V16.9ZM20.4 8.257H3.6V6.1C3.6 5.272 4.272 4.6 5.1 4.6H18.9C19.728 4.6 20.4 5.272 20.4 6.1V8.257Z" fill="#222222" stroke="#222222" stroke-width="0.2"/>
</svg>
