<svg width="24" height="24" viewBox="0 0 24 24" fill="none" xmlns="http://www.w3.org/2000/svg">
<path d="M19 12.7778L19 16.6667C19 17.9553 17.9553 19 16.6667 19H7.33333C6.04467 19 5 17.9553 5 16.6667V7.33333C5 6.04467 6.04467 5 7.33333 5H11.2222M15.6504 6.2963L10.3998 11.5468C10.2565 11.6902 10.1588 11.8727 10.119 12.0715L9.81375 13.5979C9.74378 13.9478 10.0522 14.2562 10.4021 14.1862L11.9285 13.881C12.1273 13.8412 12.3098 13.7435 12.4532 13.6002L17.7037 8.34965M15.6504 6.2963L16.6459 5.30071C17.0469 4.89976 17.6969 4.89976 18.0979 5.30071L18.6993 5.90212C19.1002 6.30306 19.1002 6.95312 18.6993 7.35406L17.7037 8.34965M15.6504 6.2963L17.7037 8.34965" stroke="#222222" stroke-linecap="round" stroke-linejoin="round"/>
</svg>
