<svg width="24" height="24" viewBox="0 0 24 24" fill="none" xmlns="http://www.w3.org/2000/svg">
<path fill-rule="evenodd" clip-rule="evenodd" d="M15.6833 16.824C17.0506 16.824 18.288 16.2507 19.1835 15.3244C20.079 14.3981 20.6332 13.1173 20.6332 11.7038C20.6332 10.2896 20.079 9.00958 19.1835 8.0833C18.2879 7.15699 17.0505 6.58368 15.6833 6.58368C14.3161 6.58368 13.0786 7.15699 12.1832 8.0833C11.2876 9.0096 10.7334 10.2904 10.7334 11.7038C10.7334 13.1181 11.2876 14.3981 12.1832 15.3244C13.0794 16.2515 14.3168 16.824 15.6833 16.824ZM14.9506 8.71223H16.416C16.44 8.71223 16.4648 8.71456 16.4903 8.71844C16.6013 8.73551 16.7056 8.79059 16.7828 8.86895C16.8668 8.95428 16.92 9.06832 16.92 9.19555C16.92 9.21572 16.9185 9.23667 16.9155 9.25916L16.4828 12.2684C16.4633 12.4011 16.407 12.5252 16.3208 12.6144C16.2338 12.7044 16.119 12.7595 15.9833 12.7595H15.384C15.2475 12.7595 15.1328 12.7036 15.0465 12.6144C14.9603 12.5252 14.904 12.4011 14.8846 12.2684L14.4518 9.25916C14.4488 9.23667 14.4473 9.21572 14.4473 9.19555C14.4473 9.06832 14.5006 8.95506 14.5846 8.86972C14.6618 8.79059 14.7661 8.73628 14.877 8.71922C14.9018 8.71379 14.9266 8.71223 14.9506 8.71223ZM16.416 9.09081C16.4243 9.09081 16.431 9.09159 16.4378 9.09237C16.4723 9.0978 16.5038 9.11409 16.527 9.13814C16.5435 9.1552 16.554 9.17537 16.554 9.19477C16.554 9.19865 16.554 9.20175 16.5533 9.2033L16.1206 12.2125C16.1131 12.2661 16.092 12.3142 16.062 12.3452C16.0418 12.3662 16.0148 12.3801 15.9833 12.3801H15.384C15.3525 12.3801 15.3255 12.3669 15.3053 12.3452C15.2745 12.3134 15.2543 12.2661 15.2468 12.2125L14.8141 9.2033C14.8133 9.20098 14.8133 9.19787 14.8133 9.19477C14.8133 9.17538 14.8238 9.1552 14.8403 9.13814C14.8636 9.11409 14.8958 9.0978 14.9295 9.09237C14.9355 9.09159 14.943 9.09081 14.9513 9.09081H16.416ZM15.6833 14.3165C15.5686 14.3165 15.4651 14.2684 15.3901 14.1908C15.3151 14.1132 15.2686 14.0062 15.2686 13.8875C15.2686 13.7688 15.3151 13.6617 15.3901 13.5841C15.4651 13.5066 15.5686 13.4585 15.6833 13.4585C15.798 13.4585 15.9015 13.5066 15.9765 13.5841C16.0515 13.6617 16.098 13.7688 16.098 13.8875C16.098 14.0062 16.0515 14.1132 15.9765 14.1908C15.9015 14.2692 15.798 14.3165 15.6833 14.3165ZM16.236 14.4592C16.0943 14.6058 15.8993 14.6958 15.6833 14.6958C15.4681 14.6958 15.2723 14.6051 15.1306 14.4592C14.9888 14.3126 14.9018 14.1109 14.9018 13.8875C14.9018 13.664 14.9896 13.4623 15.1306 13.3157C15.2723 13.1691 15.4673 13.0791 15.6833 13.0791C15.8993 13.0791 16.0943 13.1699 16.236 13.3157C16.3778 13.4623 16.4648 13.664 16.4648 13.8875C16.4648 14.1109 16.377 14.3126 16.236 14.4592ZM15.6833 15.6671C14.6251 15.6671 13.6673 15.2234 12.9744 14.5065C12.2815 13.7897 11.8524 12.799 11.8524 11.7044C11.8524 10.6099 12.2814 9.61909 12.9744 8.90233C13.6674 8.18471 14.6259 7.74173 15.6833 7.74173C16.7415 7.74173 17.6993 8.18549 18.3922 8.90233C19.0851 9.61917 19.5142 10.6099 19.5142 11.7044C19.5142 12.799 19.0852 13.7898 18.3922 14.5065C17.6992 15.2233 16.7415 15.6671 15.6833 15.6671ZM18.6518 14.7742C17.8921 15.5601 16.8428 16.0457 15.6841 16.0457C14.5253 16.0457 13.4753 15.5601 12.7163 14.7742C11.9566 13.9883 11.4871 12.903 11.4871 11.7044C11.4871 10.5058 11.9566 9.41963 12.7163 8.63455C13.4761 7.84868 14.5253 7.36303 15.6841 7.36303C16.8428 7.36303 17.8928 7.84868 18.6518 8.63455C19.4115 9.42043 19.881 10.5058 19.881 11.7044C19.881 12.903 19.4115 13.9883 18.6518 14.7742ZM7.95456 18.3498H3.36673V3.3785H14.9789V6.2521C13.7924 6.41502 12.7296 6.98135 11.9241 7.81456C10.9619 8.8099 10.3671 10.1847 10.3671 11.7028C10.3671 12.9674 10.7796 14.1317 11.4734 15.0604L11.0369 15.5119L10.6911 15.1543C10.6199 15.0806 10.5036 15.0806 10.4324 15.1543L9.77314 15.8362C9.70189 15.9099 9.70189 16.0301 9.77314 16.1039L9.96289 16.3001L7.97991 18.3521C7.97166 18.3506 7.96355 18.3498 7.95456 18.3498ZM11.7076 15.3553C11.7773 15.4368 11.8501 15.5159 11.9243 15.5927C12.1036 15.7781 12.2948 15.9503 12.4981 16.107L12.0541 16.5663L11.2951 15.7812L11.7076 15.3553ZM12.8033 16.3274C13.4461 16.7572 14.1848 17.0465 14.9783 17.1551V18.3499H11.16L11.5515 17.9449L11.7412 18.1412C11.8125 18.2149 11.9287 18.2149 12 18.1412L12.6593 17.4592C12.7305 17.3855 12.7305 17.2653 12.6593 17.1916L12.3135 16.8339L12.8033 16.3274ZM15.345 17.1924V18.54C15.345 18.6447 15.2633 18.7292 15.162 18.7292H10.7932L8.92574 20.661C8.7075 20.8867 8.4195 21 8.1315 21C7.8435 21 7.5555 20.8867 7.33725 20.661C7.11901 20.4352 7.00951 20.1373 7.00951 19.8394C7.00951 19.5415 7.11901 19.2436 7.33725 19.0179L7.6155 18.73L3.183 18.7293C3.08175 18.7293 3 18.6447 3 18.54V3.18929C3 3.08456 3.08175 3 3.183 3H15.1613C15.2625 3 15.3443 3.08456 15.3443 3.18929V6.21562C15.456 6.20863 15.5693 6.20475 15.6825 6.20475C17.1503 6.20475 18.4799 6.81997 19.4423 7.81531C20.4045 8.81065 21 10.1854 21 11.7036C21 13.2218 20.4045 14.5972 19.443 15.5918C18.4808 16.5872 17.1517 17.2024 15.6833 17.2024C15.57 17.2032 15.4567 17.1994 15.345 17.1924ZM10.2937 16.1078L10.1617 15.9713L10.5614 15.5578L12.2707 17.3258L11.8709 17.7393L11.7389 17.6028C11.7299 17.5756 11.7157 17.5508 11.6947 17.5291L10.3649 16.1536C10.3432 16.1319 10.3192 16.1171 10.2937 16.1078ZM11.2927 17.6773L8.66689 20.3926C8.51989 20.5446 8.32565 20.6206 8.13139 20.6206C7.93714 20.6206 7.74289 20.5446 7.59588 20.3926C7.44888 20.2405 7.37539 20.0396 7.37539 19.8386C7.37539 19.6377 7.44889 19.4368 7.59588 19.2847L10.2209 16.5694L11.2927 17.6773ZM5.14044 14.3405H9.73345C9.8347 14.3405 9.91645 14.256 9.91645 14.1512C9.91645 14.0465 9.8347 13.9619 9.73345 13.9619L5.14044 13.9612C5.03919 13.9612 4.95744 14.0457 4.95744 14.1504C4.95744 14.2552 5.03919 14.3405 5.14044 14.3405ZM5.14044 12.7369H9.33736C9.4386 12.7369 9.52036 12.6524 9.52036 12.5477C9.52036 12.4429 9.43861 12.3584 9.33736 12.3584L5.14044 12.3576C5.03919 12.3576 4.95744 12.4421 4.95744 12.5469C4.95744 12.6516 5.03919 12.7369 5.14044 12.7369ZM5.14044 11.1326H9.32775C9.429 11.1326 9.51075 11.048 9.51075 10.9433C9.51075 10.8386 9.429 10.754 9.32775 10.754H5.14044C5.03919 10.754 4.95744 10.8386 4.95744 10.9433C4.95744 11.048 5.03919 11.1326 5.14044 11.1326ZM5.14044 9.52904H9.70196C9.80321 9.52904 9.88496 9.44448 9.88496 9.33975C9.88496 9.23502 9.80321 9.15046 9.70196 9.15046L5.14044 9.14968C5.03919 9.14968 4.95744 9.23424 4.95744 9.33897C4.95744 9.44448 5.03919 9.52904 5.14044 9.52904ZM5.14044 7.92548C5.03919 7.92548 4.95744 7.84091 4.95744 7.73618C4.95744 7.63145 5.03919 7.54689 5.14044 7.54689H10.5554C10.6566 7.54689 10.7384 7.63145 10.7384 7.73618C10.7384 7.84091 10.6567 7.92548 10.5554 7.92548H5.14044ZM5.14044 6.32191H12.2677C12.3689 6.32191 12.4506 6.23735 12.4506 6.13262C12.4506 6.02789 12.3689 5.94332 12.2677 5.94332L5.14044 5.94255C5.03919 5.94255 4.95744 6.02711 4.95744 6.13184C4.95744 6.23657 5.03919 6.32191 5.14044 6.32191Z" fill="#222222" stroke="#222222" stroke-width="0.4"/>
</svg>
