<svg xmlns="http://www.w3.org/2000/svg" version="1.1" xmlns:xlink="http://www.w3.org/1999/xlink" width="512" height="512" x="0" y="0" viewBox="0 0 32 32" style="enable-background:new 0 0 512 512" xml:space="preserve" class=""><g><path d="m27.5 10.9-6.4-6.4c-.4-.4-1-.4-1.4 0L7 17.2c-.1.1-.2.3-.3.4l-2.5 8.8c-.1.3 0 .7.3 1 .4.4.9.3 1 .3l8.8-2.5c.2 0 .3-.1.4-.3l12.7-12.7c.7-.5.3-1.1.1-1.3zM14.8 22.1l-5-5 7.8-7.8 5 4.9zm-6.3-3.4 4.8 4.8-6.7 1.9zM24 12.9 19 8l1.4-1.4 5 4.9z" fill="#666666" opacity="1" data-original="#000000" class=""></path></g></svg>