<svg height="512" viewBox="0 0 24 24" width="512" xmlns="http://www.w3.org/2000/svg"><g id="Layer_2" data-name="Layer 2"><rect fill="#fff" height="19.5" rx="1.75" width="6.5" x="8.75" y="2.25"/><rect fill="#3e96ed" height="14.5" rx="1.75" width="6.5" x="16.25" y="7.25"/><rect fill="#8dd1ff" height="15.5" rx="1.75" width="6.5" x="1.25" y="6.25"/><g fill="#004fac"><path d="m13.5 21.75h-3a1.752 1.752 0 0 1 -1.75-1.75v-16a1.752 1.752 0 0 1 1.75-1.75h3a1.752 1.752 0 0 1 1.75 1.75v16a1.752 1.752 0 0 1 -1.75 1.75zm-3-18a.25.25 0 0 0 -.25.25v16a.25.25 0 0 0 .25.25h3a.25.25 0 0 0 .25-.25v-16a.25.25 0 0 0 -.25-.25z"/><path d="m21 21.75h-3a1.752 1.752 0 0 1 -1.75-1.75v-11a1.752 1.752 0 0 1 1.75-1.75h3a1.752 1.752 0 0 1 1.75 1.75v11a1.752 1.752 0 0 1 -1.75 1.75zm-3-13a.25.25 0 0 0 -.25.25v11a.25.25 0 0 0 .25.25h3a.25.25 0 0 0 .25-.25v-11a.25.25 0 0 0 -.25-.25z"/><path d="m6 21.75h-3a1.752 1.752 0 0 1 -1.75-1.75v-12a1.752 1.752 0 0 1 1.75-1.75h3a1.752 1.752 0 0 1 1.75 1.75v12a1.752 1.752 0 0 1 -1.75 1.75zm-3-14a.25.25 0 0 0 -.25.25v12a.25.25 0 0 0 .25.25h3a.25.25 0 0 0 .25-.25v-12a.25.25 0 0 0 -.25-.25z"/></g></g></svg>