<svg xmlns="http://www.w3.org/2000/svg" version="1.1" xmlns:xlink="http://www.w3.org/1999/xlink" width="512" height="512" x="0" y="0" viewBox="0 0 24 24" style="enable-background:new 0 0 512 512" xml:space="preserve" class=""><g><g data-name="Layer 2"><path fill="#eeeeee" d="M12 2a10 10 0 0 0-7.62 16.48l-1.23 2A1 1 0 0 0 4 22h8a10 10 0 0 0 0-20z" opacity="1" data-original="#8dd1ff" class=""></path><g fill="#0c5dad"><path d="M12 22H4a1 1 0 0 1-.85-1.53l1.23-2A10 10 0 1 1 12 22zm-6.2-2H12a8 8 0 1 0-5.66-2.34 1 1 0 0 1 .15 1.23z" fill="#aaaaaa" opacity="1" data-original="#0c5dad" class=""></path><path d="M13 11H9a1 1 0 0 1 0-2h4a1 1 0 0 1 0 2zM15 15H9a1 1 0 0 1 0-2h6a1 1 0 0 1 0 2z" fill="#aaaaaa" opacity="1" data-original="#0c5dad" class=""></path></g></g></g></svg>