<svg height="512" viewBox="0 0 24 24" width="512" xmlns="http://www.w3.org/2000/svg"><g id="Layer_2" data-name="Layer 2"><path d="m3.333 21.667a1 1 0 0 1 -.707-1.707l5.417-5.417a1 1 0 0 1 1.414 1.414l-5.416 5.417a.994.994 0 0 1 -.708.293z" fill="#004fac"/><path d="m15.48 3.2a.682.682 0 0 0 -.5-.2.689.689 0 0 0 -.49.213 19.513 19.513 0 0 1 -5.135 3.853 19.473 19.473 0 0 1 -5.779 1.926.691.691 0 0 0 -.374 1.17l10.636 10.638a.691.691 0 0 0 1.17-.375 19.533 19.533 0 0 1 5.779-10.918.691.691 0 0 0 .013-.987z" fill="#8dd1ff"/><path d="m15.25 22.5a.744.744 0 0 1 -.53-.22l-13-13a.75.75 0 0 1 1.06-1.06l13 13a.75.75 0 0 1 -.53 1.28z" fill="#8dd1ff"/><g fill="#004fac"><path d="m21.75 10.222a.744.744 0 0 1 -.53-.22l-7.22-7.222a.75.75 0 0 1 1.061-1.06l7.219 7.222a.75.75 0 0 1 -.53 1.28z"/><path d="m15.25 22.5a.744.744 0 0 1 -.53-.22l-13-13a.75.75 0 0 1 1.06-1.06l13 13a.75.75 0 0 1 -.53 1.28z"/><path d="m14.527 21.778a.749.749 0 0 1 -.53-.22l-11.555-11.558a.75.75 0 0 1 .407-1.27 21.216 21.216 0 0 0 6.278-2.09 21.192 21.192 0 0 0 5.581-4.186.75.75 0 0 1 .533-.232.694.694 0 0 1 .539.22l5.778 5.778a.751.751 0 0 1 -.012 1.072 21.208 21.208 0 0 0 -6.278 11.859.753.753 0 0 1 -.741.627zm-10.033-11.844 9.572 9.572a22.708 22.708 0 0 1 5.9-10.759l-4.713-4.711a22.68 22.68 0 0 1 -5.436 3.936 22.731 22.731 0 0 1 -5.323 1.962z"/></g></g></svg>