<svg xmlns="http://www.w3.org/2000/svg" version="1.1" xmlns:xlink="http://www.w3.org/1999/xlink" width="512" height="512" x="0" y="0" viewBox="0 0 32 32" style="enable-background:new 0 0 512 512" xml:space="preserve" class=""><g><path d="M27 6h-7V3a1 1 0 0 0-1-1h-6a1 1 0 0 0-1 1v3H5a1 1 0 0 0-1 1v4a1 1 0 0 0 1 1h1.067l1.185 17.07a1.001 1.001 0 0 0 .998.93h15.5a1.001 1.001 0 0 0 .998-.93L25.933 12H27a1 1 0 0 0 1-1V7a1 1 0 0 0-1-1zM14 4h4v2h-4zm8.817 24H9.183l-1.11-16h15.855zM26 10H6V8h20z" fill="#666666" opacity="1" data-original="#000000" class=""></path></g></svg>