<svg xmlns="http://www.w3.org/2000/svg" version="1.1" xmlns:xlink="http://www.w3.org/1999/xlink" width="512" height="512" x="0" y="0" viewBox="0 0 24 24" style="enable-background:new 0 0 512 512" xml:space="preserve" class=""><g><g data-name="Layer 2"><path fill="#eeeeee" d="m22.284 10.335-3.053-2.774a10.7 10.7 0 0 0-14.462 0l-3.053 2.774a2.251 2.251 0 0 0 0 3.33l3.053 2.774a10.7 10.7 0 0 0 14.462 0l3.053-2.774a2.251 2.251 0 0 0 0-3.33z" opacity="1" data-original="#8dd1ff" class=""></path><path fill="#ffffff" d="M15.386 9.873a.754.754 0 0 0-.631.122A1.249 1.249 0 0 1 12.75 9a.94.94 0 0 1 .036-.277.764.764 0 0 0-.147-.667A.815.815 0 0 0 12 7.75 4.25 4.25 0 1 0 16.25 12a4.056 4.056 0 0 0-.37-1.717.75.75 0 0 0-.494-.41z" opacity="1" data-original="#ffffff" class=""></path><g fill="#004fac"><path d="M12 19.25a10.721 10.721 0 0 1-7.231-2.81l-3.053-2.775a2.251 2.251 0 0 1 0-3.33L4.769 7.56a10.706 10.706 0 0 1 14.462 0l3.053 2.775a2.251 2.251 0 0 1 0 3.33l-3.053 2.775A10.726 10.726 0 0 1 12 19.25zm0-13a9.229 9.229 0 0 0-6.222 2.42l-3.053 2.775a.75.75 0 0 0 0 1.11l3.053 2.775a9.212 9.212 0 0 0 12.444 0l3.053-2.775a.751.751 0 0 0 0-1.11L18.222 8.67A9.227 9.227 0 0 0 12 6.251z" fill="#aaaaaa" opacity="1" data-original="#004fac" class=""></path><path d="M12 16.25a4.25 4.25 0 0 1 0-8.5.815.815 0 0 1 .639.306.765.765 0 0 1 .147.667.936.936 0 0 0-.036.277 1.25 1.25 0 0 0 2.005 1 .751.751 0 0 1 1.124.287A4.035 4.035 0 0 1 16.25 12 4.255 4.255 0 0 1 12 16.25zm-.727-6.892A2.746 2.746 0 1 0 14.75 12a2.857 2.857 0 0 0-.021-.349 2.7 2.7 0 0 1-.729.1 2.755 2.755 0 0 1-2.727-2.393z" fill="#aaaaaa" opacity="1" data-original="#004fac" class=""></path></g></g></g></svg>