<?xml version="1.0" encoding="UTF-8"?><svg id="Layer_1" xmlns="http://www.w3.org/2000/svg" viewBox="0 0 1184.93 883"><defs><style>.cls-1{fill:#98a4b4;}.cls-2{fill:#d1d8e1;}</style></defs><path id="Bg-16" class="cls-1" d="M10.68,0h1163.58c5.9,0,10.68,5.34,10.68,11.93v859.14c0,6.59-4.78,11.93-10.68,11.93H10.68c-5.9,0-10.68-5.34-10.68-11.93V11.93C0,5.34,4.78,0,10.68,0Z"/><path id="Path_5200-5" class="cls-2" d="M721.01,357.46h-208.62c-2.01-.05-3.69,1.52-3.73,3.49,0,.06,0,.12,0,.17v161.23c-.05,1.98,1.54,3.62,3.56,3.66.06,0,.12,0,.18,0h208.62c2.01.05,3.69-1.52,3.73-3.49,0-.06,0-.12,0-.17v-161.23c.05-1.98-1.54-3.62-3.56-3.66-.06,0-.12,0-.18,0ZM717.27,518.68h-201.15v-153.9h201.14v153.9ZM568.14,438.59c11.49,0,20.81-9.14,20.81-20.41s-9.32-20.41-20.81-20.41-20.81,9.14-20.81,20.41c.2,11.19,9.4,20.22,20.81,20.41ZM568.14,405.09c7.35.03,13.3,5.87,13.33,13.08.07,7.16-5.78,13.02-13.08,13.09-.09,0-.17,0-.26,0-7.35-.03-13.31-5.87-13.34-13.09.11-7.18,6.02-12.98,13.34-13.09h0ZM534.8,504.03c.87.02,1.72-.26,2.4-.79l60.83-52.61,38.42,37.69c1.45,1.47,3.84,1.5,5.33.07,1.49-1.42,1.53-3.77.08-5.23-.02-.02-.05-.05-.08-.07l-17.88-17.54,34.15-36.9,41.88,37.69c1.55,1.37,3.94,1.26,5.34-.26,1.4-1.52,1.28-3.86-.27-5.23l-44.82-40.05c-.69-.72-1.67-1.1-2.67-1.05-1.04.05-2.01.52-2.67,1.31l-36.55,39.26-17.62-17.28c-1.41-1.25-3.53-1.36-5.07-.26l-63.48,54.97c-1.54,1.37-1.66,3.72-.27,5.23.86.62,1.87.98,2.93,1.06Z"/></svg>