<svg width="143" height="40" viewBox="0 0 143 40" fill="none" xmlns="http://www.w3.org/2000/svg">
<rect width="40" height="40" rx="20" fill="#1D4FD7"/>
<path d="M31.2503 20L25.6253 10.25H19.2381L17.1831 13.8125H23.5679L27.1375 20L23.5679 26.1875H17.1831L19.2381 29.75H25.6253L31.2503 20Z" fill="white"/>
<path d="M16.4328 26.1875L12.8628 20L16.4328 13.8125L18.4878 10.25H14.375L8.75 20L14.375 29.75H18.4878L16.4328 26.1875Z" fill="white"/>
<path d="M53.74 7H57.76V24.28H68.35V28H53.74V7ZM80.9212 6.55C84.0812 6.55 86.6912 7.6 88.7512 9.7C90.8512 11.76 91.9012 14.36 91.9012 17.5C91.9012 20.62 90.8512 23.23 88.7512 25.33C86.6712 27.41 84.0612 28.45 80.9212 28.45C77.8212 28.45 75.2112 27.41 73.0912 25.33C71.0112 23.21 69.9712 20.6 69.9712 17.5C69.9712 14.38 71.0112 11.78 73.0912 9.7C75.1912 7.6 77.8012 6.55 80.9212 6.55ZM76.0912 12.46C74.8112 13.8 74.1712 15.48 74.1712 17.5C74.1712 19.52 74.8112 21.2 76.0912 22.54C77.3712 23.88 78.9812 24.55 80.9212 24.55C82.8612 24.55 84.4712 23.88 85.7512 22.54C87.0512 21.18 87.7012 19.5 87.7012 17.5C87.7012 15.5 87.0512 13.82 85.7512 12.46C84.4512 11.1 82.8412 10.42 80.9212 10.42C79.0012 10.42 77.3912 11.1 76.0912 12.46ZM105.959 6.55C108.159 6.55 110.139 7.09 111.899 8.17C113.639 9.21 114.969 10.64 115.889 12.46L111.989 13.93C111.389 12.83 110.559 11.97 109.499 11.35C108.439 10.73 107.259 10.42 105.959 10.42C103.979 10.42 102.329 11.1 101.009 12.46C99.689 13.82 99.029 15.5 99.029 17.5C99.029 19.52 99.669 21.2 100.949 22.54C102.229 23.88 103.799 24.55 105.659 24.55C107.079 24.55 108.379 24.14 109.559 23.32C110.719 22.52 111.529 21.44 111.989 20.08H105.359V16.42H116.549C116.589 17.02 116.609 17.37 116.609 17.47C116.609 20.55 115.569 23.16 113.489 25.3C111.429 27.4 108.839 28.45 105.719 28.45C102.619 28.45 100.029 27.41 97.949 25.33C95.869 23.21 94.829 20.6 94.829 17.5C94.829 14.36 95.889 11.76 98.009 9.7C100.129 7.6 102.779 6.55 105.959 6.55ZM130.49 6.55C133.65 6.55 136.26 7.6 138.32 9.7C140.42 11.76 141.47 14.36 141.47 17.5C141.47 20.62 140.42 23.23 138.32 25.33C136.24 27.41 133.63 28.45 130.49 28.45C127.39 28.45 124.78 27.41 122.66 25.33C120.58 23.21 119.54 20.6 119.54 17.5C119.54 14.38 120.58 11.78 122.66 9.7C124.76 7.6 127.37 6.55 130.49 6.55ZM125.66 12.46C124.38 13.8 123.74 15.48 123.74 17.5C123.74 19.52 124.38 21.2 125.66 22.54C126.94 23.88 128.55 24.55 130.49 24.55C132.43 24.55 134.04 23.88 135.32 22.54C136.62 21.18 137.27 19.5 137.27 17.5C137.27 15.5 136.62 13.82 135.32 12.46C134.02 11.1 132.41 10.42 130.49 10.42C128.57 10.42 126.96 11.1 125.66 12.46Z" fill="#222222"/>
</svg>
