<svg width="24" height="20" viewBox="0 0 24 20" fill="none" xmlns="http://www.w3.org/2000/svg">
<mask id="path-1-inside-1_3709_9906" fill="white">
<path d="M18.9925 4H5.00753C3.89838 4 3 4.97886 3 6.18737V14.8126C3 16.0211 3.89838 17 5.00753 17H18.9925C20.1016 17 21 16.0211 21 14.8126V6.18737C21 5.60774 20.7892 5.0513 20.4128 4.64116C20.0364 4.23102 19.5257 4 18.9925 4ZM20.3313 14.8126C20.3313 15.1995 20.1907 15.5714 19.9398 15.8448C19.6888 16.1182 19.3475 16.2713 18.9925 16.2713H5.00753C4.2685 16.2713 3.66875 15.6179 3.66875 14.8126V6.18737C3.66875 5.38214 4.2685 4.72866 5.00753 4.72866H18.9925C19.3476 4.72866 19.6888 4.88314 19.9398 5.15658C20.1907 5.43001 20.3313 5.80047 20.3313 6.18737V14.8126ZM18.4279 6.38021L14.0778 10.4995L18.4279 14.6226V14.624C18.5671 14.7552 18.5822 14.9849 18.4605 15.138C18.3965 15.2173 18.3036 15.2624 18.207 15.261C18.1267 15.261 18.0502 15.231 17.9887 15.1735L13.5696 10.9846L13.0037 11.5178C12.424 12.0523 11.5759 12.0523 10.9962 11.5178L10.4341 10.986L6.01107 15.1735C5.94959 15.2309 5.87305 15.261 5.79275 15.261C5.69614 15.2624 5.60329 15.2173 5.5393 15.138C5.4176 14.9849 5.43265 14.7552 5.57193 14.6239L9.922 10.5008L5.57193 6.38154V6.38018C5.43893 6.24757 5.42763 6.02201 5.54683 5.87435C5.66477 5.72534 5.87054 5.7062 6.01107 5.8306L11.434 10.9669C11.7589 11.2731 12.2407 11.2731 12.5657 10.9669L17.9886 5.8306C18.1291 5.7062 18.3349 5.72534 18.4528 5.87435C18.572 6.022 18.5609 6.24761 18.4279 6.38021Z"/>
</mask>
<path d="M18.9925 4H5.00753C3.89838 4 3 4.97886 3 6.18737V14.8126C3 16.0211 3.89838 17 5.00753 17H18.9925C20.1016 17 21 16.0211 21 14.8126V6.18737C21 5.60774 20.7892 5.0513 20.4128 4.64116C20.0364 4.23102 19.5257 4 18.9925 4ZM20.3313 14.8126C20.3313 15.1995 20.1907 15.5714 19.9398 15.8448C19.6888 16.1182 19.3475 16.2713 18.9925 16.2713H5.00753C4.2685 16.2713 3.66875 15.6179 3.66875 14.8126V6.18737C3.66875 5.38214 4.2685 4.72866 5.00753 4.72866H18.9925C19.3476 4.72866 19.6888 4.88314 19.9398 5.15658C20.1907 5.43001 20.3313 5.80047 20.3313 6.18737V14.8126ZM18.4279 6.38021L14.0778 10.4995L18.4279 14.6226V14.624C18.5671 14.7552 18.5822 14.9849 18.4605 15.138C18.3965 15.2173 18.3036 15.2624 18.207 15.261C18.1267 15.261 18.0502 15.231 17.9887 15.1735L13.5696 10.9846L13.0037 11.5178C12.424 12.0523 11.5759 12.0523 10.9962 11.5178L10.4341 10.986L6.01107 15.1735C5.94959 15.2309 5.87305 15.261 5.79275 15.261C5.69614 15.2624 5.60329 15.2173 5.5393 15.138C5.4176 14.9849 5.43265 14.7552 5.57193 14.6239L9.922 10.5008L5.57193 6.38154V6.38018C5.43893 6.24757 5.42763 6.02201 5.54683 5.87435C5.66477 5.72534 5.87054 5.7062 6.01107 5.8306L11.434 10.9669C11.7589 11.2731 12.2407 11.2731 12.5657 10.9669L17.9886 5.8306C18.1291 5.7062 18.3349 5.72534 18.4528 5.87435C18.572 6.022 18.5609 6.24761 18.4279 6.38021Z" fill="#3276FA"/>
<path d="M18.4279 6.38021L19.1154 7.10632L19.1248 7.09746L19.1339 7.08836L18.4279 6.38021ZM14.0778 10.4995L13.3902 9.77337L12.6238 10.4991L13.3899 11.2253L14.0778 10.4995ZM18.4279 14.6226H19.4279V14.1926L19.1158 13.8968L18.4279 14.6226ZM18.4279 14.624H17.4279V15.0557L17.742 15.3517L18.4279 14.624ZM18.4605 15.138L19.2387 15.766L19.2434 15.7602L18.4605 15.138ZM18.207 15.261L18.2212 14.2611L18.2141 14.261H18.207V15.261ZM17.9887 15.1735L17.3007 15.8993L17.3062 15.9044L17.9887 15.1735ZM13.5696 10.9846L14.2575 10.2589L13.5716 9.60874L12.8838 10.2568L13.5696 10.9846ZM13.0037 11.5178L13.6816 12.253L13.6895 12.2456L13.0037 11.5178ZM10.9962 11.5178L10.3089 12.2443L10.3183 12.253L10.9962 11.5178ZM10.4341 10.986L11.1213 10.2596L10.4338 9.60916L9.74655 10.2598L10.4341 10.986ZM6.01107 15.1735L6.69363 15.9044L6.69859 15.8997L6.01107 15.1735ZM5.79275 15.261V14.261H5.78568L5.7786 14.2611L5.79275 15.261ZM5.5393 15.138L4.75646 15.7602L4.76111 15.766L5.5393 15.138ZM5.57193 14.6239L6.25775 15.3517L6.25984 15.3497L5.57193 14.6239ZM9.922 10.5008L10.6099 11.2266L11.376 10.5005L10.6096 9.7747L9.922 10.5008ZM5.57193 6.38154H4.57193V6.81181L4.88434 7.10765L5.57193 6.38154ZM5.57193 6.38018H6.57193V5.96511L6.278 5.67204L5.57193 6.38018ZM5.54683 5.87435L6.32497 6.50252L6.33094 6.49497L5.54683 5.87435ZM6.01107 5.8306L6.69873 5.10457L6.68652 5.09301L6.67393 5.08186L6.01107 5.8306ZM11.434 10.9669L10.7463 11.6929L10.7482 11.6947L11.434 10.9669ZM12.5657 10.9669L13.2515 11.6947L13.2534 11.6929L12.5657 10.9669ZM17.9886 5.8306L17.3257 5.08186L17.3132 5.09301L17.3009 5.10457L17.9886 5.8306ZM18.4528 5.87435L17.6687 6.49501L17.6748 6.5025L18.4528 5.87435ZM18.9925 3H5.00753V5H18.9925V3ZM5.00753 3C3.26706 3 2 4.50907 2 6.18737H4C4 5.44865 4.5297 5 5.00753 5V3ZM2 6.18737V14.8126H4V6.18737H2ZM2 14.8126C2 16.4909 3.26706 18 5.00753 18V16C4.5297 16 4 15.5514 4 14.8126H2ZM5.00753 18H18.9925V16H5.00753V18ZM18.9925 18C20.7329 18 22 16.4909 22 14.8126H20C20 15.5514 19.4703 16 18.9925 16V18ZM22 14.8126V6.18737H20V14.8126H22ZM22 6.18737C22 5.3697 21.7035 4.56854 21.1496 3.96501L19.676 5.31732C19.875 5.53407 20 5.84577 20 6.18737H22ZM21.1496 3.96501C20.5938 3.35947 19.8204 3 18.9925 3V5C19.2311 5 19.479 5.10257 19.676 5.31732L21.1496 3.96501ZM19.3313 14.8126C19.3313 14.9623 19.276 15.0891 19.2031 15.1686L20.6765 16.521C21.1055 16.0536 21.3313 15.4368 21.3313 14.8126H19.3313ZM19.2031 15.1686C19.1329 15.245 19.055 15.2713 18.9925 15.2713V17.2713C19.6401 17.2713 20.2447 16.9913 20.6765 16.521L19.2031 15.1686ZM18.9925 15.2713H5.00753V17.2713H18.9925V15.2713ZM5.00753 15.2713C4.89982 15.2713 4.66875 15.1481 4.66875 14.8126H2.66875C2.66875 16.0876 3.63718 17.2713 5.00753 17.2713V15.2713ZM4.66875 14.8126V6.18737H2.66875V14.8126H4.66875ZM4.66875 6.18737C4.66875 5.85193 4.89982 5.72866 5.00753 5.72866V3.72866C3.63718 3.72866 2.66875 4.91235 2.66875 6.18737H4.66875ZM5.00753 5.72866H18.9925V3.72866H5.00753V5.72866ZM18.9925 5.72866C19.0526 5.72866 19.1311 5.75443 19.203 5.83271L20.6766 4.48045C20.2465 4.01186 19.6426 3.72866 18.9925 3.72866V5.72866ZM19.203 5.83271C19.2766 5.91294 19.3313 6.03875 19.3313 6.18737H21.3313C21.3313 5.56219 21.1048 4.94709 20.6766 4.48045L19.203 5.83271ZM19.3313 6.18737V14.8126H21.3313V6.18737H19.3313ZM17.7403 5.6541L13.3902 9.77337L14.7654 11.2256L19.1154 7.10632L17.7403 5.6541ZM13.3899 11.2253L17.7399 15.3484L19.1158 13.8968L14.7657 9.77369L13.3899 11.2253ZM17.4279 14.6226V14.624H19.4279V14.6226H17.4279ZM17.742 15.3517C17.4929 15.117 17.4848 14.7585 17.6776 14.5158L19.2434 15.7602C19.6796 15.2112 19.6413 14.3934 19.1137 13.8962L17.742 15.3517ZM17.6823 14.51C17.7988 14.3656 17.9912 14.2579 18.2212 14.2611L18.1929 16.2609C18.6161 16.2669 18.9942 16.0689 19.2387 15.766L17.6823 14.51ZM18.207 14.261C18.3856 14.261 18.5515 14.3309 18.6713 14.4427L17.3062 15.9044C17.5488 16.131 17.8679 16.261 18.207 16.261V14.261ZM18.6767 14.4478L14.2575 10.2589L12.8816 11.7104L17.3008 15.8993L18.6767 14.4478ZM12.8838 10.2568L12.3179 10.79L13.6895 12.2456L14.2553 11.7125L12.8838 10.2568ZM12.3258 10.7826C12.1291 10.964 11.8708 10.964 11.6741 10.7826L10.3183 12.253C11.2809 13.1406 12.719 13.1406 13.6816 12.253L12.3258 10.7826ZM11.6834 10.7914L11.1213 10.2596L9.74682 11.7124L10.3089 12.2442L11.6834 10.7914ZM9.74655 10.2598L5.32356 14.4473L6.69859 15.8997L11.1216 11.7122L9.74655 10.2598ZM5.32854 14.4427C5.44824 14.3309 5.61423 14.261 5.79275 14.261V16.261C6.13188 16.261 6.45094 16.131 6.69361 15.9044L5.32854 14.4427ZM5.7786 14.2611C6.00856 14.2579 6.20102 14.3656 6.3175 14.5099L4.76111 15.766C5.00557 16.0689 5.38372 16.2669 5.80691 16.2609L5.7786 14.2611ZM6.32213 14.5157C6.51508 14.7585 6.50683 15.117 6.25774 15.3517L4.88611 13.8961C4.35848 14.3934 4.32011 15.2112 4.75648 15.7602L6.32213 14.5157ZM6.25984 15.3497L10.6099 11.2266L9.23409 9.77502L4.88401 13.8981L6.25984 15.3497ZM10.6096 9.7747L6.25951 5.65544L4.88434 7.10765L9.23442 11.2269L10.6096 9.7747ZM6.57193 6.38154V6.38018H4.57193V6.38154H6.57193ZM6.278 5.67204C6.40364 5.79732 6.45695 5.95016 6.46357 6.08322C6.4702 6.2164 6.43224 6.36956 6.32494 6.50249L4.76873 5.24622C4.33273 5.78631 4.36518 6.58911 4.86585 7.08831L6.278 5.67204ZM6.33094 6.49497C6.09906 6.78795 5.64504 6.84213 5.34821 6.57935L6.67393 5.08186C6.09604 4.57026 5.23049 4.66273 4.76272 5.25373L6.33094 6.49497ZM5.32341 6.55664L10.7463 11.6929L12.1216 10.2409L6.69873 5.10457L5.32341 6.55664ZM10.7482 11.6947C11.4583 12.3639 12.5414 12.3639 13.2515 11.6947L11.8799 10.2391C11.9011 10.2191 11.9441 10.1966 11.9998 10.1966C12.0556 10.1966 12.0986 10.2191 12.1198 10.2391L10.7482 11.6947ZM13.2534 11.6929L18.6763 6.55664L17.3009 5.10457L11.878 10.2409L13.2534 11.6929ZM18.6515 6.57935C18.3546 6.84214 17.9006 6.78794 17.6687 6.49498L19.237 5.25372C18.7692 4.66274 17.9036 4.57026 17.3257 5.08186L18.6515 6.57935ZM17.6748 6.5025C17.5675 6.36968 17.5296 6.21665 17.5361 6.08353C17.5427 5.95051 17.596 5.7975 17.7218 5.67206L19.1339 7.08836C19.635 6.58878 19.6666 5.78588 19.2309 5.2462L17.6748 6.5025Z" fill="#3276FA" mask="url(#path-1-inside-1_3709_9906)"/>
</svg>
