<svg width="24" height="20" viewBox="0 0 24 20" fill="none" xmlns="http://www.w3.org/2000/svg">
<mask id="path-1-inside-1_3709_9899" fill="white">
<path d="M19.0098 12.5089L19.3366 13.025L17.2533 15.1875L15.1699 13.025L15.4967 12.5089L17.2533 14.3322L19.0098 12.5089ZM17.2533 5.8125L19.3366 7.97506L19.0098 8.49107L17.2533 6.66774L15.4967 8.49107L15.1699 7.97506L17.2533 5.8125Z"/>
</mask>
<path d="M19.0098 12.5089L19.3366 13.025L17.2533 15.1875L15.1699 13.025L15.4967 12.5089L17.2533 14.3322L19.0098 12.5089ZM17.2533 5.8125L19.3366 7.97506L19.0098 8.49107L17.2533 6.66774L15.4967 8.49107L15.1699 7.97506L17.2533 5.8125Z" fill="#3276FA"/>
<path d="M19.0098 12.5089L19.8546 11.9739L19.1732 10.8979L18.2896 11.8151L19.0098 12.5089ZM19.3366 13.025L20.0568 13.7188L20.6015 13.1533L20.1814 12.4899L19.3366 13.025ZM17.2533 15.1875L16.5331 15.8813L17.2533 16.6289L17.9734 15.8813L17.2533 15.1875ZM15.1699 13.025L14.3251 12.4899L13.905 13.1533L14.4497 13.7188L15.1699 13.025ZM15.4967 12.5089L16.2169 11.8151L15.3333 10.8979L14.6519 11.9739L15.4967 12.5089ZM17.2533 14.3322L16.5331 15.026L17.2533 15.7736L17.9734 15.026L17.2533 14.3322ZM17.2533 5.8125L17.9734 5.11871L17.2533 4.37115L16.5331 5.11871L17.2533 5.8125ZM19.3366 7.97506L20.1814 8.5101L20.6015 7.84675L20.0568 7.28127L19.3366 7.97506ZM19.0098 8.49107L18.2896 9.18486L19.1732 10.1021L19.8546 9.02612L19.0098 8.49107ZM17.2533 6.66774L17.9734 5.97395L17.2533 5.22639L16.5331 5.97395L17.2533 6.66774ZM15.4967 8.49107L14.6519 9.02611L15.3333 10.1021L16.2169 9.18486L15.4967 8.49107ZM15.1699 7.97506L14.4497 7.28127L13.905 7.84675L14.3251 8.5101L15.1699 7.97506ZM18.165 13.044L18.4918 13.56L20.1814 12.4899L19.8546 11.9739L18.165 13.044ZM18.6164 12.3312L16.5331 14.4937L17.9734 15.8813L20.0568 13.7188L18.6164 12.3312ZM17.9734 14.4937L15.8901 12.3312L14.4497 13.7188L16.5331 15.8813L17.9734 14.4937ZM16.0148 13.56L16.3416 13.044L14.6519 11.9739L14.3251 12.4899L16.0148 13.56ZM14.7766 13.2027L16.5331 15.026L17.9734 13.6384L16.2169 11.8151L14.7766 13.2027ZM17.9734 15.026L19.73 13.2027L18.2896 11.8151L16.5331 13.6384L17.9734 15.026ZM16.5331 6.50629L18.6164 8.66885L20.0568 7.28127L17.9734 5.11871L16.5331 6.50629ZM18.4918 7.44001L18.165 7.95603L19.8546 9.02612L20.1814 8.5101L18.4918 7.44001ZM19.73 7.79728L17.9734 5.97395L16.5331 7.36153L18.2896 9.18486L19.73 7.79728ZM16.5331 5.97395L14.7765 7.79728L16.2169 9.18486L17.9734 7.36153L16.5331 5.97395ZM16.3415 7.95603L16.0147 7.44002L14.3251 8.5101L14.6519 9.02611L16.3415 7.95603ZM15.8901 8.66885L17.9734 6.50629L16.5331 5.11871L14.4497 7.28127L15.8901 8.66885Z" fill="#3276FA" mask="url(#path-1-inside-1_3709_9899)"/>
<rect x="2.5" y="3.5" width="19" height="14" rx="1.5" stroke="#3276FA"/>
<line x1="13.168" y1="3.9375" x2="13.168" y2="18" stroke="#3276FA"/>
<line x1="13.498" y1="10" x2="21.788" y2="10" stroke="#3276FA"/>
</svg>
