<svg width="46" height="44" viewBox="0 0 46 44" fill="none" xmlns="http://www.w3.org/2000/svg">
<path d="M5.97836 9.06971H13.4048C13.6259 6.86556 14.6127 4.88644 16.0951 3.40405C17.7859 1.71329 20.1228 0.666504 22.7025 0.666504C25.2817 0.666504 27.6187 1.71329 29.3094 3.40405C30.7918 4.88644 31.7786 6.86556 31.9997 9.06971H39.4262C40.978 9.06971 42.3893 9.70423 43.4116 10.726C44.4367 11.7517 45.0713 13.1624 45.0713 14.7148V18.073V34.4927C45.0713 36.9219 44.075 39.1327 42.4726 40.7351C40.8702 42.3375 38.6594 43.3332 36.2302 43.3332H9.17373C6.744 43.3332 4.53263 42.3381 2.93022 40.7356L2.88077 40.6823C1.30837 39.0843 0.333252 36.8963 0.333252 34.4927V18.073V14.7148C0.333252 13.1624 0.967771 11.7517 1.98956 10.7293C3.01523 9.70423 4.42595 9.06971 5.97836 9.06971ZM22.7025 4.04801C24.3455 4.04801 25.8357 4.71642 26.9153 5.79488C27.7859 6.66665 28.3888 7.80234 28.591 9.06971H30.1056C29.8939 7.38451 29.12 5.87489 27.9793 4.7342C26.6297 3.3846 24.7633 2.54895 22.7025 2.54895C20.6412 2.54895 18.7749 3.3846 17.4253 4.7342C16.2846 5.87489 15.5106 7.38451 15.2989 9.06971H16.8141C17.0163 7.80067 17.6181 6.66387 18.4865 5.79544C19.5655 4.71642 21.0573 4.04801 22.7025 4.04801ZM25.5901 7.12337C24.8522 6.38717 23.831 5.93045 22.7025 5.93045C21.5752 5.93045 20.5545 6.38773 19.8166 7.12559C19.291 7.65121 18.9082 8.32018 18.731 9.06971H26.6741C26.498 8.31907 26.1152 7.64954 25.5901 7.12337ZM5.97836 10.9522C4.94046 10.9522 3.99924 11.375 3.31805 12.0545C2.63852 12.7357 2.21569 13.6769 2.21569 14.7148V18.073C2.21569 21.3039 3.53696 24.2409 5.66443 26.3701C7.58466 28.2892 10.1622 29.5521 13.0203 29.781V26.8151C13.0203 26.2956 13.442 25.8739 13.9615 25.8739H18.9938C19.5133 25.8739 19.935 26.2956 19.935 26.8151V29.8188H25.469V26.8151C25.469 26.2956 25.8907 25.8739 26.4102 25.8739H31.4425C31.962 25.8739 32.3837 26.2956 32.3837 26.8151V29.781C35.2418 29.5516 37.8199 28.2892 39.7401 26.3701C41.8676 24.2409 43.1888 21.3039 43.1888 18.073V14.7148C43.1888 13.6769 42.766 12.7357 42.0865 12.0545C41.4053 11.375 40.463 10.9522 39.4262 10.9522C28.2771 10.9522 17.1274 10.9522 5.97836 10.9522ZM19.935 31.7013V34.7055C19.935 35.225 19.5133 35.6467 18.9938 35.6467H13.9615C13.442 35.6467 13.0203 35.225 13.0203 34.7055V31.6685C9.64657 31.4351 6.60065 29.9594 4.33928 27.6986C3.5214 26.8807 2.80632 25.9606 2.21569 24.9599V34.4927C2.21569 36.3851 2.98134 38.107 4.21648 39.3644L4.26038 39.4055C5.52219 40.6673 7.2624 41.4507 9.17373 41.4507H36.2302C38.141 41.4507 39.8807 40.6667 41.1425 39.4049C42.4043 38.1431 43.1888 36.4035 43.1888 34.4927V24.9605C42.5988 25.9595 41.8848 26.879 41.0686 27.6952C38.8044 29.9588 35.7574 31.4351 32.3837 31.6685V34.7055C32.3837 35.225 31.962 35.6467 31.4425 35.6467H26.4102C25.8907 35.6467 25.469 35.225 25.469 34.7055V31.7013H19.935ZM14.9027 33.7643H18.0525V27.7563H14.9027V33.7643ZM27.3514 33.7643H30.5012V27.7563H27.3514V33.7643Z" fill="#1D4FD7" stroke="#1D4FD7" stroke-width="0.5"/>
</svg>
