<svg width="18" height="19" viewBox="0 0 18 19" fill="none" xmlns="http://www.w3.org/2000/svg">
<path d="M17 14.564C17 14.852 16.9359 15.148 16.7997 15.436C16.6635 15.724 16.4872 15.996 16.2549 16.252C15.8623 16.684 15.4296 16.996 14.9409 17.196C14.4602 17.396 13.9394 17.5 13.3786 17.5C12.5613 17.5 11.688 17.308 10.7666 16.916C9.84527 16.524 8.92389 15.996 8.01052 15.332C7.08913 14.66 6.21582 13.916 5.38257 13.092C4.55734 12.26 3.81222 11.388 3.14722 10.476C2.49024 9.564 1.96144 8.652 1.57687 7.748C1.19229 6.836 1 5.964 1 5.132C1 4.588 1.09614 4.068 1.28843 3.588C1.48072 3.1 1.78518 2.652 2.20981 2.252C2.72258 1.748 3.28343 1.5 3.87631 1.5C4.10065 1.5 4.32499 1.548 4.52529 1.644C4.7336 1.74 4.91788 1.884 5.06209 2.092L6.92088 4.708C7.0651 4.908 7.16925 5.092 7.24136 5.268C7.31347 5.436 7.35353 5.604 7.35353 5.756C7.35353 5.948 7.29745 6.14 7.18528 6.324C7.08112 6.508 6.92889 6.7 6.7366 6.892L6.12769 7.524C6.03956 7.612 5.9995 7.716 5.9995 7.844C5.9995 7.908 6.00751 7.964 6.02354 8.028C6.04757 8.092 6.07161 8.14 6.08763 8.188C6.23185 8.452 6.48022 8.796 6.83275 9.212C7.19329 9.628 7.57787 10.052 7.99449 10.476C8.42714 10.9 8.84377 11.292 9.2684 11.652C9.68503 12.004 10.0295 12.244 10.302 12.388C10.342 12.404 10.3901 12.428 10.4462 12.452C10.5103 12.476 10.5744 12.484 10.6465 12.484C10.7827 12.484 10.8868 12.436 10.975 12.348L11.5839 11.748C11.7842 11.548 11.9765 11.396 12.1607 11.3C12.345 11.188 12.5293 11.132 12.7296 11.132C12.8818 11.132 13.0421 11.164 13.2183 11.236C13.3946 11.308 13.5789 11.412 13.7792 11.548L16.4311 13.428C16.6395 13.572 16.7837 13.74 16.8718 13.94C16.9519 14.14 17 14.34 17 14.564Z" stroke="#222222" stroke-width="1.2" stroke-miterlimit="10"/>
</svg>
