<svg width="34" height="36" viewBox="0 0 34 36" fill="none" xmlns="http://www.w3.org/2000/svg">
<path d="M6.02903 23.3496H1.42454C1.31196 23.3496 1.20399 23.3945 1.12438 23.4742C1.04477 23.5539 1.00003 23.6621 1 23.7749V34.5749C1.00003 34.6877 1.04477 34.7958 1.12438 34.8756C1.20399 34.9553 1.31196 35.0001 1.42454 35.0001H6.02903C6.14161 35.0001 6.24958 34.9553 6.32919 34.8756C6.40881 34.7958 6.45354 34.6877 6.45357 34.5749V23.7749C6.45354 23.6621 6.40881 23.5539 6.32919 23.4742C6.24958 23.3945 6.14161 23.3496 6.02903 23.3496ZM5.60448 34.1496H1.84909V24.2001H5.60448V34.1496Z" fill="#222222" stroke="#222222" stroke-width="0.8"/>
<path d="M14.7888 19.7495H10.1843C10.0717 19.7495 9.96376 19.7944 9.88415 19.8741C9.80453 19.9538 9.7598 20.062 9.75977 20.1748V34.5746C9.7598 34.6874 9.80453 34.7955 9.88415 34.8753C9.96376 34.955 10.0717 34.9998 10.1843 34.9999H14.7888C14.9014 34.9998 15.0094 34.955 15.089 34.8753C15.1686 34.7955 15.2133 34.6874 15.2133 34.5746V20.1748C15.2133 20.062 15.1686 19.9538 15.089 19.8741C15.0094 19.7944 14.9014 19.7495 14.7888 19.7495ZM14.3643 34.1493H10.6089V20.6H14.3643V34.1493Z" fill="#222222" stroke="#222222" stroke-width="0.8"/>
<path d="M23.5486 16.1494H18.9441C18.8315 16.1494 18.7235 16.1943 18.6439 16.274C18.5643 16.3537 18.5196 16.4619 18.5195 16.5747V34.5746C18.5196 34.6874 18.5643 34.7955 18.6439 34.8753C18.7235 34.955 18.8315 34.9998 18.9441 34.9999H23.5486C23.6612 34.9998 23.7691 34.955 23.8487 34.8753C23.9283 34.7955 23.9731 34.6874 23.9731 34.5746V16.5747C23.9731 16.4619 23.9283 16.3537 23.8487 16.274C23.7691 16.1943 23.6612 16.1494 23.5486 16.1494ZM23.124 34.1493H19.3686V16.9999H23.124V34.1493Z" fill="#222222" stroke="#222222" stroke-width="0.8"/>
<path d="M32.3103 12.5498H27.7058C27.5932 12.5498 27.4852 12.5946 27.4056 12.6744C27.326 12.7541 27.2813 12.8623 27.2812 12.9751V34.5748C27.2813 34.6876 27.326 34.7957 27.4056 34.8755C27.4852 34.9552 27.5932 35 27.7058 35.0001H32.3103C32.4229 35 32.5308 34.9552 32.6104 34.8755C32.6901 34.7957 32.7348 34.6876 32.7348 34.5748V12.9751C32.7348 12.8623 32.6901 12.7541 32.6104 12.6744C32.5308 12.5946 32.4229 12.5498 32.3103 12.5498ZM31.8857 34.1495H28.1303V13.4003H31.8857V34.1495Z" fill="#222222" stroke="#222222" stroke-width="0.8"/>
<path d="M1.4244 18.2377H1.42578C1.59964 18.2371 18.7838 18.0524 28.9333 7.05172L31.2476 8.46318C31.3119 8.50242 31.3856 8.52379 31.4609 8.5251C31.5363 8.52641 31.6106 8.50761 31.6763 8.47063C31.742 8.43365 31.7967 8.37983 31.8348 8.31469C31.8728 8.24954 31.8929 8.17542 31.893 8.09994V1.42522C31.893 1.36268 31.8792 1.30091 31.8527 1.24431C31.8261 1.1877 31.7874 1.13767 31.7394 1.09777C31.6913 1.05786 31.635 1.02908 31.5746 1.01346C31.5141 0.997848 31.451 0.995788 31.3896 1.00743L24.5231 2.30734C24.4452 2.32208 24.3729 2.35842 24.3145 2.41223C24.2561 2.46604 24.2139 2.53517 24.1928 2.61177C24.1716 2.68837 24.1723 2.76937 24.1948 2.84559C24.2173 2.92181 24.2607 2.99019 24.32 3.04297L26.3009 4.80689C24.6776 6.4991 16.1911 14.6683 1.34786 17.3941C1.24368 17.4132 1.15041 17.4707 1.08638 17.5552C1.02234 17.6398 0.992154 17.7452 1.00174 17.8509C1.01134 17.9565 1.06001 18.0548 1.13821 18.1264C1.21641 18.1979 1.31848 18.2376 1.4244 18.2377ZM27.2279 5.05718C27.3013 4.97267 27.3384 4.86257 27.3312 4.7508C27.324 4.63903 27.2731 4.53462 27.1895 4.46025L25.5298 2.98234L31.0439 1.93828V7.34326L29.0762 6.14305C28.9917 6.09132 28.8918 6.07087 28.7938 6.08523C28.6958 6.09959 28.6059 6.14787 28.5397 6.22168C22.425 13.0279 13.5319 15.6861 7.61734 16.7238C20.4391 12.7278 27.1516 5.14494 27.2279 5.05718Z" fill="#222222" stroke="#222222" stroke-width="0.8"/>
</svg>
