<svg width="34" height="34" viewBox="0 0 34 34" fill="none" xmlns="http://www.w3.org/2000/svg">
<path d="M17 19.0248L18.455 19.9456C18.7214 20.1143 19.0475 19.8649 18.9773 19.5494L18.5917 17.8179L19.8784 16.6514C20.1133 16.4386 19.987 16.0351 19.6785 16.0094L17.9852 15.859L17.3225 14.2229C17.2033 13.9257 16.7967 13.9257 16.6775 14.2229L16.0148 15.8553L14.3215 16.0057C14.013 16.0314 13.8867 16.4349 14.1216 16.6477L15.4083 17.8142L15.0227 19.5457C14.9525 19.8612 15.2786 20.1107 15.545 19.9419L17 19.0248Z" stroke="black"/>
<path d="M16.8434 9C12.5201 9 9 12.52 9 16.8434C9 21.1668 12.52 24.6868 16.8434 24.6868C21.1668 24.6868 24.6868 21.1668 24.6868 16.8434C24.6868 12.52 21.1668 9 16.8434 9ZM16.8434 22.8908C13.5075 22.8908 10.796 20.1793 10.796 16.8434C10.796 13.5074 13.5074 10.796 16.8434 10.796C20.1793 10.796 22.8908 13.5074 22.8908 16.8434C22.8908 20.1793 20.1793 22.8908 16.8434 22.8908Z" fill="black"/>
<path d="M33.1007 16.102H30.1051C29.6613 9.57418 24.4263 4.33898 17.898 3.89358V0.897977C17.898 0.403371 17.4946 0 17 0C16.5054 0 16.102 0.403389 16.102 0.897977V3.89358C9.57418 4.33906 4.33898 9.57418 3.89358 16.102H0.897977C0.403371 16.102 0 16.5054 0 17C0 17.4946 0.403389 17.898 0.897977 17.898H3.89358C4.33906 24.4258 9.57418 29.661 16.102 30.1064V33.102C16.102 33.5966 16.5054 34 17 34C17.4946 34 17.898 33.5966 17.898 33.102V30.1064C24.4258 29.6609 29.661 24.4258 30.1064 17.898H33.102C33.5966 17.898 34 17.4946 34 17C33.9982 16.5054 33.5953 16.102 33.1007 16.102ZM17.0004 28.3423C10.746 28.3423 5.65806 23.2562 5.65806 17C5.65806 10.7456 10.746 5.65766 17.0004 5.65766C23.2548 5.65766 28.3427 10.7456 28.3427 17C28.3427 23.2544 23.2548 28.3423 17.0004 28.3423Z" fill="black"/>
</svg>
