<svg width="16" height="16" viewBox="0 0 16 16" fill="none" xmlns="http://www.w3.org/2000/svg">
<path d="M10.9578 0.760344C11.4236 0.294416 12.0492 0.0230948 12.7077 0.00140769C13.3662 -0.0202794 14.0083 0.209291 14.5038 0.64356L14.6284 0.760344L15.24 1.37195C15.7057 1.83772 15.9769 2.46313 15.9986 3.12141C16.0203 3.77969 15.7909 4.42159 15.3568 4.917L15.24 5.04157L5.54046 14.7416C5.40331 14.8787 5.23718 14.9834 5.05427 15.0478L4.91412 15.0885L1.06094 15.9778C0.925948 16.009 0.785448 16.0073 0.651231 15.973C0.517014 15.9386 0.392999 15.8725 0.2896 15.7803C0.186201 15.6881 0.106435 15.5725 0.0570011 15.443C0.00756717 15.3136 -0.0100921 15.1742 0.00550609 15.0366L0.0228082 14.9388L0.911272 11.0849C0.955164 10.8959 1.04089 10.7191 1.16215 10.5676L1.25818 10.4595L10.9578 0.760344ZM10.3461 3.81836L2.56882 11.5953L2.01861 13.9812L4.40457 13.4301L12.1819 5.65317L10.3461 3.81836ZM13.4051 1.98355C13.2562 1.83461 13.058 1.74513 12.8477 1.73191C12.6375 1.71869 12.4296 1.78264 12.2632 1.91175L12.1819 1.98355L11.5694 2.59516L13.4051 4.42997L14.0168 3.81836C14.1657 3.6694 14.2552 3.47122 14.2684 3.26098C14.2816 3.05075 14.2177 2.84291 14.0886 2.67647L14.0168 2.59516L13.4051 1.98355Z" fill="white"/>
</svg>
