<?xml version="1.0" encoding="UTF-8"?><svg id="Layer_1" xmlns="http://www.w3.org/2000/svg" viewBox="0 0 237.73 173.13"><defs><style>.cls-1{fill:none;stroke:#212121;stroke-linecap:round;stroke-miterlimit:10;stroke-width:5.5px;}</style></defs><path class="cls-1" d="M129.27,108.98H55.87c-29.33,0-53.11-23.78-53.11-53.11h0C2.75,26.53,26.53,2.75,55.87,2.75h126c29.33,0,53.11,23.78,53.11,53.11h0c0,16.5-7.52,31.24-19.33,40.99"/><path class="cls-1" d="M58.3,40.51c6.14,6.15,6.14,16.11,0,22.25-6.15,6.14-16.11,6.14-22.25,0s-6.14-16.11,0-22.25c6.14-6.14,16.11-6.14,22.25,0Z"/><line class="cls-1" x1="58.3" y1="62.76" x2="71.37" y2="75.83"/><path class="cls-1" d="M215.89,114.64l-71.16-49.73c-.12-.08-.27,0-.27.14l-.23,86.81c0,.77.82,1.27,1.5.92l22.1-11.48c.3-.15.66-.04.81.26l14.72,28.34c.22.43.75.6,1.19.37l23.22-12.06c.43-.22.6-.75.37-1.19l-14.72-28.35c-.15-.29-.04-.66.26-.81l22.1-11.48c.69-.36.75-1.31.12-1.76Z"/><line class="cls-1" x1="136.3" y1="49.01" x2="128.15" y2="33.33"/><line class="cls-1" x1="125.02" y1="62.43" x2="108.16" y2="57.1"/><line class="cls-1" x1="126.53" y1="79.9" x2="110.84" y2="88.05"/><line class="cls-1" x1="153.77" y1="47.5" x2="159.1" y2="30.65"/><line class="cls-1" x1="167.18" y1="58.78" x2="182.87" y2="50.64"/></svg>