<svg width="39" height="44" viewBox="0 0 39 44" fill="none" xmlns="http://www.w3.org/2000/svg">
<path d="M37.7385 6.49461C30.6387 5.7613 24.7256 3.88138 19.6592 0.7615C19.4525 0.634838 19.1925 0.634838 18.9792 0.7615C13.9261 3.88138 8.01295 5.7613 0.913229 6.49461C0.579909 6.52794 0.333252 6.80793 0.333252 7.13458V19.8074C0.333252 28.6537 5.49972 36.8268 13.4927 40.6333L19.0459 43.2732C19.1325 43.3132 19.2258 43.3332 19.3192 43.3332C19.4125 43.3332 19.5125 43.3132 19.5992 43.2732L25.159 40.6333C33.152 36.8268 38.3184 28.6537 38.3184 19.8074V7.13458C38.3184 6.80793 38.0718 6.52794 37.7385 6.49461ZM35.1319 20.1874C35.1319 27.5405 30.8387 34.3335 24.1923 37.5001L19.5992 39.68C19.5125 39.72 19.4192 39.74 19.3192 39.74C19.2258 39.74 19.1325 39.72 19.0459 39.68L14.4594 37.5001C7.81296 34.3335 3.51979 27.5405 3.51979 20.1874V9.72115C3.51979 9.38783 3.76645 9.10784 4.09977 9.07451C9.95288 8.46786 14.8194 6.92793 18.9792 4.36136C19.1925 4.22803 19.4525 4.22803 19.6592 4.35469C23.8323 6.92793 28.6988 8.46786 34.5519 9.07451C34.8852 9.10784 35.1319 9.38783 35.1319 9.72115V20.1874Z" fill="#1D4FD7"/>
<path d="M26.9066 15.7545C26.6866 15.5078 26.3666 15.3745 26.04 15.3745C25.7467 15.3745 25.46 15.4878 25.24 15.6878L16.867 23.3609L13.7271 20.0343C13.5071 19.801 13.1938 19.6677 12.8672 19.6677C12.5672 19.6677 12.2805 19.781 12.0605 19.9877C11.8339 20.201 11.7005 20.4943 11.6939 20.8143C11.6872 21.1276 11.8005 21.4276 12.0139 21.6609L15.9537 25.8341C16.1737 26.0674 16.487 26.2008 16.8137 26.2008C17.107 26.2008 17.3937 26.0874 17.6137 25.8874L26.84 17.4278C27.0733 17.2144 27.2066 16.9278 27.2199 16.6078C27.2266 16.2878 27.1199 15.9878 26.9066 15.7545Z" fill="#1D4FD7"/>
</svg>
