<svg width="30" height="34" viewBox="0 0 30 34" fill="none" xmlns="http://www.w3.org/2000/svg">
<path d="M15.2452 18.6452C20.1806 18.4258 24.129 14.3129 24.129 9.32258C24.129 4.16774 19.9613 0 14.8065 0C9.65161 0 5.48387 4.16774 5.48387 9.32258C5.48387 14.3129 9.43226 18.371 14.3677 18.6452C6.25161 18.9194 0 25.3903 0 34H2.19355C2.19355 26.3226 7.62258 20.8387 14.8065 20.8387C21.9903 20.8387 27.4194 26.3226 27.4194 34H29.6129C29.6129 25.3903 23.3613 18.9194 15.2452 18.6452ZM7.67742 9.37742C7.67742 5.42903 10.8581 2.24839 14.8065 2.24839C18.7548 2.24839 21.9355 5.42903 21.9355 9.37742C21.9355 13.3258 18.7548 16.5065 14.8065 16.5065C10.8581 16.5065 7.67742 13.271 7.67742 9.37742Z" fill="#222222"/>
</svg>
