<svg width="34" height="34" viewBox="0 0 34 34" fill="none" xmlns="http://www.w3.org/2000/svg">
<path d="M1.38325 20.3451L3.09411 22.0559C3.29106 22.2519 3.4472 22.485 3.55353 22.7418C3.65985 22.9985 3.71425 23.2737 3.71357 23.5516V25.5562C3.71504 26.8103 4.21387 28.0126 5.10064 28.8994C5.98742 29.7861 7.18972 30.285 8.44381 30.2864H10.4484C10.7263 30.2858 11.0015 30.3402 11.2582 30.4465C11.515 30.5528 11.7481 30.7089 11.9441 30.9059L13.6549 32.6167C14.5428 33.5025 15.7458 34 17 34C18.2542 34 19.4572 33.5025 20.3451 32.6167L22.0559 30.9059C22.2519 30.7089 22.485 30.5528 22.7417 30.4465C22.9985 30.3402 23.2737 30.2858 23.5516 30.2864H25.5562C26.8103 30.285 28.0126 29.7861 28.8994 28.8994C29.7861 28.0126 30.285 26.8103 30.2864 25.5562V23.5516C30.2858 23.2737 30.3401 22.9985 30.4465 22.7418C30.5528 22.485 30.7089 22.2519 30.9059 22.0559L32.6167 20.3451C33.5025 19.4572 34 18.2542 34 17C34 15.7458 33.5025 14.5428 32.6167 13.6549L30.9059 11.9441C30.7089 11.7481 30.5528 11.515 30.4465 11.2582C30.3401 11.0015 30.2858 10.7263 30.2864 10.4484V8.4438C30.285 7.18971 29.7861 5.98741 28.8994 5.10064C28.0126 4.21386 26.8103 3.71503 25.5562 3.71356H23.5516C23.2737 3.71424 22.9985 3.65984 22.7417 3.55352C22.485 3.4472 22.2519 3.29105 22.0559 3.09411L20.3451 1.38325C19.4572 0.497455 18.2542 0 17 0C15.7458 0 14.5428 0.497455 13.6549 1.38325L11.9441 3.09411C11.7481 3.29105 11.515 3.4472 11.2582 3.55352C11.0015 3.65984 10.7263 3.71424 10.4484 3.71356H8.44379C7.18971 3.71503 5.98741 4.21387 5.10064 5.10064C4.21387 5.98742 3.71504 7.18971 3.71357 8.4438V10.4484C3.71425 10.7263 3.65985 11.0015 3.55353 11.2582C3.4472 11.5149 3.29106 11.748 3.09411 11.9441L1.38325 13.6549C0.497458 14.5428 0 15.7458 0 17C0 18.2542 0.497458 19.4572 1.38325 20.3451ZM3.23269 15.5044L4.94355 13.7935C5.38424 13.3553 5.73364 12.834 5.97151 12.2598C6.20938 11.6856 6.33101 11.0699 6.32934 10.4484V8.4438C6.32992 7.88319 6.55287 7.3457 6.94928 6.94929C7.34569 6.55288 7.88318 6.32992 8.44379 6.32935H10.4484C11.0699 6.33102 11.6856 6.20939 12.2598 5.97152C12.8339 5.73365 13.3552 5.38425 13.7935 4.94355L15.5043 3.23269C15.9015 2.837 16.4393 2.61484 17 2.61484C17.5606 2.61484 18.0984 2.837 18.4956 3.23269L20.2065 4.94355C20.6447 5.38425 21.166 5.73365 21.7402 5.97152C22.3144 6.20939 22.93 6.33102 23.5516 6.32935H25.5562C26.1168 6.32992 26.6543 6.55287 27.0507 6.94929C27.4471 7.3457 27.6701 7.8832 27.6707 8.44381V10.4484C27.669 11.0699 27.7906 11.6856 28.0285 12.2598C28.2664 12.834 28.6158 13.3553 29.0564 13.7935L30.7673 15.5044C31.1633 15.9014 31.3857 16.4393 31.3857 17C31.3857 17.5607 31.1633 18.0986 30.7673 18.4956L29.0564 20.2065C28.6158 20.6447 28.2664 21.166 28.0285 21.7402C27.7906 22.3144 27.669 22.9301 27.6707 23.5516V25.5562C27.6701 26.1168 27.4471 26.6543 27.0507 27.0507C26.6543 27.4471 26.1168 27.6701 25.5562 27.6707H23.5516C22.9301 27.669 22.3144 27.7906 21.7402 28.0285C21.166 28.2664 20.6447 28.6158 20.2065 29.0565L18.4956 30.7673C18.0984 31.163 17.5606 31.3852 17 31.3852C16.4393 31.3852 15.9015 31.163 15.5044 30.7673L13.7935 29.0565C13.3553 28.6158 12.834 28.2664 12.2598 28.0285C11.6856 27.7906 11.0699 27.669 10.4484 27.6707H8.44379C7.88318 27.6701 7.34569 27.4471 6.94927 27.0507C6.55285 26.6543 6.3299 26.1168 6.32933 25.5562V23.5516C6.331 22.9301 6.20937 22.3144 5.9715 21.7402C5.73363 21.166 5.38423 20.6447 4.94353 20.2065L3.23269 18.4956C2.83671 18.0986 2.61434 17.5607 2.61434 17C2.61434 16.4393 2.83671 15.9014 3.23269 15.5044Z" fill="#222222"/>
<path d="M14.3309 21.412C14.4523 21.5335 14.5965 21.6298 14.7551 21.6956C14.9138 21.7613 15.0839 21.7951 15.2556 21.7951C15.4274 21.7951 15.5974 21.7613 15.7561 21.6956C15.9148 21.6298 16.0589 21.5335 16.1803 21.412L23.1559 14.437C23.2778 14.3157 23.3745 14.1715 23.4406 14.0127C23.5066 13.854 23.5407 13.6837 23.5409 13.5117C23.5411 13.3398 23.5073 13.1695 23.4416 13.0106C23.3759 12.8517 23.2795 12.7073 23.1579 12.5857C23.0363 12.4641 22.8919 12.3677 22.733 12.3019C22.5741 12.2362 22.4038 12.2025 22.2318 12.2026C22.0599 12.2028 21.8896 12.2369 21.7308 12.3029C21.5721 12.369 21.4279 12.4657 21.3065 12.5876L15.2556 18.6378L12.6928 16.0751C12.4468 15.8335 12.1154 15.6989 11.7706 15.7004C11.4258 15.702 11.0956 15.8396 10.8518 16.0834C10.608 16.3272 10.4703 16.6574 10.4688 17.0022C10.4672 17.347 10.6019 17.6784 10.8434 17.9244L14.3309 21.412Z" fill="#222222"/>
</svg>
