<?xml version="1.0" encoding="UTF-8"?>
<svg id="Layer_1" data-name="Layer 1" xmlns="http://www.w3.org/2000/svg" viewBox="0 0 48 48">
  <defs>
    <style>
      .cls-1 {
        fill: #333;
        font-family: MyriadPro-Bold, 'Myriad Pro';
        font-size: 14px;
        font-weight: 700;
      }

      .cls-2 {
        fill: #ffcd39;
      }

      .cls-2, .cls-3 {
        stroke-miterlimit: 10;
      }

      .cls-2, .cls-3, .cls-4 {
        stroke: #505056;
        stroke-width: 2px;
      }

      .cls-3, .cls-4 {
        fill: none;
        stroke-linecap: round;
      }

      .cls-4 {
        stroke-linejoin: round;
      }

      .cls-5 {
        fill: #505056;
      }
    </style>
  </defs>
  <path class="cls-3" d="m25.83,47H3c-1.1,0-2-.9-2-2V6.41c0-.27.11-.52.29-.71L5.71,1.29c.19-.19.44-.29.71-.29h28.59c1.1,0,2,.9,2,2v18.26"/>
  <polyline class="cls-4" points="10.5 5.5 10.5 10.5 5.5 10.5"/>
  <line class="cls-3" x1="13.75" y1="28" x2="22.15" y2="28"/>
  <line class="cls-3" x1="13.75" y1="18" x2="28.75" y2="18"/>
  <line class="cls-3" x1="13.75" y1="38" x2="20.13" y2="38"/>
  <circle class="cls-5" cx="8.75" cy="28" r="1.5"/>
  <circle class="cls-5" cx="8.75" cy="18" r="1.5"/>
  <circle class="cls-5" cx="8.75" cy="38" r="1.5"/>
  <circle class="cls-2" cx="37" cy="37" r="10"/>
  <text class="cls-1" transform="translate(35.3 42.39) scale(1.06 1)"><tspan x="0" y="0">!</tspan></text>
</svg>