<?xml version="1.0" encoding="UTF-8"?>
<svg id="Layer_1" xmlns="http://www.w3.org/2000/svg" viewBox="0 0 382.89 511.83">
  <defs>
    <style>
      .cls-1 {
        fill: #0263d0;
      }

      .cls-2 {
        fill: #fdfdfe;
      }

      .cls-3 {
        fill: #4e91de;
      }
    </style>
  </defs>
  <path class="cls-1" d="M56.43,0h180.93c.03,47.77.05,95.53.08,143.3,0,6.63.02,6.65,6.54,6.65,45.77,0,91.54,0,137.3.01,2.35,1.74,1.41,4.28,1.41,6.48.05,95.1.04,190.2.03,285.3,0,2.5,0,5-.21,7.49-2.35,27.38-16.31,46.43-41.25,57.71-5.14,2.32-10.82,2.65-15.95,4.89H56.43c-.87-1.69-2.65-1.16-3.98-1.47-7.19-1.68-14.04-4.18-20.26-8.15C10.5,488.37-.01,468.48,0,442.78c.05-124.58.02-249.15.03-373.73,0-2.16.05-4.33.18-6.49C1.94,33.96,21.52,9.84,49.05,2.27,51.53,1.59,54.3,1.8,56.43,0ZM61.74,322.7c0,12.83.04,25.65-.03,38.48-.01,2.48.23,4.07,3.41,4,10.82-.23,21.68.24,32.47-.39,22.14-1.28,36.96-16.27,38.6-38.33,1.73-23.33-10.54-40.19-32.94-44.69-12.84-2.58-25.91-.73-38.87-1.21-3.35-.12-2.6,2.3-2.61,4.15-.04,12.66-.02,25.32-.02,37.98ZM187.41,279.62c-25.57.1-44.06,18.42-43.94,43.53.13,24.97,18.89,43.04,44.56,42.91,25.23-.13,43.42-18.4,43.34-43.52-.08-24.89-18.65-43.02-43.96-42.91ZM282.1,365.87c1.83,0,3.67.11,5.49-.02,15.26-1.1,27.68-10.21,32.05-23.16.9-2.67.71-3.88-2.22-4.46-5.22-1.02-10.39-2.26-15.58-3.43-1.66-.37-2.9-.8-3.77,1.63-2.8,7.87-8.91,11.44-17,11.28-8.83-.18-15.25-4.63-18.56-12.78-3.18-7.84-3.13-15.97-.12-23.9,3.08-8.11,10.44-13.19,18.88-13.06,8.61.13,14.49,4.43,17.32,12.51.88,2.53,2.15,2.89,4.4,2.38,4.54-1.02,9.07-2.29,13.68-2.75,4.3-.43,4.28-2.6,3.41-5.73-2.46-8.82-7.81-15.36-15.83-19.62-11.63-6.18-23.97-6.76-36.35-3.18-21.51,6.23-32.05,25.28-28.49,50.5,2.87,20.35,20.02,34,42.69,33.79Z"/>
  <path class="cls-3" d="M238.37,0c13.95,14.73,27.85,29.52,41.87,44.18,32.9,34.41,65.87,68.76,98.8,103.14.8.83,1.5,1.76,2.25,2.65-45.77,0-91.54,0-137.3-.01-6.52,0-6.53-.02-6.54-6.65-.03-47.77-.06-95.53-.08-143.3.33,0,.67,0,1,0Z"/>
  <path class="cls-2" d="M61.73,322.7c0-12.66-.02-25.32.02-37.98,0-1.85-.75-4.27,2.61-4.15,12.96.47,26.03-1.37,38.87,1.21,22.4,4.5,34.67,21.36,32.94,44.69-1.64,22.06-16.46,37.05-38.6,38.33-10.79.62-21.65.16-32.47.39-3.18.07-3.42-1.51-3.41-4,.07-12.83.03-25.65.03-38.48ZM83.04,322.69c0,5.83-.09,11.66.02,17.49.14,7.24-1.7,6.75,7.03,6.58,2.64-.05,5.35-.35,7.9-1.04,6.7-1.83,12.05-5.31,14.74-12.21,7.19-18.45-3.15-34.23-22.81-34.59-1.17-.02-2.35.1-3.5-.03-2.58-.31-3.5.67-3.44,3.32.16,6.83.05,13.66.05,20.49Z"/>
  <path class="cls-2" d="M187.41,279.62c25.31-.1,43.88,18.03,43.96,42.91.08,25.13-18.11,43.4-43.34,43.52-25.67.13-44.43-17.94-44.56-42.91-.13-25.11,18.36-43.43,43.94-43.53ZM165.14,322.94c.03,15.03,10.29,25.7,23.81,24.8,10.96-.73,19.32-9.18,20.57-20.79,1.47-13.76-4.62-24.87-15.39-28.06-15.48-4.59-29.03,6.65-28.99,24.05Z"/>
  <path class="cls-2" d="M282.1,365.87c-22.67.21-39.82-13.44-42.69-33.79-3.56-25.22,6.98-44.27,28.49-50.5,12.37-3.58,24.72-3,36.35,3.18,8.02,4.26,13.37,10.8,15.83,19.62.87,3.13.89,5.3-3.41,5.73-4.61.46-9.14,1.74-13.68,2.75-2.25.5-3.51.14-4.4-2.38-2.83-8.08-8.71-12.38-17.32-12.51-8.44-.13-15.8,4.95-18.88,13.06-3.01,7.93-3.06,16.06.12,23.9,3.31,8.15,9.73,12.6,18.56,12.78,8.09.16,14.2-3.41,17-11.28.86-2.42,2.11-2,3.77-1.63,5.19,1.17,10.36,2.41,15.58,3.43,2.93.57,3.13,1.78,2.22,4.46-4.38,12.95-16.79,22.06-32.05,23.16-1.82.13-3.66.02-5.49.02Z"/>
  <path class="cls-1" d="M83.04,322.69c0-6.83.11-13.66-.05-20.49-.06-2.65.85-3.63,3.44-3.32,1.15.14,2.33.01,3.5.03,19.66.37,30.01,16.14,22.81,34.59-2.69,6.9-8.04,10.39-14.74,12.21-2.54.69-5.25.99-7.9,1.04-8.73.17-6.89.66-7.03-6.58-.12-5.83-.02-11.66-.02-17.49Z"/>
  <path class="cls-1" d="M165.14,322.94c-.04-17.4,13.51-28.64,28.99-24.05,10.77,3.2,16.87,14.3,15.39,28.06-1.24,11.61-9.6,20.06-20.57,20.79-13.53.9-23.78-9.78-23.81-24.8Z"/>
</svg>