<?xml version="1.0" encoding="UTF-8"?>
<svg id="Layer_1" xmlns="http://www.w3.org/2000/svg" viewBox="0 0 382.99 511.83">
  <defs>
    <style>
      .cls-1 {
        fill: #0263d0;
      }

      .cls-2 {
        fill: #4e92de;
      }

      .cls-3 {
        fill: #fdfdfe;
      }
    </style>
  </defs>
  <path class="cls-1" d="M56.48,0h180.93c.03,47.94.11,95.88-.02,143.82-.01,4.75,1.29,6.25,6.15,6.24,45.94-.17,91.88-.11,137.82-.11,2.37,1.73,1.44,4.27,1.44,6.47.05,95.11.04,190.23.03,285.34,0,2.66-.02,5.34-.26,7.99-2.58,27.35-16.65,46.32-41.72,57.36-5,2.2-10.49,2.59-15.47,4.73H56.48c-6.01-2.69-12.69-3.37-18.58-6.47C12.49,491.98,0,470.95,0,442.3c.02-124.26,0-248.51.02-372.77,0-2.83.02-5.68.33-8.48C3.38,33.28,18.16,14.48,43.87,3.97,47.98,2.28,52.58,2.26,56.48,0ZM191.36,243.88c-21.16,0-42.31,0-63.47,0-9.85,0-15.21,3.9-15.27,11.1-.06,7.2,5.35,11.26,15.1,11.26,42.48,0,84.96,0,127.44,0,1.83,0,3.68,0,5.48-.23,4.37-.58,7.28-3.11,8.76-7.2,2.79-7.74-2.67-14.87-11.57-14.9-22.16-.07-44.31-.02-66.47-.03ZM190.93,311.23c15.33,0,30.65,0,45.98,0,7.5,0,15,.15,22.48-.14,6.25-.23,10.7-5.03,10.76-10.94.06-6.03-4.69-10.87-11.07-11.25-1.16-.07-2.33-.03-3.5-.03-42.81,0-85.63,0-128.44,0-1.66,0-3.36-.09-4.99.17-5.46.85-9.64,5.82-9.55,11.17.1,5.48,4.28,10.13,9.86,10.81,1.81.22,3.66.19,5.49.2,20.99.01,41.98,0,62.97,0ZM191.41,356.21c16.83,0,33.65,0,50.48,0,5.66,0,11.33.13,16.99-.08,6.58-.24,11.21-4.91,11.28-10.98.07-6.22-4.82-11.01-11.56-11.29-1-.04-2-.02-3-.02-42.81,0-85.62,0-128.44,0-1.33,0-2.67-.05-4,.07-6.03.55-10.65,5.5-10.55,11.27.09,5.67,4.45,10.3,10.34,10.88,1.65.16,3.33.13,4.99.14,21.16,0,42.31,0,63.47,0ZM168.94,378.85c-14.82,0-29.65-.08-44.47.03-6.81.05-11.75,4.81-11.85,11-.1,6.17,4.74,11.22,11.53,11.24,29.82.12,59.63.06,89.45.06,3.91,0,7.19-1.42,9.44-4.68,2.45-3.56,2.87-7.45.91-11.35-2.14-4.26-5.77-6.3-10.53-6.3-14.82,0-29.65,0-44.47,0Z"/>
  <path class="cls-2" d="M238.41,0c15.68,16.53,31.31,33.12,47.06,49.58,31.41,32.84,62.89,65.62,94.34,98.44.57.59,1.04,1.28,1.56,1.92-45.94,0-91.88-.06-137.82.11-4.86.02-6.17-1.48-6.15-6.24.13-47.94.04-95.88.02-143.82.33,0,.67,0,1,0Z"/>
  <path class="cls-3" d="M191.36,243.88c22.16,0,44.31-.05,66.47.03,8.9.03,14.36,7.16,11.57,14.9-1.47,4.08-4.39,6.62-8.76,7.2-1.81.24-3.65.23-5.48.23-42.48.01-84.96.01-127.44,0-9.75,0-15.16-4.05-15.1-11.26.06-7.19,5.42-11.1,15.27-11.1,21.16,0,42.31,0,63.47,0Z"/>
  <path class="cls-3" d="M190.93,311.23c-20.99,0-41.98,0-62.97,0-1.83,0-3.68.03-5.49-.2-5.58-.68-9.76-5.34-9.86-10.81-.09-5.36,4.08-10.32,9.55-11.17,1.63-.25,3.32-.16,4.99-.17,42.81,0,85.63,0,128.44,0,1.17,0,2.34-.04,3.5.03,6.39.38,11.14,5.22,11.07,11.25-.06,5.91-4.52,10.7-10.76,10.94-7.49.28-14.99.13-22.48.14-15.33.01-30.65,0-45.98,0Z"/>
  <path class="cls-3" d="M191.41,356.21c-21.16,0-42.31,0-63.47,0-1.66,0-3.34.03-4.99-.14-5.89-.58-10.25-5.21-10.34-10.88-.09-5.77,4.52-10.72,10.55-11.27,1.32-.12,2.66-.07,4-.07,42.81,0,85.62,0,128.44,0,1,0,2-.03,3,.02,6.74.28,11.63,5.06,11.56,11.29-.07,6.07-4.7,10.74-11.28,10.98-5.66.21-11.33.08-16.99.08-16.83,0-33.65,0-50.48,0Z"/>
  <path class="cls-3" d="M168.94,378.85c14.82,0,29.65,0,44.47,0,4.75,0,8.39,2.04,10.53,6.3,1.96,3.9,1.54,7.79-.91,11.35-2.25,3.27-5.52,4.68-9.44,4.68-29.82,0-59.63.07-89.45-.06-6.79-.03-11.63-5.07-11.53-11.24.1-6.18,5.04-10.94,11.85-11,14.82-.11,29.65-.03,44.47-.03Z"/>
</svg>