<?xml version="1.0" encoding="utf-8"?>
<!-- Generator: Adobe Illustrator 18.0.0, SVG Export Plug-In . SVG Version: 6.00 Build 0)  -->
<!DOCTYPE svg PUBLIC "-//W3C//DTD SVG 1.1//EN" "http://www.w3.org/Graphics/SVG/1.1/DTD/svg11.dtd">
<svg version="1.1" id="Layer_1" xmlns="http://www.w3.org/2000/svg" xmlns:xlink="http://www.w3.org/1999/xlink" x="0px" y="0px"
	 viewBox="0 0 512 512.5" enable-background="new 0 0 512 512.5" xml:space="preserve">
<g>
	<defs>
		<rect id="SVGID_1_" width="512" height="512.5"/>
	</defs>
	<clipPath id="SVGID_2_">
		<use xlink:href="#SVGID_1_"  overflow="visible"/>
	</clipPath>
	<path clip-path="url(#SVGID_2_)" fill="#5F6368" d="M17,0h475c9.4,0,17,7.6,17,17v478c0,9.4-7.6,17-17,17H17c-9.4,0-17-7.6-17-17
		V17C0,7.6,7.6,0,17,0"/>
	<path clip-path="url(#SVGID_2_)" fill="#FFFFFF" d="M381.2,250.2c13.2,4.2,22.2,6.1,32.5,19.8c5-65.4-15.2-119.8-70.8-155.9
		c-57.6-37.3-117.8-37.2-175.2,0.4c-55.3,36.2-75.3,90.6-69.8,156c3.1-3.4,6-7,9.3-10.2c1.7-1.6,5.6-4.6,7.6-5.8
		c9.4-5.5,13.5-5.8,19.7-6.8c16.4-2.5,26.3,2.1,38.2,11.8c10.6,8.7,16.7,20.2,16.8,34c0.3,32.8,0.5,65.5,0,98.3
		c-0.4,24.3-20.3,44-44.5,45.5c-1.8,0.1-3.7-0.2-5.5-0.6c-3.6-0.9-7.4-1.5-10.8-3c-12-5.1-17.9-8.5-32.4-17.7
		c-4.6-2.9-9.9-7.6-13.5-11.7c-13.6-15.3-18-34.6-18.1-54.9c-0.1-34.2-0.2-68.3,0-102.5c0.5-81,49.2-151,124.8-179.5
		c88.7-33.5,191.1,5.9,234.9,90c14.7,28.2,22,58.2,22.1,89.9c0.1,33.9,0.1,67.7,0,101.6c-0.1,22.5-2.2,26.9-14.2,46
		c-7.5,11.9-11.1,15.6-18.3,21.6c-15.4,13-26.6,16.4-44.1,20.5c-8.1,1.9-16.4-1.4-23.6-5.5c-15.4-8.9-24.5-22.2-24.7-40.1
		c-0.4-32.9-0.5-65.9,0.1-98.8c0.4-23.8,21.9-44.1,45.6-44.3"/>
</g>
</svg>
