<?xml version="1.0" encoding="UTF-8"?>
<svg id="Layer_1" xmlns="http://www.w3.org/2000/svg" viewBox="0 0 382.9 511.83">
  <defs>
    <style>
      .cls-1 {
        fill: #e4252a;
      }

      .cls-2 {
        fill: #fefdfd;
      }

      .cls-3 {
        fill: #ec676a;
      }
    </style>
  </defs>
  <path class="cls-1" d="M56.44,0h180.93c.03,47.94.12,95.88-.01,143.82-.01,4.75,1.27,6.25,6.14,6.23,45.94-.17,91.88-.11,137.83-.11,2.35,1.75,1.36,4.3,1.36,6.49.05,95.1.05,190.21.04,285.31,0,2.5.02,5.01-.2,7.49-2.41,27.57-16.45,46.74-41.71,57.89-5,2.21-10.48,2.64-15.48,4.71H56.44c-.71-1.59-2.31-1.06-3.5-1.34-7.5-1.76-14.67-4.35-21.16-8.55C10.16,487.94-.02,467.95,0,442.28c.09-124.24.04-248.49.05-372.73,0-2.33.04-4.66.18-6.99C1.92,34.02,21.55,9.83,49.06,2.28c2.48-.68,5.25-.46,7.38-2.28ZM156.1,334.85c0,14.32-.02,28.64.03,42.96,0,1.78-.88,4.21,2.57,4.09,13.46-.46,26.99,1.07,40.4-.9,24.32-3.58,38.45-19.9,39.07-44.77.61-24.5-12.71-41.65-36.45-46.44-13.66-2.75-27.56-.93-41.34-1.52-3.7-.16-4.37,1.32-4.34,4.62.15,13.99.06,27.97.06,41.96ZM74.12,335.05c0,14.31.07,28.63-.06,42.94-.03,2.94.6,4.13,3.82,3.96,5.31-.29,10.66-.27,15.97,0,3.28.17,4.3-.84,4.22-4.14-.21-8.48.06-16.98-.13-25.46-.08-3.31,1.07-4.29,4.29-4.19,5.48.16,10.99.12,16.47-.25,15.61-1.05,26.46-12.07,27.48-27.67,1.02-15.6-8.37-28.02-23.7-31-3.57-.69-7.28-.82-10.93-.85-10.98-.11-21.97.15-32.95-.14-4-.11-4.6,1.37-4.56,4.88.18,13.98.07,27.96.07,41.94ZM250.23,334.94c0,14.15.16,28.31-.1,42.46-.07,3.9,1.16,4.77,4.76,4.56,5.14-.3,10.33-.27,15.48,0,3.18.16,3.91-.99,3.86-3.98-.17-10.15.02-20.31-.12-30.47-.04-2.79.73-3.72,3.6-3.67,8.65.17,17.32-.16,25.97.16,3.93.15,4.86-1.2,4.57-4.8-.3-3.81-.24-7.66-.01-11.48.18-2.99-.7-4.12-3.86-4.01-6.65.22-13.32.07-19.98.07-10.35,0-10.13,0-10.35-10.49-.08-3.98,1.31-4.6,4.82-4.53,11.15.21,22.31-.02,33.46.14,3.08.04,4.56-.56,4.31-4.04-.3-4.14-.32-8.34,0-12.48.28-3.57-1.32-4.09-4.35-4.07-19.31.1-38.63.12-57.94-.02-3.25-.02-4.24.89-4.2,4.21.18,14.15.08,28.3.08,42.46Z"/>
  <path class="cls-3" d="M238.37,0c13.83,14.62,27.59,29.3,41.5,43.84,33.15,34.64,66.37,69.21,99.56,103.82.68.71,1.27,1.52,1.9,2.28-45.94,0-91.88-.06-137.83.11-4.87.02-6.16-1.48-6.14-6.23.13-47.94.04-95.88.01-143.82.33,0,.67,0,1,0Z"/>
  <path class="cls-2" d="M156.1,334.85c0-13.99.09-27.97-.06-41.96-.04-3.3.64-4.78,4.34-4.62,13.78.59,27.68-1.24,41.34,1.52,23.74,4.79,37.07,21.94,36.45,46.44-.62,24.86-14.75,41.19-39.07,44.77-13.4,1.97-26.93.44-40.4.9-3.45.12-2.57-2.31-2.57-4.09-.05-14.32-.03-28.64-.03-42.96ZM186.86,308.82q-7.44-.07-7.44,7.15c0,11.79,0,23.58,0,35.37q0,11.35,11.35,9.94c8.98-1.12,16.81-4.15,20.89-13.04,9.37-20.41-2.49-39.23-24.79-39.43Z"/>
  <path class="cls-2" d="M74.12,335.05c0-13.98.11-27.96-.07-41.94-.05-3.51.56-4.98,4.56-4.88,10.98.3,21.97.04,32.95.14,3.65.04,7.37.16,10.93.85,15.33,2.98,24.72,15.4,23.7,31-1.02,15.59-11.87,26.62-27.48,27.67-5.47.37-10.98.41-16.47.25-3.23-.09-4.37.88-4.29,4.19.19,8.48-.08,16.98.13,25.46.08,3.3-.94,4.31-4.22,4.14-5.31-.27-10.66-.28-15.97,0-3.22.17-3.85-1.02-3.82-3.96.13-14.31.06-28.63.06-42.94ZM98.01,318.17c0,2.33,0,4.66,0,6.99,0,1.35-.07,2.77,1.94,2.72,4.98-.12,10.02.21,14.93-.44,5.01-.67,7.73-4.73,7.48-9.65-.25-4.81-3.48-8.24-8.54-8.81-2.14-.24-4.32-.14-6.48-.14q-9.34-.01-9.33,9.34Z"/>
  <path class="cls-2" d="M250.23,334.94c0-14.15.1-28.31-.08-42.46-.04-3.32.96-4.23,4.2-4.21,19.31.13,38.63.11,57.94.02,3.03-.02,4.63.5,4.35,4.07-.32,4.14-.3,8.34,0,12.48.25,3.49-1.23,4.09-4.31,4.04-11.15-.15-22.31.07-33.46-.14-3.52-.07-4.91.55-4.82,4.53.22,10.48,0,10.49,10.35,10.49,6.66,0,13.32.16,19.98-.07,3.16-.11,4.04,1.02,3.86,4.01-.23,3.82-.29,7.67.01,11.48.28,3.6-.65,4.95-4.57,4.8-8.65-.32-17.31.01-25.97-.16-2.87-.06-3.64.88-3.6,3.67.15,10.15-.05,20.31.12,30.47.05,3-.68,4.14-3.86,3.98-5.15-.26-10.33-.3-15.48,0-3.6.21-4.83-.66-4.76-4.56.26-14.15.1-28.3.1-42.46Z"/>
  <path class="cls-1" d="M186.86,308.82c22.3.2,34.16,19.02,24.79,39.43-4.08,8.89-11.91,11.92-20.89,13.04q-11.35,1.41-11.35-9.94c0-11.79,0-23.58,0-35.37q0-7.21,7.44-7.15Z"/>
  <path class="cls-1" d="M98.01,318.17q0-9.35,9.33-9.34c2.16,0,4.34-.1,6.48.14,5.06.57,8.3,4,8.54,8.81.25,4.92-2.48,8.99-7.48,9.65-4.91.65-9.95.33-14.93.44-2,.05-1.93-1.37-1.94-2.72,0-2.33,0-4.66,0-6.99Z"/>
</svg>