<?xml version="1.0" encoding="utf-8"?>
<!-- Generator: Adobe Illustrator 18.0.0, SVG Export Plug-In . SVG Version: 6.00 Build 0)  -->
<!DOCTYPE svg PUBLIC "-//W3C//DTD SVG 1.1//EN" "http://www.w3.org/Graphics/SVG/1.1/DTD/svg11.dtd">
<svg version="1.1" id="Layer_1" xmlns="http://www.w3.org/2000/svg" xmlns:xlink="http://www.w3.org/1999/xlink" x="0px" y="0px"
	 viewBox="0 0 512 512" enable-background="new 0 0 512 512" xml:space="preserve">
<g>
	<defs>
		<rect id="SVGID_1_" width="512" height="512"/>
	</defs>
	<clipPath id="SVGID_2_">
		<use xlink:href="#SVGID_1_"  overflow="visible"/>
	</clipPath>
	<path clip-path="url(#SVGID_2_)" fill="#5F6368" d="M494,512H19c-9.4,0-17-7.6-17-17V17.5c0-9.4,7.6-17,17-17h475
		c9.4,0,17,7.6,17,17V495C511,504.4,503.4,512,494,512"/>
	<path clip-path="url(#SVGID_2_)" fill="#FFFFFF" d="M257,31.9c124.5,1,225,102.4,224,226.1c-1,124.5-102.4,225-226.1,224
		c-124.5-1-225-102.5-224-226.1C31.9,131.4,133.4,30.9,257,31.9 M205.7,256.9c0,22.3,0,44.7,0,67c0,12.3,6.8,16.1,17.5,9.9
		c25.4-14.7,50.8-29.3,76.2-43.9c13.6-7.8,27.2-15.6,40.7-23.5c9.1-5.3,9.1-13.4,0-18.9c-0.7-0.4-1.4-0.8-2.2-1.3
		c-38.2-22.1-76.5-44.1-114.7-66.2c-10.8-6.2-17.5-2.4-17.5,9.9C205.7,212.3,205.7,234.6,205.7,256.9"/>
</g>
</svg>
