<?xml version="1.0" encoding="UTF-8"?>
<svg id="Layer_1" xmlns="http://www.w3.org/2000/svg" viewBox="0 0 382.77 511.83">
  <defs>
    <style>
      .cls-1 {
        fill: #4d9c76;
      }

      .cls-2 {
        fill: #fdfefd;
      }

      .cls-3 {
        fill: #00733b;
      }
    </style>
  </defs>
  <path class="cls-3" d="M325.27,511.83H56.37c-5.42-1.83-11.1-3.12-16.22-5.56C13.51,493.57.03,472.33.02,442.76-.01,318.19,0,193.61,0,69.04c0-2,.02-4,.13-5.99C1.62,34.38,21.36,9.86,49.01,2.28c2.48-.68,5.19-.61,7.37-2.28h180.93c.03,47.95.12,95.9-.02,143.85-.01,4.71,1.15,6.23,6.05,6.21,43.95-.18,87.91-.1,131.86-.12,1.82,0,3.64-.23,5.47-.35,2.95,1.55,1.94,4.35,1.94,6.69.04,95.19.04,190.38.03,285.56,0,2.49-.05,4.99-.2,7.48-1.67,29.2-22.35,53.83-50.73,60.68-2.14.52-4.65,0-6.44,1.82ZM269.6,278.76c-8.8-.16-17.97,3.01-25.4,10.6-3.23,3.3-5.31,7.18-6.02,11.79-2.03,13.03,3.77,23.29,16.01,28.99,7.73,3.6,16.26,4.77,23.96,8.36,3.35,1.56,6.05,3.75,5.53,7.95-.5,4.06-3.41,5.81-7.04,6.78-8.64,2.33-17.43-2.51-20.22-11.73-.94-3.12-2.04-3.47-4.76-2.56-4.41,1.48-8.87,2.85-13.38,3.96-2.77.68-3.36,2.07-2.75,4.65,1.49,6.36,4.56,11.75,9.44,16.09,12.5,11.15,31.28,13.46,46.68,5.76,14.65-7.33,19.97-23.13,13.19-38.13-4.39-9.72-13.01-13.33-22.15-16.26-5.21-1.66-10.64-2.62-15.9-4.16-3.02-.88-5.62-2.74-5.25-6.35.38-3.76,3.31-5.11,6.65-5.67,7.42-1.22,13.62,1.78,16.6,8.91,1.47,3.52,2.97,3.45,5.82,2.1,4.35-2.06,8.75-4.12,13.31-5.61,3.62-1.18,3.7-2.92,2.31-5.86-1.95-4.14-4.52-7.75-8.06-10.65-7.83-6.4-16.94-8.94-28.57-8.97ZM79.63,279.87c-.1,2.2,1.25,3.38,2.06,4.74,6.98,11.71,13.95,23.43,21.13,35.02,1.55,2.49,1.5,4.23,0,6.71-8.12,13.35-16.05,26.82-23.98,40.29-1.06,1.8-2.62,3.41-2.89,6.12,6.75,0,13.35-.21,19.94.09,3.31.15,5.03-.98,6.63-3.82,4.6-8.18,9.56-16.17,14.76-24.88,5.31,8.93,10.21,17.18,15.14,25.41.9,1.5,1.47,3.28,3.91,3.24,7.26-.13,14.52-.05,21.8-.05.28-2.32-1.09-3.51-1.89-4.87-8.09-13.76-16.17-27.53-24.44-41.17-1.61-2.66-1.53-4.56.07-7.17,7.11-11.63,14.02-23.39,20.93-35.14.79-1.35,2.2-2.5,1.88-4.53-6.7,0-13.37.17-20.01-.08-3.04-.11-4.82.79-6.3,3.5-3.39,6.21-7.14,12.22-11.08,18.89-4.22-6.98-7.97-13.21-11.74-19.43-.83-1.37-1.31-2.96-3.53-2.92-7.44.11-14.88.04-22.38.04ZM167.92,326.13c0,13.99.11,27.97-.08,41.96-.05,3.59.71,4.84,4.62,4.77,14.65-.26,29.3,0,43.95-.16,5.08-.05,12.02,2.31,14.72-1.07,2.55-3.19.6-9.86.96-14.98.23-3.38-1.01-4.23-4.24-4.17-10.49.18-20.98-.12-31.46.17-4.02.11-4.98-1.13-4.95-5.02.19-21.14,0-42.29.17-63.43.03-3.47-.82-4.62-4.37-4.4-5.14.31-10.33.27-15.48,0-3.09-.16-3.95.79-3.91,3.88.16,14.15.07,28.3.07,42.46Z"/>
  <path class="cls-1" d="M238.3,0c15.78,16.65,31.5,33.35,47.35,49.93,30.8,32.23,61.68,64.4,92.51,96.6.91.95,1.68,2.04,2.51,3.07-1.82.12-3.64.35-5.47.35-43.95.02-87.91-.06-131.86.12-4.9.02-6.06-1.5-6.05-6.21.14-47.95.04-95.9.02-143.85.33,0,.67,0,1,0Z"/>
  <path class="cls-2" d="M269.6,278.76c11.63.04,20.74,2.57,28.57,8.97,3.55,2.9,6.11,6.51,8.06,10.65,1.39,2.94,1.3,4.68-2.31,5.86-4.56,1.49-8.95,3.56-13.31,5.61-2.85,1.35-4.34,1.42-5.82-2.1-2.98-7.13-9.18-10.13-16.6-8.91-3.34.55-6.27,1.9-6.65,5.67-.37,3.61,2.23,5.47,5.25,6.35,5.26,1.54,10.69,2.49,15.9,4.16,9.14,2.92,17.76,6.53,22.15,16.26,6.78,15,1.46,30.8-13.19,38.13-15.4,7.7-34.18,5.39-46.68-5.76-4.87-4.35-7.94-9.74-9.44-16.09-.6-2.57-.02-3.96,2.75-4.65,4.51-1.11,8.97-2.47,13.38-3.96,2.72-.92,3.82-.56,4.76,2.56,2.79,9.22,11.58,14.06,20.22,11.73,3.63-.98,6.53-2.72,7.04-6.78.52-4.2-2.19-6.39-5.53-7.95-7.7-3.59-16.23-4.76-23.96-8.36-12.24-5.7-18.04-15.96-16.01-28.99.72-4.61,2.8-8.49,6.02-11.79,7.43-7.59,16.6-10.76,25.4-10.6Z"/>
  <path class="cls-2" d="M79.63,279.87c7.5,0,14.94.07,22.38-.04,2.22-.03,2.7,1.55,3.53,2.92,3.77,6.22,7.52,12.45,11.74,19.43,3.94-6.67,7.68-12.69,11.08-18.89,1.48-2.71,3.26-3.61,6.3-3.5,6.65.25,13.31.08,20.01.08.32,2.03-1.09,3.19-1.88,4.53-6.92,11.75-13.82,23.51-20.93,35.14-1.6,2.61-1.68,4.51-.07,7.17,8.28,13.65,16.36,27.41,24.44,41.17.8,1.36,2.17,2.55,1.89,4.87-7.28,0-14.54-.08-21.8.05-2.44.04-3.01-1.73-3.91-3.24-4.94-8.23-9.83-16.48-15.14-25.41-5.2,8.71-10.15,16.7-14.76,24.88-1.59,2.83-3.32,3.97-6.63,3.82-6.58-.3-13.19-.09-19.94-.09.27-2.71,1.83-4.32,2.89-6.12,7.93-13.47,15.86-26.93,23.98-40.29,1.51-2.48,1.55-4.22,0-6.71-7.18-11.59-14.15-23.31-21.13-35.02-.81-1.36-2.16-2.53-2.06-4.74Z"/>
  <path class="cls-2" d="M167.92,326.13c0-14.15.09-28.31-.07-42.46-.04-3.09.82-4.03,3.91-3.88,5.15.26,10.33.3,15.48,0,3.54-.22,4.4.93,4.37,4.4-.17,21.14.01,42.29-.17,63.43-.03,3.89.93,5.13,4.95,5.02,10.48-.29,20.98.02,31.46-.17,3.23-.06,4.48.8,4.24,4.17-.36,5.12,1.6,11.79-.96,14.98-2.7,3.38-9.65,1.01-14.72,1.07-14.65.15-29.3-.1-43.95.16-3.91.07-4.67-1.18-4.62-4.77.19-13.98.08-27.97.08-41.96Z"/>
</svg>