<?xml version="1.0" encoding="UTF-8"?><svg id="Layer_1" xmlns="http://www.w3.org/2000/svg" viewBox="0 0 184.51 174.32"><defs><style>.cls-1{fill:none;stroke:#212121;stroke-linecap:round;stroke-miterlimit:10;stroke-width:5.5px;}</style></defs><path class="cls-1" d="M98.73,5.33c3.65,3.44,3.65,9.02,0,12.46-3.65,3.44-9.56,3.44-13.21,0-3.65-3.44-3.65-9.02,0-12.46,3.65-3.44,9.56-3.44,13.21,0Z"/><line class="cls-1" x1="92.12" y1="33.4" x2="92.12" y2="21.25"/><path class="cls-1" d="M85.79,168.99c-3.65-3.44-3.65-9.02,0-12.46,3.65-3.44,9.56-3.44,13.21,0,3.65,3.44,3.65,9.02,0,12.46-3.65,3.44-9.56,3.44-13.21,0Z"/><line class="cls-1" x1="92.39" y1="139.74" x2="92.39" y2="153.07"/><path class="cls-1" d="M5.49,81.06c3.65-3.44,9.56-3.44,13.21,0s3.65,9.02,0,12.46-9.56,3.44-13.21,0c-3.65-3.44-3.65-9.02,0-12.46Z"/><line class="cls-1" x1="35.25" y1="87.29" x2="22.37" y2="87.29"/><path class="cls-1" d="M179.02,93.26c-3.65,3.44-9.56,3.44-13.21,0-3.65-3.44-3.65-9.02,0-12.46,3.65-3.44,9.56-3.44,13.21,0,3.65,3.44,3.65,9.02,0,12.46Z"/><line class="cls-1" x1="149.27" y1="87.03" x2="162.15" y2="87.03"/><path class="cls-1" d="M158.19,33.61c0,4.86-4.18,8.81-9.34,8.81s-9.34-3.94-9.34-8.81,4.18-8.81,9.34-8.81,9.34,3.94,9.34,8.81Z"/><line class="cls-1" x1="131.58" y1="49.89" x2="141.58" y2="40.46"/><path class="cls-1" d="M26.33,33.61c0,4.86,4.18,8.81,9.34,8.81s9.34-3.94,9.34-8.81-4.18-8.81-9.34-8.81-9.34,3.94-9.34,8.81Z"/><line class="cls-1" x1="52.93" y1="49.89" x2="42.93" y2="40.46"/><ellipse class="cls-1" cx="148.84" cy="140.71" rx="9.34" ry="8.81"/><line class="cls-1" x1="131.58" y1="124.43" x2="141.58" y2="133.86"/><path class="cls-1" d="M26.33,140.71c0-4.86,4.18-8.81,9.34-8.81s9.34,3.94,9.34,8.81-4.18,8.81-9.34,8.81-9.34-3.94-9.34-8.81Z"/><line class="cls-1" x1="52.93" y1="124.43" x2="42.93" y2="133.86"/><path class="cls-1" d="M123.66,84.7l-1.82-7.35c-.07-.27.01-.56.21-.77l6.47-6.73c.99-1.03,1.13-2.56.35-3.74-.89-1.35-1.88-2.66-2.96-3.93-1.08-1.27-2.23-2.47-3.43-3.59-1.05-.97-2.65-1.18-3.94-.5l-8.43,4.48c-.26.14-.57.15-.84.03l-7.22-3.27c-.27-.12-.46-.36-.5-.64l-1.52-8.96c-.23-1.38-1.41-2.43-2.88-2.6-1.67-.19-3.37-.28-5.1-.28s-3.44.1-5.11.28c-1.46.16-2.64,1.21-2.88,2.58l-1.56,9c-.05.27-.23.5-.49.63l-7.74,3.61c-.26.12-.57.12-.83-.02l-8.47-4.35c-1.3-.67-2.9-.43-3.94.57-1.18,1.14-2.29,2.35-3.35,3.64-1.06,1.29-2.02,2.63-2.88,3.99-.76,1.19-.59,2.71.42,3.72l6.6,6.66c.2.2.29.49.22.76l-1.64,7.39c-.06.27-.26.5-.54.61l-8.89,3.51c-1.36.54-2.17,1.87-2,3.25.2,1.58.51,3.16.91,4.74.41,1.59.91,3.13,1.5,4.62.51,1.3,1.87,2.13,3.34,2.02l9.64-.69c.29-.02.58.09.77.31l5.08,5.83c.19.22.25.51.17.78l-2.66,8.73c-.41,1.34.18,2.77,1.44,3.5,1.43.84,2.93,1.6,4.49,2.29,1.57.69,3.16,1.29,4.76,1.79,1.4.44,2.93-.04,3.76-1.19l5.47-7.54c.17-.23.44-.37.74-.37l8-.07c.3,0,.58.13.75.36l5.56,7.41c.85,1.14,2.4,1.6,3.8,1.13,1.59-.53,3.16-1.15,4.71-1.87,1.55-.72,3.04-1.52,4.46-2.38,1.24-.75,1.8-2.19,1.37-3.51l-2.81-8.74c-.09-.27-.03-.56.15-.77l4.94-5.93c.18-.22.47-.34.77-.32l9.62.55c1.47.08,2.82-.77,3.31-2.08.55-1.5,1.02-3.04,1.4-4.63.38-1.59.65-3.19.82-4.77.15-1.38-.68-2.69-2.05-3.21l-8.99-3.4c-.27-.1-.48-.33-.54-.6Z"/><path class="cls-1" d="M106.37,87.99c0,7.44-6.39,13.46-14.28,13.46s-14.28-6.03-14.28-13.46,6.39-13.46,14.28-13.46,14.28,6.03,14.28,13.46Z"/></svg>