<?xml version="1.0" encoding="UTF-8"?><svg id="Layer_1" xmlns="http://www.w3.org/2000/svg" viewBox="0 0 260 200.81"><defs><style>.cls-1{fill:#fff;}.cls-2{fill:none;stroke:#171717;stroke-linecap:round;stroke-miterlimit:10;stroke-width:5.99px;}.cls-3{fill:#212121;}</style></defs><path class="cls-2" d="M187.29,68.14c0-4.5-3.63-8.14-8.11-8.14H11.11c-4.48,0-8.11,3.65-8.11,8.14v21.61c0,.35.19.67.49.84l90.57,51.86c.67.39,1.5.39,2.18,0l90.57-51.86c.3-.17.49-.49.49-.84v-21.61Z"/><path class="cls-2" d="M187.29,109.01v80.66c0,4.5-3.63,8.14-8.11,8.14H11.11c-4.48,0-8.11-3.64-8.11-8.14v-80.66"/><line class="cls-2" x1="18.21" y1="170.99" x2="56.19" y2="142.03"/><line class="cls-2" x1="172.08" y1="170.99" x2="134.1" y2="142.03"/><circle class="cls-3" cx="149" cy="45" r="45"/><path class="cls-1" d="M134.53,58.16h12.31v-26.43h-10.14v-6.59c6.18-.93,9.43-2.06,12.95-4.16h7.79v37.18h10.39v8.55h-33.31v-8.55Z"/></svg>