<?xml version="1.0" encoding="UTF-8"?><svg id="Layer_1" xmlns="http://www.w3.org/2000/svg" viewBox="0 0 192.28 175.63"><defs><style>.cls-1{fill:none;stroke:#212121;stroke-linecap:round;stroke-miterlimit:10;stroke-width:4.83px;}</style></defs><path class="cls-1" d="M120.4,68.78V20.88c0-10.2-8.67-18.46-19.36-18.46H21.77C11.08,2.42,2.42,10.68,2.42,20.88v59.57c0,10.2,8.67,18.46,19.36,18.46h3.79c.23,0,.41.17.41.39v21.24c0,1.29,1.63,1.94,2.6,1.04l24.24-22.53c.09-.09.22-.14.35-.14h8.93"/><path class="cls-1" d="M120.4,84.89h-29.32c-8.71,0-15.76,6.69-15.76,14.95v12.36c0,8.26,7.06,14.95,15.76,14.95h29.32l44.45,28.04c3.4,2.14,7.94-.17,7.94-4.04V60.89c0-3.87-4.55-6.18-7.94-4.04l-44.45,28.04Z"/><path class="cls-1" d="M91.35,139.27v26.99c0,3.85,3.29,6.97,7.35,6.97h15.2c4,0,7.24-3.08,7.24-6.87h0c0-3.7-3.08-6.71-6.94-6.86-.17,0-.3-.13-.3-.29v-19.93"/><line class="cls-1" x1="120.4" y1="84.89" x2="120.4" y2="126.53"/><path class="cls-1" d="M175.27,91.87c8.06,0,14.6,6.2,14.6,13.84s-6.53,13.84-14.6,13.84"/><path class="cls-1" d="M64.3,50.15c0,1.52-1.3,2.75-2.9,2.75s-2.9-1.23-2.9-2.75,1.3-2.75,2.9-2.75,2.9,1.23,2.9,2.75Z"/><path class="cls-1" d="M36.65,50.15c0,1.52-1.3,2.75-2.9,2.75s-2.9-1.23-2.9-2.75,1.3-2.75,2.9-2.75,2.9,1.23,2.9,2.75Z"/><path class="cls-1" d="M86.17,50.15c0,1.52,1.3,2.75,2.9,2.75s2.9-1.23,2.9-2.75-1.3-2.75-2.9-2.75-2.9,1.23-2.9,2.75Z"/></svg>