<?xml version="1.0" encoding="UTF-8"?><svg id="Layer_1" xmlns="http://www.w3.org/2000/svg" viewBox="0 0 204.3 180.5"><defs><style>.cls-1{fill:none;stroke:#212121;stroke-linecap:round;stroke-miterlimit:10;stroke-width:5.5px;}</style></defs><rect class="cls-1" x="2.75" y="2.75" width="198.79" height="175" rx="10.8" ry="10.8"/><line class="cls-1" x1="19.39" y1="43.41" x2="184.9" y2="43.41"/><path class="cls-1" d="M179.34,23c0,.96-.78,1.74-1.74,1.74s-1.74-.78-1.74-1.74.78-1.74,1.74-1.74,1.74.78,1.74,1.74Z"/><path class="cls-1" d="M159.2,23c0,.96-.78,1.74-1.74,1.74s-1.74-.78-1.74-1.74.78-1.74,1.74-1.74,1.74.78,1.74,1.74Z"/><line class="cls-1" x1="38.22" y1="137.87" x2="151.69" y2="137.87"/><line class="cls-1" x1="101.57" y1="107.37" x2="166.08" y2="107.37"/><line class="cls-1" x1="101.57" y1="76.88" x2="166.08" y2="76.88"/><rect class="cls-1" x="38.22" y="74.27" width="41.75" height="36.03" rx="1.19" ry="1.19"/></svg>