<?xml version="1.0" encoding="UTF-8"?><svg id="Layer_1" xmlns="http://www.w3.org/2000/svg" viewBox="0 0 192.71 160.05"><defs><style>.cls-1{fill:none;stroke:#212121;stroke-linecap:round;stroke-miterlimit:10;stroke-width:5.71px;}</style></defs><path class="cls-1" d="M130.01,120.11h58.9c.52,0,.95.43.95.95v20.58c0,8.58-6.97,15.55-15.55,15.55h-29.69c-8.58,0-15.55-6.97-15.55-15.55v-20.58c0-.52.43-.95.95-.95Z"/><path class="cls-1" d="M137.4,119.36v-14.42c0-11.17,9.88-20.23,22.06-20.23s22.06,9.06,22.06,20.23v14.42"/><line class="cls-1" x1="159.46" y1="132.65" x2="159.46" y2="143.05"/><path class="cls-1" d="M115.19,131.14H19.15c-9,0-16.29-6.69-16.29-14.94V17.79C2.85,9.54,10.15,2.85,19.15,2.85h145.28c9,0,16.29,6.69,16.29,14.94v60.5"/><line class="cls-1" x1="167.38" y1="32.41" x2="16.19" y2="32.41"/><line class="cls-1" x1="167.38" y1="60.12" x2="16.19" y2="60.12"/><line class="cls-1" x1="29.64" y1="95.33" x2="63.82" y2="95.33"/><path class="cls-1" d="M130.01,120.11h58.9c.52,0,.95.43.95.95v20.58c0,8.58-6.97,15.55-15.55,15.55h-29.69c-8.58,0-15.55-6.97-15.55-15.55v-20.58c0-.52.43-.95.95-.95Z"/><path class="cls-1" d="M137.4,119.36v-14.42c0-11.17,9.88-20.23,22.06-20.23s22.06,9.06,22.06,20.23v14.42"/><line class="cls-1" x1="159.46" y1="132.65" x2="159.46" y2="143.05"/><path class="cls-1" d="M115.19,131.14H19.15c-9,0-16.29-6.69-16.29-14.94V17.79C2.85,9.54,10.15,2.85,19.15,2.85h145.28c9,0,16.29,6.69,16.29,14.94v60.5"/><line class="cls-1" x1="167.38" y1="32.41" x2="16.19" y2="32.41"/><line class="cls-1" x1="167.38" y1="60.12" x2="16.19" y2="60.12"/><line class="cls-1" x1="29.64" y1="95.33" x2="63.82" y2="95.33"/></svg>