<?xml version="1.0" encoding="UTF-8"?><svg id="Layer_1" xmlns="http://www.w3.org/2000/svg" viewBox="0 0 203.07 182.09"><defs><style>.cls-1{fill:none;stroke:#212121;stroke-linecap:round;stroke-miterlimit:10;stroke-width:5.34px;}</style></defs><line class="cls-1" x1="27.12" y1="179.42" x2="27.12" y2="146.99"/><path class="cls-1" d="M107.19,179.42v-52.03c0-2.83-1.44-5.46-3.83-6.96-6.84-4.27-22.87-12.11-48.43-12.11s-41.6,7.85-48.43,12.12c-2.39,1.49-3.83,4.12-3.83,6.95v52.03"/><line class="cls-1" x1="82.74" y1="146.99" x2="82.74" y2="179.42"/><path class="cls-1" d="M78,65.09c0,15.53-10.18,27.73-22.73,27.73s-22.73-12.2-22.73-27.73,10.18-24.49,22.73-24.49,22.73,8.96,22.73,24.49Z"/><line class="cls-1" x1="123.78" y1="79.6" x2="150.89" y2="52.37"/><path class="cls-1" d="M200.05,24.9l-16.54-4.73c-.26-.07-.46-.28-.53-.53l-4.71-16.61c-.1-.36-.55-.47-.81-.21l-17.21,17.29c-.31.31-.49.74-.5,1.18l-.38,22.53s.03.07.07.07l22.43-.38c.44,0,.86-.19,1.17-.5l17.21-17.29c.26-.26.15-.71-.21-.81Z"/><path class="cls-1" d="M145.04,79.1c0,11.55-9.32,20.92-20.82,20.92s-20.82-9.37-20.82-20.92,9.32-20.92,20.82-20.92"/><path class="cls-1" d="M91.37,46.45c8.37-8.5,20-13.77,32.84-13.77,6.96,0,13.55,1.54,19.47,4.31"/><path class="cls-1" d="M166.09,59.48c2.77,5.96,4.32,12.61,4.32,19.63,0,25.64-20.69,46.42-46.2,46.42"/><path class="cls-1" d="M73.14,27.79c13.07-13.13,31.13-21.26,51.08-21.26,8.84,0,17.31,1.6,25.15,4.52"/><path class="cls-1" d="M192.01,54.01c2.87,7.82,4.43,16.27,4.43,25.09,0,40.08-32.34,72.57-72.23,72.57"/></svg>