<?xml version="1.0" encoding="UTF-8"?><svg id="Layer_1" xmlns="http://www.w3.org/2000/svg" viewBox="0 0 196.77 183.88"><defs><style>.cls-1{fill:none;stroke:#212121;stroke-linecap:round;stroke-miterlimit:10;stroke-width:5.5px;}</style></defs><path class="cls-1" d="M193.72,142.95l-48.74-34.06c-.08-.06-.19,0-.19.1l-.16,59.46c0,.53.56.87,1.03.63l15.14-7.86c.2-.1.45-.03.56.18l10.08,19.41c.15.29.52.41.81.26l15.9-8.26c.3-.15.41-.52.26-.81l-10.08-19.41c-.11-.2-.03-.45.18-.56l15.14-7.86c.47-.24.51-.9.08-1.2Z"/><line class="cls-1" x1="139.21" y1="98" x2="133.63" y2="87.26"/><line class="cls-1" x1="131.48" y1="107.2" x2="119.94" y2="103.54"/><line class="cls-1" x1="132.52" y1="119.16" x2="121.78" y2="124.74"/><line class="cls-1" x1="151.17" y1="96.97" x2="154.82" y2="85.42"/><line class="cls-1" x1="160.36" y1="104.69" x2="171.11" y2="99.11"/><path class="cls-1" d="M130.93,162.09H12.29c-5.27,0-9.53-4.27-9.53-9.53V12.29C2.75,7.02,7.02,2.75,12.29,2.75h161.94c5.27,0,9.53,4.27,9.53,9.53v108.31"/><line class="cls-1" x1="17.9" y1="39.77" x2="168.61" y2="39.77"/><path class="cls-1" d="M163.54,21.18c0,.88-.71,1.59-1.59,1.59s-1.59-.71-1.59-1.59.71-1.59,1.59-1.59,1.59.71,1.59,1.59Z"/><path class="cls-1" d="M145.2,21.18c0,.88-.71,1.59-1.59,1.59s-1.59-.71-1.59-1.59.71-1.59,1.59-1.59,1.59.71,1.59,1.59Z"/><line class="cls-1" x1="35.04" y1="125.78" x2="107.99" y2="125.78"/><line class="cls-1" x1="90.03" y1="98.01" x2="107.99" y2="98.01"/><line class="cls-1" x1="90.03" y1="70.24" x2="151.47" y2="70.24"/><rect class="cls-1" x="35.04" y="67.87" width="38.02" height="32.81" rx="1.08" ry="1.08"/></svg>